G04 EAGLE Gerber RS-274X export*
G75*
%MOMM*%
%FSLAX34Y34*%
%LPD*%
%INCopper Layer 15*%
%IPPOS*%
%AMOC8*
5,1,8,0,0,1.08239X$1,22.5*%
G01*
%ADD10C,1.524000*%
%ADD11C,0.756400*%
%ADD12C,0.254000*%

G36*
X596966Y2008D02*
X596966Y2008D01*
X597033Y2005D01*
X597160Y2027D01*
X597288Y2041D01*
X597351Y2061D01*
X597417Y2072D01*
X597536Y2120D01*
X597659Y2159D01*
X597717Y2191D01*
X597779Y2216D01*
X597886Y2287D01*
X597999Y2350D01*
X598049Y2394D01*
X598105Y2430D01*
X598196Y2521D01*
X598293Y2606D01*
X598333Y2659D01*
X598380Y2706D01*
X598450Y2814D01*
X598528Y2917D01*
X598556Y2977D01*
X598593Y3033D01*
X598640Y3153D01*
X598695Y3269D01*
X598711Y3334D01*
X598735Y3396D01*
X598747Y3482D01*
X598787Y3648D01*
X598792Y3818D01*
X598804Y3905D01*
X598804Y251074D01*
X598794Y251173D01*
X598794Y251273D01*
X598774Y251367D01*
X598764Y251462D01*
X598734Y251557D01*
X598714Y251654D01*
X598675Y251742D01*
X598646Y251834D01*
X598598Y251920D01*
X598558Y252012D01*
X598513Y252070D01*
X598455Y252173D01*
X598297Y252354D01*
X598247Y252421D01*
X596767Y253900D01*
X595375Y257261D01*
X595375Y260899D01*
X596767Y264260D01*
X598054Y265546D01*
X598096Y265598D01*
X598144Y265643D01*
X598218Y265749D01*
X598300Y265849D01*
X598330Y265908D01*
X598368Y265962D01*
X598420Y266080D01*
X598479Y266195D01*
X598497Y266259D01*
X598523Y266320D01*
X598549Y266446D01*
X598584Y266570D01*
X598588Y266637D01*
X598602Y266702D01*
X598602Y266831D01*
X598610Y266959D01*
X598601Y267025D01*
X598601Y267091D01*
X598575Y267218D01*
X598557Y267345D01*
X598535Y267408D01*
X598521Y267473D01*
X598469Y267591D01*
X598426Y267712D01*
X598391Y267769D01*
X598365Y267830D01*
X598312Y267900D01*
X598223Y268045D01*
X598107Y268170D01*
X598054Y268239D01*
X585547Y280747D01*
X585469Y280809D01*
X585399Y280880D01*
X585318Y280932D01*
X585244Y280992D01*
X585156Y281038D01*
X585072Y281093D01*
X584983Y281128D01*
X584898Y281172D01*
X584802Y281199D01*
X584709Y281235D01*
X584637Y281245D01*
X584523Y281277D01*
X584283Y281293D01*
X584200Y281304D01*
X25400Y281304D01*
X25301Y281294D01*
X25201Y281294D01*
X25107Y281274D01*
X25012Y281264D01*
X24917Y281234D01*
X24820Y281214D01*
X24732Y281175D01*
X24641Y281146D01*
X24554Y281097D01*
X24463Y281058D01*
X24405Y281013D01*
X24301Y280955D01*
X24120Y280797D01*
X24054Y280747D01*
X11354Y268047D01*
X11309Y267991D01*
X11307Y267990D01*
X11303Y267984D01*
X11291Y267969D01*
X11220Y267899D01*
X11168Y267818D01*
X11108Y267744D01*
X11078Y267688D01*
X11072Y267680D01*
X11058Y267651D01*
X11007Y267572D01*
X10972Y267483D01*
X10928Y267398D01*
X10914Y267345D01*
X10905Y267327D01*
X10895Y267285D01*
X10865Y267209D01*
X10855Y267137D01*
X10823Y267023D01*
X10820Y266978D01*
X10813Y266949D01*
X10808Y266803D01*
X10807Y266783D01*
X10796Y266700D01*
X10796Y3905D01*
X10803Y3839D01*
X10800Y3772D01*
X10822Y3645D01*
X10836Y3517D01*
X10856Y3454D01*
X10867Y3388D01*
X10915Y3269D01*
X10954Y3146D01*
X10986Y3088D01*
X11011Y3026D01*
X11082Y2919D01*
X11145Y2806D01*
X11189Y2756D01*
X11225Y2700D01*
X11316Y2609D01*
X11401Y2512D01*
X11454Y2472D01*
X11501Y2425D01*
X11609Y2355D01*
X11712Y2277D01*
X11772Y2249D01*
X11828Y2212D01*
X11948Y2165D01*
X12064Y2110D01*
X12129Y2094D01*
X12191Y2070D01*
X12277Y2058D01*
X12443Y2018D01*
X12613Y2013D01*
X12700Y2001D01*
X596900Y2001D01*
X596966Y2008D01*
G37*
%LPC*%
G36*
X374864Y102869D02*
X374864Y102869D01*
X372914Y103677D01*
X371421Y105170D01*
X370613Y107120D01*
X370613Y109232D01*
X371421Y111182D01*
X372914Y112675D01*
X374864Y113483D01*
X376301Y113483D01*
X376367Y113490D01*
X376434Y113487D01*
X376561Y113509D01*
X376689Y113523D01*
X376752Y113543D01*
X376818Y113554D01*
X376937Y113602D01*
X377060Y113641D01*
X377118Y113673D01*
X377180Y113698D01*
X377287Y113769D01*
X377400Y113832D01*
X377450Y113876D01*
X377506Y113912D01*
X377597Y114003D01*
X377694Y114088D01*
X377734Y114141D01*
X377781Y114188D01*
X377851Y114296D01*
X377929Y114399D01*
X377957Y114459D01*
X377994Y114515D01*
X378041Y114635D01*
X378096Y114751D01*
X378112Y114816D01*
X378136Y114878D01*
X378148Y114964D01*
X378188Y115130D01*
X378193Y115300D01*
X378205Y115387D01*
X378205Y119375D01*
X378202Y119409D01*
X378204Y119442D01*
X378182Y119602D01*
X378165Y119763D01*
X378155Y119795D01*
X378151Y119828D01*
X378096Y119980D01*
X378047Y120135D01*
X378031Y120164D01*
X378020Y120195D01*
X377935Y120333D01*
X377856Y120474D01*
X377834Y120499D01*
X377817Y120528D01*
X377706Y120646D01*
X377600Y120768D01*
X377573Y120788D01*
X377551Y120812D01*
X377418Y120905D01*
X377289Y121003D01*
X377259Y121018D01*
X377232Y121037D01*
X377083Y121101D01*
X376937Y121170D01*
X376905Y121178D01*
X376874Y121191D01*
X376715Y121224D01*
X376558Y121262D01*
X376525Y121263D01*
X376492Y121270D01*
X376330Y121270D01*
X376168Y121275D01*
X376136Y121269D01*
X376102Y121269D01*
X375944Y121236D01*
X375784Y121208D01*
X375754Y121196D01*
X375721Y121189D01*
X375572Y121124D01*
X375422Y121065D01*
X375394Y121046D01*
X375364Y121033D01*
X375297Y120982D01*
X375097Y120850D01*
X375013Y120766D01*
X374954Y120722D01*
X373480Y119247D01*
X370119Y117855D01*
X366481Y117855D01*
X363120Y119247D01*
X360547Y121820D01*
X359155Y125181D01*
X359155Y128819D01*
X360547Y132180D01*
X363120Y134753D01*
X366481Y136145D01*
X370119Y136145D01*
X373480Y134753D01*
X374954Y133278D01*
X374980Y133257D01*
X375002Y133232D01*
X375131Y133134D01*
X375257Y133032D01*
X375286Y133017D01*
X375313Y132997D01*
X375459Y132927D01*
X375603Y132853D01*
X375635Y132844D01*
X375665Y132830D01*
X375822Y132792D01*
X375978Y132748D01*
X376012Y132746D01*
X376044Y132738D01*
X376206Y132732D01*
X376367Y132722D01*
X376400Y132726D01*
X376434Y132725D01*
X376593Y132753D01*
X376753Y132775D01*
X376785Y132786D01*
X376818Y132792D01*
X376968Y132851D01*
X377121Y132906D01*
X377149Y132923D01*
X377180Y132935D01*
X377315Y133024D01*
X377453Y133109D01*
X377478Y133131D01*
X377506Y133150D01*
X377620Y133265D01*
X377738Y133375D01*
X377757Y133402D01*
X377781Y133426D01*
X377869Y133562D01*
X377962Y133694D01*
X377976Y133724D01*
X377994Y133752D01*
X378053Y133903D01*
X378117Y134052D01*
X378124Y134084D01*
X378136Y134115D01*
X378147Y134198D01*
X378196Y134433D01*
X378195Y134552D01*
X378205Y134625D01*
X378205Y137754D01*
X378195Y137853D01*
X378195Y137952D01*
X378175Y138046D01*
X378165Y138141D01*
X378135Y138236D01*
X378115Y138334D01*
X378076Y138421D01*
X378047Y138513D01*
X377998Y138600D01*
X377959Y138691D01*
X377915Y138749D01*
X377856Y138853D01*
X377698Y139034D01*
X377648Y139100D01*
X373404Y143344D01*
X373340Y143396D01*
X373282Y143456D01*
X373189Y143519D01*
X373102Y143590D01*
X373028Y143628D01*
X372959Y143674D01*
X372855Y143717D01*
X372756Y143769D01*
X372676Y143791D01*
X372599Y143823D01*
X372488Y143844D01*
X372380Y143874D01*
X372297Y143879D01*
X372216Y143895D01*
X372103Y143893D01*
X371991Y143900D01*
X371909Y143889D01*
X371826Y143887D01*
X371747Y143866D01*
X371605Y143847D01*
X371415Y143779D01*
X371329Y143756D01*
X370119Y143255D01*
X366481Y143255D01*
X363120Y144647D01*
X360547Y147220D01*
X359155Y150581D01*
X359155Y154219D01*
X360547Y157580D01*
X363120Y160153D01*
X366481Y161545D01*
X370119Y161545D01*
X373480Y160153D01*
X376053Y157580D01*
X377445Y154219D01*
X377445Y150581D01*
X376944Y149371D01*
X376920Y149292D01*
X376887Y149215D01*
X376864Y149105D01*
X376832Y148998D01*
X376825Y148915D01*
X376808Y148834D01*
X376808Y148721D01*
X376799Y148609D01*
X376809Y148527D01*
X376809Y148444D01*
X376832Y148334D01*
X376846Y148222D01*
X376872Y148144D01*
X376889Y148062D01*
X376934Y147959D01*
X376970Y147853D01*
X377012Y147781D01*
X377045Y147705D01*
X377095Y147640D01*
X377167Y147517D01*
X377219Y147459D01*
X377242Y147423D01*
X377312Y147354D01*
X377356Y147296D01*
X383795Y140858D01*
X383795Y134625D01*
X383798Y134591D01*
X383796Y134558D01*
X383818Y134398D01*
X383835Y134237D01*
X383845Y134205D01*
X383849Y134172D01*
X383904Y134020D01*
X383953Y133865D01*
X383969Y133836D01*
X383980Y133805D01*
X384065Y133667D01*
X384144Y133526D01*
X384166Y133501D01*
X384183Y133472D01*
X384294Y133354D01*
X384400Y133232D01*
X384427Y133212D01*
X384449Y133188D01*
X384582Y133095D01*
X384711Y132997D01*
X384741Y132982D01*
X384768Y132963D01*
X384917Y132899D01*
X385063Y132830D01*
X385095Y132822D01*
X385126Y132809D01*
X385285Y132776D01*
X385442Y132738D01*
X385475Y132737D01*
X385508Y132730D01*
X385670Y132730D01*
X385832Y132725D01*
X385864Y132731D01*
X385898Y132731D01*
X386056Y132764D01*
X386216Y132792D01*
X386246Y132804D01*
X386279Y132811D01*
X386428Y132876D01*
X386578Y132935D01*
X386606Y132954D01*
X386636Y132967D01*
X386703Y133018D01*
X386903Y133150D01*
X386987Y133234D01*
X387046Y133278D01*
X388520Y134753D01*
X391881Y136145D01*
X395519Y136145D01*
X398880Y134753D01*
X401453Y132180D01*
X402845Y128819D01*
X402845Y125181D01*
X401453Y121820D01*
X398880Y119247D01*
X395519Y117855D01*
X391881Y117855D01*
X388520Y119247D01*
X387046Y120722D01*
X387020Y120743D01*
X386998Y120768D01*
X386869Y120866D01*
X386743Y120968D01*
X386714Y120983D01*
X386687Y121003D01*
X386541Y121073D01*
X386397Y121147D01*
X386365Y121156D01*
X386335Y121170D01*
X386178Y121208D01*
X386022Y121252D01*
X385988Y121254D01*
X385956Y121262D01*
X385794Y121268D01*
X385633Y121278D01*
X385600Y121274D01*
X385566Y121275D01*
X385407Y121247D01*
X385247Y121225D01*
X385215Y121214D01*
X385182Y121208D01*
X385032Y121149D01*
X384879Y121094D01*
X384851Y121077D01*
X384820Y121065D01*
X384685Y120976D01*
X384547Y120891D01*
X384522Y120869D01*
X384494Y120850D01*
X384380Y120735D01*
X384262Y120625D01*
X384243Y120598D01*
X384219Y120574D01*
X384131Y120438D01*
X384038Y120306D01*
X384024Y120276D01*
X384006Y120248D01*
X383947Y120097D01*
X383883Y119948D01*
X383876Y119916D01*
X383864Y119885D01*
X383853Y119802D01*
X383804Y119567D01*
X383805Y119448D01*
X383795Y119375D01*
X383795Y115387D01*
X383802Y115321D01*
X383799Y115254D01*
X383821Y115127D01*
X383835Y114999D01*
X383855Y114936D01*
X383866Y114870D01*
X383914Y114751D01*
X383953Y114628D01*
X383985Y114570D01*
X384010Y114508D01*
X384081Y114401D01*
X384144Y114288D01*
X384188Y114238D01*
X384224Y114182D01*
X384315Y114091D01*
X384400Y113994D01*
X384453Y113954D01*
X384500Y113907D01*
X384608Y113837D01*
X384711Y113759D01*
X384771Y113731D01*
X384827Y113694D01*
X384947Y113647D01*
X385063Y113592D01*
X385128Y113576D01*
X385190Y113552D01*
X385276Y113540D01*
X385442Y113500D01*
X385612Y113495D01*
X385699Y113483D01*
X387136Y113483D01*
X389086Y112675D01*
X390579Y111182D01*
X391387Y109232D01*
X391387Y107120D01*
X390579Y105170D01*
X389086Y103677D01*
X387136Y102869D01*
X385024Y102869D01*
X383074Y103677D01*
X382347Y104405D01*
X382295Y104447D01*
X382250Y104495D01*
X382144Y104569D01*
X382044Y104651D01*
X381985Y104681D01*
X381931Y104719D01*
X381813Y104771D01*
X381698Y104830D01*
X381634Y104848D01*
X381573Y104874D01*
X381447Y104900D01*
X381323Y104935D01*
X381256Y104939D01*
X381191Y104953D01*
X381062Y104953D01*
X380934Y104961D01*
X380868Y104952D01*
X380801Y104952D01*
X380675Y104925D01*
X380548Y104908D01*
X380485Y104886D01*
X380420Y104872D01*
X380302Y104820D01*
X380180Y104777D01*
X380124Y104742D01*
X380063Y104716D01*
X379993Y104663D01*
X379848Y104574D01*
X379723Y104458D01*
X379654Y104405D01*
X378926Y103677D01*
X376976Y102869D01*
X374864Y102869D01*
G37*
%LPD*%
%LPC*%
G36*
X278344Y50573D02*
X278344Y50573D01*
X276394Y51381D01*
X274901Y52874D01*
X274093Y54824D01*
X274093Y56936D01*
X274901Y58886D01*
X276394Y60379D01*
X276467Y60409D01*
X276526Y60441D01*
X276588Y60464D01*
X276697Y60533D01*
X276810Y60594D01*
X276861Y60637D01*
X276917Y60673D01*
X277010Y60762D01*
X277108Y60846D01*
X277149Y60898D01*
X277197Y60944D01*
X277269Y61051D01*
X277349Y61152D01*
X277379Y61212D01*
X277416Y61267D01*
X277465Y61386D01*
X277522Y61501D01*
X277539Y61566D01*
X277564Y61627D01*
X277588Y61754D01*
X277621Y61879D01*
X277624Y61945D01*
X277636Y62010D01*
X277634Y62139D01*
X277640Y62268D01*
X277630Y62334D01*
X277629Y62400D01*
X277606Y62485D01*
X277580Y62653D01*
X277520Y62812D01*
X277498Y62897D01*
X276633Y64984D01*
X276633Y67096D01*
X277441Y69046D01*
X278934Y70539D01*
X280884Y71347D01*
X282506Y71347D01*
X282605Y71357D01*
X282704Y71357D01*
X282798Y71377D01*
X282893Y71387D01*
X282988Y71417D01*
X283086Y71437D01*
X283173Y71476D01*
X283265Y71505D01*
X283352Y71554D01*
X283443Y71593D01*
X283501Y71638D01*
X283605Y71696D01*
X283786Y71854D01*
X283852Y71904D01*
X304912Y92965D01*
X309461Y92965D01*
X309560Y92975D01*
X309660Y92975D01*
X309754Y92995D01*
X309849Y93005D01*
X309944Y93035D01*
X310041Y93055D01*
X310129Y93094D01*
X310220Y93123D01*
X310307Y93172D01*
X310398Y93211D01*
X310456Y93256D01*
X310560Y93314D01*
X310741Y93472D01*
X310808Y93522D01*
X311954Y94669D01*
X313904Y95477D01*
X316016Y95477D01*
X318004Y94653D01*
X318056Y94617D01*
X318156Y94535D01*
X318215Y94505D01*
X318269Y94467D01*
X318387Y94415D01*
X318502Y94356D01*
X318566Y94338D01*
X318627Y94312D01*
X318753Y94286D01*
X318877Y94251D01*
X318944Y94247D01*
X319009Y94233D01*
X319138Y94233D01*
X319266Y94225D01*
X319332Y94234D01*
X319399Y94234D01*
X319525Y94260D01*
X319652Y94278D01*
X319715Y94300D01*
X319780Y94314D01*
X319898Y94366D01*
X320019Y94409D01*
X320076Y94444D01*
X320137Y94470D01*
X320207Y94523D01*
X320352Y94612D01*
X320477Y94728D01*
X320547Y94781D01*
X321042Y95277D01*
X322992Y96085D01*
X325104Y96085D01*
X327054Y95277D01*
X328547Y93784D01*
X329355Y91833D01*
X329355Y89722D01*
X328547Y87772D01*
X327054Y86279D01*
X325104Y85471D01*
X324302Y85471D01*
X324203Y85461D01*
X324104Y85461D01*
X324010Y85441D01*
X323914Y85431D01*
X323820Y85401D01*
X323722Y85381D01*
X323634Y85342D01*
X323543Y85313D01*
X323456Y85264D01*
X323365Y85225D01*
X323307Y85180D01*
X323203Y85122D01*
X323022Y84964D01*
X322956Y84913D01*
X322136Y84094D01*
X294712Y56669D01*
X286611Y56669D01*
X286545Y56662D01*
X286478Y56665D01*
X286351Y56643D01*
X286223Y56629D01*
X286160Y56609D01*
X286094Y56598D01*
X285975Y56550D01*
X285852Y56511D01*
X285794Y56479D01*
X285732Y56454D01*
X285625Y56383D01*
X285512Y56320D01*
X285462Y56276D01*
X285406Y56240D01*
X285315Y56149D01*
X285218Y56064D01*
X285178Y56011D01*
X285131Y55964D01*
X285061Y55856D01*
X284983Y55753D01*
X284955Y55693D01*
X284918Y55637D01*
X284871Y55517D01*
X284816Y55401D01*
X284800Y55336D01*
X284776Y55274D01*
X284764Y55188D01*
X284724Y55022D01*
X284719Y54853D01*
X283899Y52874D01*
X282406Y51381D01*
X280456Y50573D01*
X278344Y50573D01*
G37*
%LPD*%
%LPC*%
G36*
X205954Y64543D02*
X205954Y64543D01*
X204004Y65351D01*
X202511Y66844D01*
X201703Y68794D01*
X201703Y70906D01*
X202511Y72856D01*
X204004Y74349D01*
X205954Y75157D01*
X208086Y75157D01*
X208194Y75130D01*
X208334Y75089D01*
X208383Y75085D01*
X208432Y75073D01*
X208577Y75068D01*
X208722Y75056D01*
X208772Y75062D01*
X208822Y75060D01*
X208964Y75085D01*
X209109Y75102D01*
X209156Y75118D01*
X209206Y75127D01*
X209341Y75180D01*
X209478Y75227D01*
X209522Y75252D01*
X209568Y75270D01*
X209689Y75350D01*
X209815Y75424D01*
X209852Y75457D01*
X209894Y75485D01*
X209996Y75588D01*
X210104Y75685D01*
X210133Y75725D01*
X210169Y75761D01*
X210248Y75883D01*
X210334Y76000D01*
X210354Y76045D01*
X210382Y76087D01*
X210435Y76222D01*
X210495Y76355D01*
X210506Y76404D01*
X210524Y76450D01*
X210536Y76539D01*
X210580Y76735D01*
X210582Y76879D01*
X210593Y76960D01*
X210593Y79400D01*
X211401Y81350D01*
X211593Y81541D01*
X211635Y81593D01*
X211683Y81638D01*
X211757Y81744D01*
X211839Y81844D01*
X211869Y81903D01*
X211907Y81957D01*
X211959Y82076D01*
X212018Y82190D01*
X212036Y82254D01*
X212062Y82315D01*
X212088Y82441D01*
X212123Y82565D01*
X212127Y82632D01*
X212141Y82697D01*
X212141Y82826D01*
X212149Y82954D01*
X212140Y83020D01*
X212140Y83087D01*
X212114Y83213D01*
X212096Y83340D01*
X212074Y83403D01*
X212060Y83468D01*
X212008Y83586D01*
X211965Y83708D01*
X211930Y83764D01*
X211904Y83825D01*
X211851Y83895D01*
X211762Y84040D01*
X211646Y84165D01*
X211593Y84234D01*
X211401Y84426D01*
X210593Y86376D01*
X210593Y88488D01*
X211401Y90438D01*
X211593Y90629D01*
X211635Y90681D01*
X211683Y90726D01*
X211757Y90832D01*
X211839Y90932D01*
X211869Y90991D01*
X211907Y91045D01*
X211959Y91164D01*
X212018Y91278D01*
X212036Y91342D01*
X212062Y91403D01*
X212088Y91529D01*
X212123Y91653D01*
X212127Y91720D01*
X212141Y91785D01*
X212141Y91914D01*
X212149Y92042D01*
X212140Y92108D01*
X212140Y92175D01*
X212114Y92301D01*
X212096Y92428D01*
X212074Y92491D01*
X212060Y92556D01*
X212008Y92674D01*
X211965Y92796D01*
X211930Y92852D01*
X211904Y92913D01*
X211851Y92983D01*
X211762Y93128D01*
X211646Y93253D01*
X211593Y93322D01*
X211401Y93514D01*
X210593Y95464D01*
X210593Y97576D01*
X211401Y99526D01*
X212894Y101019D01*
X214844Y101827D01*
X216956Y101827D01*
X218906Y101019D01*
X220399Y99526D01*
X221207Y97576D01*
X221207Y95464D01*
X220399Y93514D01*
X220207Y93322D01*
X220165Y93271D01*
X220117Y93225D01*
X220043Y93120D01*
X219961Y93020D01*
X219931Y92961D01*
X219893Y92907D01*
X219841Y92788D01*
X219782Y92674D01*
X219764Y92610D01*
X219738Y92549D01*
X219712Y92423D01*
X219677Y92299D01*
X219673Y92232D01*
X219659Y92167D01*
X219659Y92038D01*
X219651Y91910D01*
X219660Y91844D01*
X219660Y91777D01*
X219687Y91651D01*
X219704Y91524D01*
X219726Y91461D01*
X219740Y91396D01*
X219792Y91278D01*
X219835Y91156D01*
X219870Y91100D01*
X219896Y91039D01*
X219949Y90969D01*
X220038Y90824D01*
X220154Y90699D01*
X220207Y90629D01*
X220399Y90438D01*
X221207Y88488D01*
X221207Y86376D01*
X220399Y84426D01*
X220207Y84234D01*
X220165Y84183D01*
X220117Y84137D01*
X220043Y84032D01*
X219961Y83932D01*
X219931Y83873D01*
X219893Y83819D01*
X219841Y83700D01*
X219782Y83586D01*
X219764Y83522D01*
X219738Y83461D01*
X219712Y83335D01*
X219677Y83211D01*
X219673Y83144D01*
X219659Y83079D01*
X219659Y82950D01*
X219651Y82822D01*
X219660Y82756D01*
X219660Y82689D01*
X219686Y82563D01*
X219704Y82436D01*
X219726Y82373D01*
X219740Y82308D01*
X219792Y82190D01*
X219835Y82068D01*
X219870Y82012D01*
X219896Y81951D01*
X219949Y81881D01*
X220038Y81736D01*
X220154Y81611D01*
X220207Y81541D01*
X220399Y81350D01*
X221207Y79400D01*
X221207Y77288D01*
X220399Y75338D01*
X218906Y73845D01*
X216956Y73037D01*
X214824Y73037D01*
X214716Y73064D01*
X214576Y73105D01*
X214527Y73109D01*
X214478Y73121D01*
X214333Y73126D01*
X214188Y73138D01*
X214138Y73132D01*
X214088Y73134D01*
X213945Y73109D01*
X213801Y73092D01*
X213754Y73076D01*
X213704Y73067D01*
X213569Y73014D01*
X213431Y72967D01*
X213388Y72942D01*
X213342Y72924D01*
X213221Y72844D01*
X213095Y72770D01*
X213058Y72737D01*
X213016Y72709D01*
X212914Y72606D01*
X212806Y72509D01*
X212777Y72468D01*
X212741Y72433D01*
X212662Y72311D01*
X212576Y72194D01*
X212556Y72148D01*
X212528Y72107D01*
X212475Y71971D01*
X212415Y71839D01*
X212404Y71790D01*
X212386Y71744D01*
X212374Y71655D01*
X212330Y71459D01*
X212328Y71315D01*
X212317Y71234D01*
X212317Y68794D01*
X211509Y66844D01*
X210016Y65351D01*
X208066Y64543D01*
X205954Y64543D01*
G37*
%LPD*%
%LPC*%
G36*
X493481Y143255D02*
X493481Y143255D01*
X490120Y144647D01*
X487547Y147220D01*
X486155Y150581D01*
X486155Y154219D01*
X487547Y157580D01*
X490120Y160153D01*
X493481Y161545D01*
X497119Y161545D01*
X500480Y160153D01*
X503053Y157580D01*
X504445Y154219D01*
X504445Y150581D01*
X503053Y147220D01*
X500480Y144647D01*
X497119Y143255D01*
X493481Y143255D01*
G37*
%LPD*%
%LPC*%
G36*
X417281Y117855D02*
X417281Y117855D01*
X413920Y119247D01*
X411347Y121820D01*
X409955Y125181D01*
X409955Y128819D01*
X411347Y132180D01*
X413920Y134753D01*
X417281Y136145D01*
X420919Y136145D01*
X424280Y134753D01*
X426853Y132180D01*
X428245Y128819D01*
X428245Y125181D01*
X426853Y121820D01*
X424280Y119247D01*
X420919Y117855D01*
X417281Y117855D01*
G37*
%LPD*%
%LPC*%
G36*
X442681Y117855D02*
X442681Y117855D01*
X439320Y119247D01*
X436747Y121820D01*
X435355Y125181D01*
X435355Y128819D01*
X436747Y132180D01*
X439320Y134753D01*
X442681Y136145D01*
X446319Y136145D01*
X449680Y134753D01*
X452253Y132180D01*
X453645Y128819D01*
X453645Y125181D01*
X452253Y121820D01*
X449680Y119247D01*
X446319Y117855D01*
X442681Y117855D01*
G37*
%LPD*%
%LPC*%
G36*
X468081Y117855D02*
X468081Y117855D01*
X464720Y119247D01*
X462147Y121820D01*
X460755Y125181D01*
X460755Y128819D01*
X462147Y132180D01*
X464720Y134753D01*
X468081Y136145D01*
X471719Y136145D01*
X475080Y134753D01*
X477653Y132180D01*
X479045Y128819D01*
X479045Y125181D01*
X477653Y121820D01*
X475080Y119247D01*
X471719Y117855D01*
X468081Y117855D01*
G37*
%LPD*%
%LPC*%
G36*
X493481Y117855D02*
X493481Y117855D01*
X490120Y119247D01*
X487547Y121820D01*
X486155Y125181D01*
X486155Y128819D01*
X487547Y132180D01*
X490120Y134753D01*
X493481Y136145D01*
X497119Y136145D01*
X500480Y134753D01*
X503053Y132180D01*
X504445Y128819D01*
X504445Y125181D01*
X503053Y121820D01*
X500480Y119247D01*
X497119Y117855D01*
X493481Y117855D01*
G37*
%LPD*%
%LPC*%
G36*
X555711Y70865D02*
X555711Y70865D01*
X552350Y72257D01*
X549777Y74830D01*
X548385Y78191D01*
X548385Y81829D01*
X549777Y85190D01*
X552350Y87763D01*
X555711Y89155D01*
X559349Y89155D01*
X562710Y87763D01*
X565283Y85190D01*
X566675Y81829D01*
X566675Y78191D01*
X565283Y74830D01*
X562710Y72257D01*
X559349Y70865D01*
X555711Y70865D01*
G37*
%LPD*%
%LPC*%
G36*
X530311Y70865D02*
X530311Y70865D01*
X526950Y72257D01*
X524377Y74830D01*
X522985Y78191D01*
X522985Y81829D01*
X524377Y85190D01*
X526950Y87763D01*
X530311Y89155D01*
X533949Y89155D01*
X537310Y87763D01*
X539883Y85190D01*
X541275Y81829D01*
X541275Y78191D01*
X539883Y74830D01*
X537310Y72257D01*
X533949Y70865D01*
X530311Y70865D01*
G37*
%LPD*%
%LPC*%
G36*
X379181Y28955D02*
X379181Y28955D01*
X375820Y30347D01*
X373247Y32920D01*
X371855Y36281D01*
X371855Y39919D01*
X373247Y43280D01*
X375820Y45853D01*
X379181Y47245D01*
X382819Y47245D01*
X386180Y45853D01*
X388753Y43280D01*
X390145Y39919D01*
X390145Y36281D01*
X388753Y32920D01*
X386180Y30347D01*
X382819Y28955D01*
X379181Y28955D01*
G37*
%LPD*%
%LPC*%
G36*
X468081Y143255D02*
X468081Y143255D01*
X464720Y144647D01*
X462147Y147220D01*
X460755Y150581D01*
X460755Y154219D01*
X462147Y157580D01*
X464720Y160153D01*
X468081Y161545D01*
X471719Y161545D01*
X475080Y160153D01*
X477653Y157580D01*
X479045Y154219D01*
X479045Y150581D01*
X477653Y147220D01*
X475080Y144647D01*
X471719Y143255D01*
X468081Y143255D01*
G37*
%LPD*%
%LPC*%
G36*
X442681Y143255D02*
X442681Y143255D01*
X439320Y144647D01*
X436747Y147220D01*
X435355Y150581D01*
X435355Y154219D01*
X436747Y157580D01*
X439320Y160153D01*
X442681Y161545D01*
X446319Y161545D01*
X449680Y160153D01*
X452253Y157580D01*
X453645Y154219D01*
X453645Y150581D01*
X452253Y147220D01*
X449680Y144647D01*
X446319Y143255D01*
X442681Y143255D01*
G37*
%LPD*%
%LPC*%
G36*
X417281Y143255D02*
X417281Y143255D01*
X413920Y144647D01*
X411347Y147220D01*
X409955Y150581D01*
X409955Y154219D01*
X411347Y157580D01*
X413920Y160153D01*
X417281Y161545D01*
X420919Y161545D01*
X424280Y160153D01*
X426853Y157580D01*
X428245Y154219D01*
X428245Y150581D01*
X426853Y147220D01*
X424280Y144647D01*
X420919Y143255D01*
X417281Y143255D01*
G37*
%LPD*%
%LPC*%
G36*
X391881Y143255D02*
X391881Y143255D01*
X388520Y144647D01*
X385947Y147220D01*
X384555Y150581D01*
X384555Y154219D01*
X385947Y157580D01*
X388520Y160153D01*
X391881Y161545D01*
X395519Y161545D01*
X398880Y160153D01*
X401453Y157580D01*
X402845Y154219D01*
X402845Y150581D01*
X401453Y147220D01*
X398880Y144647D01*
X395519Y143255D01*
X391881Y143255D01*
G37*
%LPD*%
%LPC*%
G36*
X581111Y70865D02*
X581111Y70865D01*
X577750Y72257D01*
X575177Y74830D01*
X573785Y78191D01*
X573785Y81829D01*
X575177Y85190D01*
X577750Y87763D01*
X581111Y89155D01*
X584749Y89155D01*
X588110Y87763D01*
X590683Y85190D01*
X592075Y81829D01*
X592075Y78191D01*
X590683Y74830D01*
X588110Y72257D01*
X584749Y70865D01*
X581111Y70865D01*
G37*
%LPD*%
%LPC*%
G36*
X302981Y130555D02*
X302981Y130555D01*
X299620Y131947D01*
X297047Y134520D01*
X295655Y137881D01*
X295655Y141519D01*
X297047Y144880D01*
X299620Y147453D01*
X302981Y148845D01*
X306619Y148845D01*
X309980Y147453D01*
X312553Y144880D01*
X313945Y141519D01*
X313945Y137881D01*
X312553Y134520D01*
X309980Y131947D01*
X306619Y130555D01*
X302981Y130555D01*
G37*
%LPD*%
%LPC*%
G36*
X353781Y28955D02*
X353781Y28955D01*
X350420Y30347D01*
X347847Y32920D01*
X346455Y36281D01*
X346455Y39919D01*
X347847Y43280D01*
X350420Y45853D01*
X353781Y47245D01*
X357419Y47245D01*
X360780Y45853D01*
X363353Y43280D01*
X364745Y39919D01*
X364745Y36281D01*
X363353Y32920D01*
X360780Y30347D01*
X357419Y28955D01*
X353781Y28955D01*
G37*
%LPD*%
%LPC*%
G36*
X302981Y28955D02*
X302981Y28955D01*
X299620Y30347D01*
X297047Y32920D01*
X295655Y36281D01*
X295655Y39919D01*
X297047Y43280D01*
X299620Y45853D01*
X302981Y47245D01*
X306619Y47245D01*
X309980Y45853D01*
X312553Y43280D01*
X313945Y39919D01*
X313945Y36281D01*
X312553Y32920D01*
X309980Y30347D01*
X306619Y28955D01*
X302981Y28955D01*
G37*
%LPD*%
%LPC*%
G36*
X328381Y28955D02*
X328381Y28955D01*
X325020Y30347D01*
X322447Y32920D01*
X321055Y36281D01*
X321055Y39919D01*
X322447Y43280D01*
X325020Y45853D01*
X328381Y47245D01*
X332019Y47245D01*
X335380Y45853D01*
X337953Y43280D01*
X339345Y39919D01*
X339345Y36281D01*
X337953Y32920D01*
X335380Y30347D01*
X332019Y28955D01*
X328381Y28955D01*
G37*
%LPD*%
%LPC*%
G36*
X531581Y16255D02*
X531581Y16255D01*
X528220Y17647D01*
X525647Y20220D01*
X524255Y23581D01*
X524255Y27219D01*
X525647Y30580D01*
X528220Y33153D01*
X531581Y34545D01*
X535219Y34545D01*
X538580Y33153D01*
X541153Y30580D01*
X542545Y27219D01*
X542545Y23581D01*
X541153Y20220D01*
X538580Y17647D01*
X535219Y16255D01*
X531581Y16255D01*
G37*
%LPD*%
%LPC*%
G36*
X582381Y16255D02*
X582381Y16255D01*
X579020Y17647D01*
X576447Y20220D01*
X575055Y23581D01*
X575055Y27219D01*
X576447Y30580D01*
X579020Y33153D01*
X582381Y34545D01*
X586019Y34545D01*
X589380Y33153D01*
X591953Y30580D01*
X593345Y27219D01*
X593345Y23581D01*
X591953Y20220D01*
X589380Y17647D01*
X586019Y16255D01*
X582381Y16255D01*
G37*
%LPD*%
%LPC*%
G36*
X556981Y16255D02*
X556981Y16255D01*
X553620Y17647D01*
X551047Y20220D01*
X549655Y23581D01*
X549655Y27219D01*
X551047Y30580D01*
X553620Y33153D01*
X556981Y34545D01*
X560619Y34545D01*
X563980Y33153D01*
X566553Y30580D01*
X567945Y27219D01*
X567945Y23581D01*
X566553Y20220D01*
X563980Y17647D01*
X560619Y16255D01*
X556981Y16255D01*
G37*
%LPD*%
%LPC*%
G36*
X526501Y249935D02*
X526501Y249935D01*
X523140Y251327D01*
X520567Y253900D01*
X519175Y257261D01*
X519175Y260899D01*
X520567Y264260D01*
X523140Y266833D01*
X526501Y268225D01*
X530139Y268225D01*
X533500Y266833D01*
X536073Y264260D01*
X537465Y260899D01*
X537465Y257261D01*
X536073Y253900D01*
X533500Y251327D01*
X530139Y249935D01*
X526501Y249935D01*
G37*
%LPD*%
%LPC*%
G36*
X551901Y249935D02*
X551901Y249935D01*
X548540Y251327D01*
X545967Y253900D01*
X544575Y257261D01*
X544575Y260899D01*
X545967Y264260D01*
X548540Y266833D01*
X551901Y268225D01*
X555539Y268225D01*
X558900Y266833D01*
X561473Y264260D01*
X562865Y260899D01*
X562865Y257261D01*
X561473Y253900D01*
X558900Y251327D01*
X555539Y249935D01*
X551901Y249935D01*
G37*
%LPD*%
%LPC*%
G36*
X577301Y249935D02*
X577301Y249935D01*
X573940Y251327D01*
X571367Y253900D01*
X569975Y257261D01*
X569975Y260899D01*
X571367Y264260D01*
X573940Y266833D01*
X577301Y268225D01*
X580939Y268225D01*
X584300Y266833D01*
X586873Y264260D01*
X588265Y260899D01*
X588265Y257261D01*
X586873Y253900D01*
X584300Y251327D01*
X580939Y249935D01*
X577301Y249935D01*
G37*
%LPD*%
%LPC*%
G36*
X190672Y138654D02*
X190672Y138654D01*
X188721Y139462D01*
X187229Y140955D01*
X186307Y143180D01*
X186267Y143253D01*
X186237Y143330D01*
X186175Y143424D01*
X186122Y143523D01*
X186068Y143586D01*
X186023Y143656D01*
X185943Y143735D01*
X185871Y143821D01*
X185805Y143872D01*
X185746Y143931D01*
X185652Y143992D01*
X185564Y144061D01*
X185490Y144098D01*
X185420Y144144D01*
X185315Y144185D01*
X185215Y144235D01*
X185134Y144256D01*
X185057Y144286D01*
X184976Y144297D01*
X184838Y144333D01*
X184636Y144343D01*
X184548Y144355D01*
X183520Y144355D01*
X181570Y145163D01*
X180077Y146656D01*
X179269Y148606D01*
X179269Y150718D01*
X179994Y152468D01*
X180018Y152548D01*
X180051Y152624D01*
X180074Y152734D01*
X180106Y152842D01*
X180113Y152924D01*
X180130Y153006D01*
X180130Y153118D01*
X180139Y153230D01*
X180129Y153313D01*
X180129Y153396D01*
X180106Y153506D01*
X180092Y153617D01*
X180066Y153696D01*
X180049Y153777D01*
X180004Y153880D01*
X179968Y153987D01*
X179926Y154058D01*
X179893Y154134D01*
X179843Y154199D01*
X179771Y154323D01*
X179636Y154472D01*
X179582Y154544D01*
X178381Y155744D01*
X177573Y157694D01*
X177573Y159806D01*
X178381Y161756D01*
X179874Y163249D01*
X181824Y164057D01*
X183936Y164057D01*
X185886Y163249D01*
X187379Y161756D01*
X188187Y159806D01*
X188187Y157694D01*
X187462Y155944D01*
X187438Y155864D01*
X187405Y155788D01*
X187382Y155678D01*
X187350Y155570D01*
X187343Y155488D01*
X187326Y155406D01*
X187326Y155294D01*
X187317Y155182D01*
X187327Y155099D01*
X187327Y155016D01*
X187350Y154906D01*
X187364Y154795D01*
X187390Y154716D01*
X187407Y154635D01*
X187452Y154532D01*
X187488Y154425D01*
X187530Y154354D01*
X187563Y154278D01*
X187613Y154213D01*
X187685Y154089D01*
X187820Y153940D01*
X187874Y153869D01*
X189075Y152668D01*
X189996Y150443D01*
X190036Y150370D01*
X190066Y150293D01*
X190128Y150199D01*
X190182Y150100D01*
X190235Y150037D01*
X190281Y149967D01*
X190360Y149888D01*
X190433Y149802D01*
X190498Y149751D01*
X190557Y149692D01*
X190651Y149631D01*
X190739Y149562D01*
X190814Y149525D01*
X190883Y149479D01*
X190988Y149438D01*
X191089Y149388D01*
X191169Y149367D01*
X191246Y149337D01*
X191327Y149326D01*
X191466Y149290D01*
X191667Y149280D01*
X191756Y149268D01*
X192783Y149268D01*
X194733Y148460D01*
X196226Y146967D01*
X197034Y145017D01*
X197034Y142905D01*
X196226Y140955D01*
X194733Y139462D01*
X192783Y138654D01*
X190672Y138654D01*
G37*
%LPD*%
%LPC*%
G36*
X190107Y26669D02*
X190107Y26669D01*
X188156Y27477D01*
X186663Y28970D01*
X185855Y30920D01*
X185855Y33032D01*
X186663Y34982D01*
X188156Y36475D01*
X190107Y37283D01*
X192218Y37283D01*
X194168Y36475D01*
X194360Y36283D01*
X194411Y36241D01*
X194457Y36193D01*
X194562Y36119D01*
X194662Y36037D01*
X194721Y36007D01*
X194775Y35969D01*
X194894Y35917D01*
X195008Y35858D01*
X195072Y35840D01*
X195133Y35814D01*
X195259Y35788D01*
X195383Y35753D01*
X195450Y35749D01*
X195515Y35735D01*
X195644Y35735D01*
X195772Y35727D01*
X195838Y35736D01*
X195905Y35736D01*
X196031Y35762D01*
X196158Y35780D01*
X196221Y35802D01*
X196286Y35816D01*
X196404Y35868D01*
X196526Y35911D01*
X196582Y35946D01*
X196643Y35972D01*
X196713Y36025D01*
X196858Y36114D01*
X196983Y36230D01*
X197053Y36283D01*
X197244Y36475D01*
X199195Y37283D01*
X201306Y37283D01*
X203256Y36475D01*
X203554Y36177D01*
X203605Y36136D01*
X203651Y36087D01*
X203756Y36013D01*
X203856Y35931D01*
X203915Y35901D01*
X203969Y35863D01*
X204088Y35811D01*
X204202Y35752D01*
X204266Y35734D01*
X204327Y35708D01*
X204453Y35682D01*
X204577Y35647D01*
X204644Y35643D01*
X204709Y35629D01*
X204838Y35630D01*
X204966Y35621D01*
X205032Y35630D01*
X205099Y35630D01*
X205225Y35657D01*
X205352Y35674D01*
X205415Y35697D01*
X205480Y35710D01*
X205598Y35762D01*
X205720Y35805D01*
X205776Y35840D01*
X205837Y35866D01*
X205907Y35919D01*
X206052Y36008D01*
X206177Y36124D01*
X206247Y36177D01*
X206544Y36475D01*
X208494Y37283D01*
X210606Y37283D01*
X212556Y36475D01*
X214049Y34982D01*
X214857Y33032D01*
X214857Y30920D01*
X214049Y28970D01*
X212556Y27477D01*
X210606Y26669D01*
X208494Y26669D01*
X206544Y27477D01*
X206247Y27775D01*
X206195Y27816D01*
X206150Y27865D01*
X206044Y27939D01*
X205944Y28021D01*
X205885Y28051D01*
X205831Y28089D01*
X205712Y28141D01*
X205598Y28200D01*
X205534Y28218D01*
X205473Y28244D01*
X205347Y28270D01*
X205223Y28305D01*
X205156Y28309D01*
X205091Y28323D01*
X204962Y28322D01*
X204834Y28331D01*
X204768Y28322D01*
X204701Y28322D01*
X204575Y28295D01*
X204448Y28278D01*
X204385Y28255D01*
X204320Y28242D01*
X204202Y28190D01*
X204080Y28147D01*
X204024Y28112D01*
X203963Y28086D01*
X203893Y28033D01*
X203748Y27944D01*
X203623Y27828D01*
X203554Y27775D01*
X203256Y27477D01*
X201306Y26669D01*
X199195Y26669D01*
X197244Y27477D01*
X197053Y27669D01*
X197001Y27711D01*
X196956Y27759D01*
X196850Y27833D01*
X196750Y27915D01*
X196691Y27945D01*
X196637Y27983D01*
X196518Y28035D01*
X196404Y28094D01*
X196340Y28112D01*
X196279Y28138D01*
X196153Y28164D01*
X196029Y28199D01*
X195962Y28203D01*
X195897Y28217D01*
X195768Y28217D01*
X195640Y28225D01*
X195574Y28216D01*
X195507Y28216D01*
X195382Y28190D01*
X195254Y28172D01*
X195191Y28150D01*
X195126Y28136D01*
X195008Y28084D01*
X194887Y28041D01*
X194830Y28006D01*
X194769Y27980D01*
X194699Y27927D01*
X194554Y27838D01*
X194429Y27722D01*
X194360Y27669D01*
X194168Y27477D01*
X192218Y26669D01*
X190107Y26669D01*
G37*
%LPD*%
%LPC*%
G36*
X164044Y96293D02*
X164044Y96293D01*
X162094Y97101D01*
X160601Y98594D01*
X159793Y100544D01*
X159793Y102656D01*
X160601Y104606D01*
X162094Y106099D01*
X162316Y106191D01*
X162345Y106207D01*
X162377Y106217D01*
X162517Y106299D01*
X162659Y106376D01*
X162684Y106397D01*
X162713Y106414D01*
X162833Y106523D01*
X162957Y106627D01*
X162977Y106653D01*
X163002Y106676D01*
X163098Y106807D01*
X163198Y106934D01*
X163212Y106964D01*
X163232Y106991D01*
X163299Y107138D01*
X163371Y107283D01*
X163379Y107315D01*
X163393Y107346D01*
X163428Y107503D01*
X163469Y107660D01*
X163471Y107693D01*
X163478Y107726D01*
X163481Y107888D01*
X163489Y108049D01*
X163484Y108082D01*
X163484Y108116D01*
X163454Y108275D01*
X163429Y108435D01*
X163417Y108466D01*
X163411Y108499D01*
X163348Y108648D01*
X163291Y108799D01*
X163274Y108827D01*
X163261Y108858D01*
X163169Y108992D01*
X163083Y109129D01*
X163060Y109153D01*
X163041Y109180D01*
X162924Y109292D01*
X162811Y109408D01*
X162784Y109427D01*
X162760Y109450D01*
X162688Y109492D01*
X162489Y109627D01*
X162379Y109673D01*
X162316Y109709D01*
X162094Y109801D01*
X160601Y111294D01*
X159793Y113244D01*
X159793Y115356D01*
X160601Y117306D01*
X162094Y118799D01*
X164044Y119607D01*
X166156Y119607D01*
X168106Y118799D01*
X169599Y117306D01*
X170407Y115356D01*
X170407Y113244D01*
X169599Y111294D01*
X168106Y109801D01*
X167884Y109709D01*
X167855Y109693D01*
X167823Y109683D01*
X167684Y109601D01*
X167541Y109524D01*
X167516Y109503D01*
X167487Y109486D01*
X167367Y109377D01*
X167243Y109273D01*
X167223Y109247D01*
X167198Y109224D01*
X167102Y109093D01*
X167003Y108966D01*
X166988Y108937D01*
X166968Y108910D01*
X166901Y108762D01*
X166829Y108617D01*
X166821Y108585D01*
X166807Y108555D01*
X166772Y108397D01*
X166731Y108240D01*
X166729Y108207D01*
X166722Y108174D01*
X166719Y108012D01*
X166711Y107851D01*
X166716Y107818D01*
X166716Y107784D01*
X166746Y107626D01*
X166771Y107466D01*
X166783Y107434D01*
X166789Y107402D01*
X166851Y107253D01*
X166909Y107101D01*
X166926Y107072D01*
X166939Y107042D01*
X167030Y106908D01*
X167117Y106771D01*
X167140Y106748D01*
X167159Y106720D01*
X167276Y106608D01*
X167388Y106492D01*
X167416Y106473D01*
X167440Y106450D01*
X167512Y106408D01*
X167711Y106273D01*
X167821Y106228D01*
X167884Y106191D01*
X168106Y106099D01*
X169599Y104606D01*
X170407Y102656D01*
X170407Y100544D01*
X169599Y98594D01*
X168106Y97101D01*
X166156Y96293D01*
X164044Y96293D01*
G37*
%LPD*%
%LPC*%
G36*
X92924Y206783D02*
X92924Y206783D01*
X90974Y207591D01*
X89481Y209084D01*
X88673Y211034D01*
X88673Y213146D01*
X89481Y215096D01*
X90833Y216448D01*
X90864Y216486D01*
X90901Y216520D01*
X90987Y216637D01*
X91079Y216750D01*
X91102Y216794D01*
X91131Y216835D01*
X91191Y216967D01*
X91258Y217096D01*
X91271Y217144D01*
X91292Y217190D01*
X91324Y217331D01*
X91363Y217472D01*
X91366Y217521D01*
X91377Y217570D01*
X91380Y217715D01*
X91389Y217860D01*
X91383Y217910D01*
X91383Y217960D01*
X91356Y218103D01*
X91336Y218247D01*
X91319Y218294D01*
X91310Y218343D01*
X91254Y218477D01*
X91205Y218614D01*
X91179Y218656D01*
X91160Y218702D01*
X91078Y218822D01*
X91002Y218947D01*
X90968Y218983D01*
X90940Y219024D01*
X90835Y219125D01*
X90736Y219231D01*
X90695Y219260D01*
X90659Y219294D01*
X90582Y219339D01*
X90417Y219455D01*
X90286Y219512D01*
X90215Y219553D01*
X88434Y220291D01*
X86941Y221784D01*
X86133Y223734D01*
X86133Y225846D01*
X86941Y227796D01*
X88434Y229289D01*
X90384Y230097D01*
X92496Y230097D01*
X94446Y229289D01*
X95939Y227796D01*
X96747Y225846D01*
X96747Y223734D01*
X95939Y221784D01*
X94587Y220432D01*
X94561Y220400D01*
X94543Y220384D01*
X94537Y220377D01*
X94519Y220360D01*
X94433Y220243D01*
X94341Y220130D01*
X94322Y220092D01*
X94307Y220073D01*
X94304Y220066D01*
X94289Y220045D01*
X94229Y219913D01*
X94162Y219784D01*
X94150Y219742D01*
X94140Y219721D01*
X94138Y219714D01*
X94128Y219690D01*
X94096Y219549D01*
X94057Y219408D01*
X94054Y219366D01*
X94048Y219342D01*
X94048Y219334D01*
X94043Y219310D01*
X94040Y219165D01*
X94031Y219020D01*
X94036Y218978D01*
X94036Y218953D01*
X94037Y218944D01*
X94037Y218920D01*
X94064Y218777D01*
X94084Y218633D01*
X94098Y218594D01*
X94102Y218569D01*
X94106Y218560D01*
X94110Y218537D01*
X94166Y218403D01*
X94215Y218266D01*
X94236Y218232D01*
X94246Y218206D01*
X94252Y218198D01*
X94260Y218178D01*
X94342Y218058D01*
X94418Y217933D01*
X94444Y217905D01*
X94460Y217881D01*
X94469Y217872D01*
X94480Y217856D01*
X94585Y217755D01*
X94684Y217649D01*
X94714Y217628D01*
X94736Y217606D01*
X94748Y217598D01*
X94761Y217586D01*
X94820Y217551D01*
X94863Y217523D01*
X95003Y217425D01*
X95035Y217411D01*
X95063Y217393D01*
X95151Y217358D01*
X95205Y217327D01*
X96986Y216589D01*
X98479Y215096D01*
X99287Y213146D01*
X99287Y211034D01*
X98479Y209084D01*
X96986Y207591D01*
X95036Y206783D01*
X92924Y206783D01*
G37*
%LPD*%
%LPC*%
G36*
X428204Y77243D02*
X428204Y77243D01*
X426254Y78051D01*
X424761Y79544D01*
X423953Y81494D01*
X423953Y83606D01*
X424761Y85556D01*
X426254Y87049D01*
X428204Y87857D01*
X429631Y87857D01*
X429664Y87860D01*
X429698Y87858D01*
X429858Y87880D01*
X430019Y87897D01*
X430051Y87907D01*
X430084Y87911D01*
X430236Y87966D01*
X430390Y88015D01*
X430420Y88031D01*
X430451Y88042D01*
X430589Y88126D01*
X430730Y88206D01*
X430755Y88228D01*
X430784Y88245D01*
X430902Y88356D01*
X431024Y88462D01*
X431044Y88489D01*
X431068Y88512D01*
X431161Y88644D01*
X431259Y88773D01*
X431273Y88803D01*
X431293Y88830D01*
X431357Y88979D01*
X431426Y89125D01*
X431434Y89158D01*
X431447Y89188D01*
X431480Y89347D01*
X431518Y89504D01*
X431519Y89537D01*
X431526Y89570D01*
X431525Y89732D01*
X431531Y89894D01*
X431525Y89926D01*
X431525Y89960D01*
X431492Y90118D01*
X431464Y90278D01*
X431452Y90309D01*
X431445Y90341D01*
X431380Y90490D01*
X431320Y90640D01*
X431302Y90668D01*
X431289Y90698D01*
X431238Y90765D01*
X431129Y90930D01*
X430303Y92924D01*
X430303Y95036D01*
X431111Y96986D01*
X432604Y98479D01*
X434554Y99287D01*
X436666Y99287D01*
X438616Y98479D01*
X440109Y96986D01*
X440917Y95036D01*
X440917Y92924D01*
X440109Y90974D01*
X438616Y89481D01*
X436666Y88673D01*
X435239Y88673D01*
X435206Y88670D01*
X435172Y88672D01*
X435012Y88650D01*
X434851Y88633D01*
X434819Y88623D01*
X434786Y88619D01*
X434634Y88564D01*
X434480Y88515D01*
X434450Y88499D01*
X434419Y88488D01*
X434281Y88404D01*
X434140Y88324D01*
X434115Y88302D01*
X434086Y88285D01*
X433968Y88174D01*
X433846Y88068D01*
X433826Y88041D01*
X433802Y88018D01*
X433709Y87886D01*
X433611Y87757D01*
X433597Y87727D01*
X433577Y87700D01*
X433513Y87551D01*
X433444Y87405D01*
X433436Y87372D01*
X433423Y87342D01*
X433390Y87183D01*
X433352Y87026D01*
X433351Y86993D01*
X433344Y86960D01*
X433345Y86798D01*
X433339Y86636D01*
X433345Y86604D01*
X433345Y86570D01*
X433378Y86412D01*
X433406Y86252D01*
X433418Y86221D01*
X433425Y86189D01*
X433490Y86040D01*
X433550Y85890D01*
X433568Y85862D01*
X433581Y85832D01*
X433632Y85765D01*
X433741Y85600D01*
X434567Y83606D01*
X434567Y81494D01*
X433759Y79544D01*
X432266Y78051D01*
X430316Y77243D01*
X428204Y77243D01*
G37*
%LPD*%
%LPC*%
G36*
X277074Y227103D02*
X277074Y227103D01*
X275124Y227911D01*
X273631Y229404D01*
X272823Y231354D01*
X272823Y233466D01*
X273631Y235416D01*
X275128Y236913D01*
X275153Y236926D01*
X275200Y236943D01*
X275324Y237019D01*
X275452Y237088D01*
X275490Y237120D01*
X275533Y237146D01*
X275639Y237245D01*
X275750Y237339D01*
X275781Y237378D01*
X275817Y237412D01*
X275901Y237531D01*
X275991Y237646D01*
X276013Y237690D01*
X276042Y237731D01*
X276099Y237864D01*
X276164Y237995D01*
X276176Y238043D01*
X276196Y238089D01*
X276226Y238231D01*
X276262Y238372D01*
X276265Y238422D01*
X276275Y238471D01*
X276275Y238616D01*
X276282Y238761D01*
X276274Y238810D01*
X276274Y238861D01*
X276244Y239003D01*
X276222Y239146D01*
X276204Y239193D01*
X276194Y239242D01*
X276136Y239375D01*
X276085Y239511D01*
X276058Y239553D01*
X276038Y239599D01*
X275984Y239670D01*
X275876Y239840D01*
X275776Y239943D01*
X275727Y240008D01*
X274901Y240834D01*
X274093Y242784D01*
X274093Y244896D01*
X274901Y246846D01*
X276394Y248339D01*
X278344Y249147D01*
X280456Y249147D01*
X282406Y248339D01*
X283899Y246846D01*
X284707Y244896D01*
X284707Y242784D01*
X283899Y240834D01*
X282402Y239337D01*
X282377Y239324D01*
X282330Y239307D01*
X282206Y239231D01*
X282078Y239162D01*
X282040Y239130D01*
X281997Y239104D01*
X281891Y239005D01*
X281780Y238911D01*
X281749Y238872D01*
X281713Y238838D01*
X281629Y238719D01*
X281539Y238604D01*
X281517Y238560D01*
X281488Y238519D01*
X281431Y238386D01*
X281366Y238255D01*
X281354Y238207D01*
X281334Y238161D01*
X281304Y238019D01*
X281268Y237878D01*
X281265Y237828D01*
X281255Y237779D01*
X281255Y237634D01*
X281248Y237489D01*
X281256Y237440D01*
X281256Y237389D01*
X281286Y237247D01*
X281308Y237104D01*
X281326Y237057D01*
X281336Y237008D01*
X281394Y236875D01*
X281445Y236739D01*
X281472Y236697D01*
X281492Y236651D01*
X281546Y236580D01*
X281654Y236410D01*
X281754Y236307D01*
X281803Y236242D01*
X282629Y235416D01*
X283437Y233466D01*
X283437Y231354D01*
X282629Y229404D01*
X281136Y227911D01*
X279186Y227103D01*
X277074Y227103D01*
G37*
%LPD*%
%LPC*%
G36*
X136250Y119153D02*
X136250Y119153D01*
X134300Y119961D01*
X132807Y121454D01*
X131999Y123404D01*
X131999Y125516D01*
X132807Y127466D01*
X134300Y128959D01*
X135108Y129293D01*
X135166Y129325D01*
X135229Y129348D01*
X135337Y129417D01*
X135451Y129479D01*
X135502Y129522D01*
X135558Y129557D01*
X135650Y129647D01*
X135749Y129730D01*
X135790Y129782D01*
X135838Y129828D01*
X135910Y129935D01*
X135989Y130036D01*
X136019Y130096D01*
X136056Y130151D01*
X136105Y130270D01*
X136163Y130386D01*
X136179Y130450D01*
X136205Y130511D01*
X136229Y130638D01*
X136261Y130763D01*
X136264Y130829D01*
X136277Y130895D01*
X136274Y131023D01*
X136281Y131152D01*
X136270Y131218D01*
X136269Y131284D01*
X136247Y131369D01*
X136221Y131537D01*
X136161Y131697D01*
X136138Y131781D01*
X135663Y132928D01*
X135663Y135040D01*
X136471Y136990D01*
X137964Y138483D01*
X139914Y139291D01*
X142026Y139291D01*
X143976Y138483D01*
X145469Y136990D01*
X146277Y135040D01*
X146277Y132928D01*
X145469Y130978D01*
X143976Y129485D01*
X143168Y129151D01*
X143110Y129119D01*
X143047Y129096D01*
X142939Y129027D01*
X142825Y128965D01*
X142774Y128922D01*
X142718Y128887D01*
X142626Y128797D01*
X142527Y128714D01*
X142486Y128662D01*
X142438Y128616D01*
X142366Y128509D01*
X142287Y128408D01*
X142257Y128348D01*
X142220Y128293D01*
X142171Y128174D01*
X142113Y128058D01*
X142097Y127994D01*
X142071Y127933D01*
X142047Y127806D01*
X142015Y127681D01*
X142012Y127615D01*
X141999Y127549D01*
X142002Y127421D01*
X141995Y127292D01*
X142006Y127226D01*
X142007Y127160D01*
X142029Y127075D01*
X142055Y126907D01*
X142115Y126747D01*
X142138Y126663D01*
X142613Y125516D01*
X142613Y123404D01*
X141805Y121454D01*
X140312Y119961D01*
X138362Y119153D01*
X136250Y119153D01*
G37*
%LPD*%
%LPC*%
G36*
X190714Y60733D02*
X190714Y60733D01*
X188764Y61541D01*
X188467Y61839D01*
X188415Y61881D01*
X188370Y61929D01*
X188264Y62003D01*
X188164Y62085D01*
X188105Y62115D01*
X188051Y62153D01*
X187932Y62205D01*
X187818Y62264D01*
X187754Y62282D01*
X187693Y62308D01*
X187567Y62334D01*
X187443Y62369D01*
X187376Y62373D01*
X187311Y62387D01*
X187182Y62386D01*
X187054Y62395D01*
X186988Y62386D01*
X186921Y62386D01*
X186795Y62359D01*
X186668Y62342D01*
X186605Y62319D01*
X186540Y62306D01*
X186422Y62254D01*
X186300Y62211D01*
X186244Y62176D01*
X186183Y62150D01*
X186113Y62097D01*
X185968Y62008D01*
X185843Y61892D01*
X185773Y61839D01*
X185688Y61753D01*
X183738Y60945D01*
X181626Y60945D01*
X179676Y61753D01*
X178183Y63246D01*
X177375Y65196D01*
X177375Y67307D01*
X178183Y69258D01*
X179676Y70751D01*
X181626Y71559D01*
X183738Y71559D01*
X185688Y70751D01*
X185985Y70453D01*
X186037Y70411D01*
X186082Y70363D01*
X186188Y70289D01*
X186288Y70207D01*
X186347Y70177D01*
X186401Y70139D01*
X186520Y70087D01*
X186634Y70028D01*
X186698Y70010D01*
X186759Y69984D01*
X186885Y69958D01*
X187009Y69923D01*
X187076Y69919D01*
X187141Y69905D01*
X187270Y69905D01*
X187398Y69897D01*
X187464Y69906D01*
X187531Y69906D01*
X187657Y69932D01*
X187784Y69950D01*
X187847Y69972D01*
X187912Y69986D01*
X188030Y70038D01*
X188151Y70081D01*
X188208Y70116D01*
X188269Y70142D01*
X188339Y70195D01*
X188484Y70284D01*
X188609Y70400D01*
X188678Y70453D01*
X188764Y70539D01*
X190714Y71347D01*
X192826Y71347D01*
X194776Y70539D01*
X196269Y69046D01*
X197077Y67096D01*
X197077Y64984D01*
X196269Y63034D01*
X194776Y61541D01*
X192826Y60733D01*
X190714Y60733D01*
G37*
%LPD*%
%LPC*%
G36*
X405118Y77243D02*
X405118Y77243D01*
X403168Y78051D01*
X401675Y79544D01*
X400867Y81494D01*
X400867Y83606D01*
X401675Y85556D01*
X403168Y87049D01*
X405118Y87857D01*
X407230Y87857D01*
X409180Y87049D01*
X410673Y85556D01*
X411481Y83606D01*
X411481Y81494D01*
X410673Y79544D01*
X409180Y78051D01*
X407230Y77243D01*
X405118Y77243D01*
G37*
%LPD*%
%LPC*%
G36*
X280884Y88673D02*
X280884Y88673D01*
X278934Y89481D01*
X277441Y90974D01*
X276633Y92924D01*
X276633Y95036D01*
X277441Y96986D01*
X278934Y98479D01*
X280884Y99287D01*
X282996Y99287D01*
X284946Y98479D01*
X286439Y96986D01*
X287247Y95036D01*
X287247Y92924D01*
X286439Y90974D01*
X284946Y89481D01*
X282996Y88673D01*
X280884Y88673D01*
G37*
%LPD*%
%LPC*%
G36*
X456144Y96293D02*
X456144Y96293D01*
X454194Y97101D01*
X452701Y98594D01*
X451893Y100544D01*
X451893Y102656D01*
X452701Y104606D01*
X454194Y106099D01*
X456144Y106907D01*
X458256Y106907D01*
X460206Y106099D01*
X461699Y104606D01*
X462507Y102656D01*
X462507Y100544D01*
X461699Y98594D01*
X460206Y97101D01*
X458256Y96293D01*
X456144Y96293D01*
G37*
%LPD*%
%LPC*%
G36*
X280884Y133123D02*
X280884Y133123D01*
X278934Y133931D01*
X277441Y135424D01*
X276633Y137374D01*
X276633Y139486D01*
X277441Y141436D01*
X278934Y142929D01*
X280884Y143737D01*
X282996Y143737D01*
X284946Y142929D01*
X286439Y141436D01*
X287247Y139486D01*
X287247Y137374D01*
X286439Y135424D01*
X284946Y133931D01*
X282996Y133123D01*
X280884Y133123D01*
G37*
%LPD*%
%LPC*%
G36*
X100544Y70893D02*
X100544Y70893D01*
X98594Y71701D01*
X97101Y73194D01*
X96293Y75144D01*
X96293Y77256D01*
X97101Y79206D01*
X98594Y80699D01*
X100544Y81507D01*
X102656Y81507D01*
X104606Y80699D01*
X106099Y79206D01*
X106907Y77256D01*
X106907Y75144D01*
X106099Y73194D01*
X104606Y71701D01*
X102656Y70893D01*
X100544Y70893D01*
G37*
%LPD*%
%LPC*%
G36*
X62444Y70893D02*
X62444Y70893D01*
X60494Y71701D01*
X59001Y73194D01*
X58193Y75144D01*
X58193Y77256D01*
X59001Y79206D01*
X60494Y80699D01*
X62444Y81507D01*
X64556Y81507D01*
X66506Y80699D01*
X67999Y79206D01*
X68807Y77256D01*
X68807Y75144D01*
X67999Y73194D01*
X66506Y71701D01*
X64556Y70893D01*
X62444Y70893D01*
G37*
%LPD*%
%LPC*%
G36*
X168134Y66093D02*
X168134Y66093D01*
X166184Y66901D01*
X164691Y68394D01*
X163883Y70344D01*
X163883Y72456D01*
X164691Y74406D01*
X166184Y75899D01*
X168134Y76707D01*
X170246Y76707D01*
X172196Y75899D01*
X173689Y74406D01*
X174497Y72456D01*
X174497Y70344D01*
X173689Y68394D01*
X172196Y66901D01*
X170246Y66093D01*
X168134Y66093D01*
G37*
%LPD*%
%LPC*%
G36*
X443444Y32793D02*
X443444Y32793D01*
X441494Y33601D01*
X440001Y35094D01*
X439193Y37044D01*
X439193Y39156D01*
X440001Y41106D01*
X441494Y42599D01*
X443444Y43407D01*
X445556Y43407D01*
X447506Y42599D01*
X448999Y41106D01*
X449807Y39156D01*
X449807Y37044D01*
X448999Y35094D01*
X447506Y33601D01*
X445556Y32793D01*
X443444Y32793D01*
G37*
%LPD*%
%LPC*%
G36*
X265644Y28983D02*
X265644Y28983D01*
X263694Y29791D01*
X262201Y31284D01*
X261393Y33234D01*
X261393Y35346D01*
X262201Y37296D01*
X263694Y38789D01*
X265644Y39597D01*
X267756Y39597D01*
X269706Y38789D01*
X271199Y37296D01*
X272007Y35346D01*
X272007Y33234D01*
X271199Y31284D01*
X269706Y29791D01*
X267756Y28983D01*
X265644Y28983D01*
G37*
%LPD*%
%LPC*%
G36*
X100544Y20093D02*
X100544Y20093D01*
X98594Y20901D01*
X97101Y22394D01*
X96293Y24344D01*
X96293Y26456D01*
X97101Y28406D01*
X98594Y29899D01*
X100544Y30707D01*
X102656Y30707D01*
X104606Y29899D01*
X106099Y28406D01*
X106907Y26456D01*
X106907Y24344D01*
X106099Y22394D01*
X104606Y20901D01*
X102656Y20093D01*
X100544Y20093D01*
G37*
%LPD*%
%LPC*%
G36*
X430744Y20093D02*
X430744Y20093D01*
X428794Y20901D01*
X427301Y22394D01*
X426493Y24344D01*
X426493Y26456D01*
X427301Y28406D01*
X428794Y29899D01*
X430744Y30707D01*
X432856Y30707D01*
X434806Y29899D01*
X436299Y28406D01*
X437107Y26456D01*
X437107Y24344D01*
X436299Y22394D01*
X434806Y20901D01*
X432856Y20093D01*
X430744Y20093D01*
G37*
%LPD*%
%LPC*%
G36*
X138644Y12473D02*
X138644Y12473D01*
X136694Y13281D01*
X135201Y14774D01*
X134393Y16724D01*
X134393Y18836D01*
X135201Y20786D01*
X136694Y22279D01*
X138644Y23087D01*
X140756Y23087D01*
X142706Y22279D01*
X144199Y20786D01*
X145007Y18836D01*
X145007Y16724D01*
X144199Y14774D01*
X142706Y13281D01*
X140756Y12473D01*
X138644Y12473D01*
G37*
%LPD*%
%LPC*%
G36*
X29424Y191543D02*
X29424Y191543D01*
X27474Y192351D01*
X25981Y193844D01*
X25173Y195794D01*
X25173Y197906D01*
X25981Y199856D01*
X27474Y201349D01*
X29424Y202157D01*
X31536Y202157D01*
X33486Y201349D01*
X34979Y199856D01*
X35787Y197906D01*
X35787Y195794D01*
X34979Y193844D01*
X33486Y192351D01*
X31536Y191543D01*
X29424Y191543D01*
G37*
%LPD*%
%LPC*%
G36*
X457414Y265203D02*
X457414Y265203D01*
X455464Y266011D01*
X453971Y267504D01*
X453163Y269454D01*
X453163Y271566D01*
X453971Y273516D01*
X455464Y275009D01*
X457414Y275817D01*
X459526Y275817D01*
X461476Y275009D01*
X462969Y273516D01*
X463777Y271566D01*
X463777Y269454D01*
X462969Y267504D01*
X461476Y266011D01*
X459526Y265203D01*
X457414Y265203D01*
G37*
%LPD*%
%LPC*%
G36*
X418044Y265203D02*
X418044Y265203D01*
X416094Y266011D01*
X414601Y267504D01*
X413793Y269454D01*
X413793Y271566D01*
X414601Y273516D01*
X416094Y275009D01*
X418044Y275817D01*
X420156Y275817D01*
X422106Y275009D01*
X423599Y273516D01*
X424407Y271566D01*
X424407Y269454D01*
X423599Y267504D01*
X422106Y266011D01*
X420156Y265203D01*
X418044Y265203D01*
G37*
%LPD*%
%LPC*%
G36*
X285964Y253773D02*
X285964Y253773D01*
X284014Y254581D01*
X282521Y256074D01*
X281713Y258024D01*
X281713Y260136D01*
X282521Y262086D01*
X284014Y263579D01*
X285964Y264387D01*
X288076Y264387D01*
X290026Y263579D01*
X291519Y262086D01*
X292327Y260136D01*
X292327Y258024D01*
X291519Y256074D01*
X290026Y254581D01*
X288076Y253773D01*
X285964Y253773D01*
G37*
%LPD*%
%LPC*%
G36*
X213574Y244883D02*
X213574Y244883D01*
X211624Y245691D01*
X210131Y247184D01*
X209323Y249134D01*
X209323Y251246D01*
X210131Y253196D01*
X211624Y254689D01*
X213574Y255497D01*
X215686Y255497D01*
X217636Y254689D01*
X219129Y253196D01*
X219937Y251246D01*
X219937Y249134D01*
X219129Y247184D01*
X217636Y245691D01*
X215686Y244883D01*
X213574Y244883D01*
G37*
%LPD*%
%LPC*%
G36*
X189444Y244883D02*
X189444Y244883D01*
X187494Y245691D01*
X186001Y247184D01*
X185193Y249134D01*
X185193Y251246D01*
X186001Y253196D01*
X187494Y254689D01*
X189444Y255497D01*
X191556Y255497D01*
X193506Y254689D01*
X194999Y253196D01*
X195807Y251246D01*
X195807Y249134D01*
X194999Y247184D01*
X193506Y245691D01*
X191556Y244883D01*
X189444Y244883D01*
G37*
%LPD*%
%LPC*%
G36*
X164044Y243613D02*
X164044Y243613D01*
X162094Y244421D01*
X160601Y245914D01*
X159793Y247864D01*
X159793Y249976D01*
X160601Y251926D01*
X162094Y253419D01*
X164044Y254227D01*
X166156Y254227D01*
X168106Y253419D01*
X169599Y251926D01*
X170407Y249976D01*
X170407Y247864D01*
X169599Y245914D01*
X168106Y244421D01*
X166156Y243613D01*
X164044Y243613D01*
G37*
%LPD*%
%LPC*%
G36*
X373594Y215673D02*
X373594Y215673D01*
X371644Y216481D01*
X370151Y217974D01*
X369343Y219924D01*
X369343Y222036D01*
X370151Y223986D01*
X371644Y225479D01*
X373594Y226287D01*
X375706Y226287D01*
X377656Y225479D01*
X379149Y223986D01*
X379957Y222036D01*
X379957Y219924D01*
X379149Y217974D01*
X377656Y216481D01*
X375706Y215673D01*
X373594Y215673D01*
G37*
%LPD*%
%LPC*%
G36*
X517104Y210593D02*
X517104Y210593D01*
X515154Y211401D01*
X513661Y212894D01*
X512853Y214844D01*
X512853Y216956D01*
X513661Y218906D01*
X515154Y220399D01*
X517104Y221207D01*
X519216Y221207D01*
X521166Y220399D01*
X522659Y218906D01*
X523467Y216956D01*
X523467Y214844D01*
X522659Y212894D01*
X521166Y211401D01*
X519216Y210593D01*
X517104Y210593D01*
G37*
%LPD*%
%LPC*%
G36*
X435824Y201703D02*
X435824Y201703D01*
X433874Y202511D01*
X432381Y204004D01*
X431573Y205954D01*
X431573Y208066D01*
X432381Y210016D01*
X433874Y211509D01*
X435824Y212317D01*
X437936Y212317D01*
X439886Y211509D01*
X441379Y210016D01*
X442187Y208066D01*
X442187Y205954D01*
X441379Y204004D01*
X439886Y202511D01*
X437936Y201703D01*
X435824Y201703D01*
G37*
%LPD*%
%LPC*%
G36*
X242784Y201703D02*
X242784Y201703D01*
X240834Y202511D01*
X239341Y204004D01*
X238533Y205954D01*
X238533Y208066D01*
X239341Y210016D01*
X240834Y211509D01*
X242784Y212317D01*
X244896Y212317D01*
X246846Y211509D01*
X248339Y210016D01*
X249147Y208066D01*
X249147Y205954D01*
X248339Y204004D01*
X246846Y202511D01*
X244896Y201703D01*
X242784Y201703D01*
G37*
%LPD*%
%LPC*%
G36*
X214844Y200433D02*
X214844Y200433D01*
X212894Y201241D01*
X211401Y202734D01*
X210593Y204684D01*
X210593Y206796D01*
X211401Y208746D01*
X212894Y210239D01*
X214844Y211047D01*
X216956Y211047D01*
X218906Y210239D01*
X220399Y208746D01*
X221207Y206796D01*
X221207Y204684D01*
X220399Y202734D01*
X218906Y201241D01*
X216956Y200433D01*
X214844Y200433D01*
G37*
%LPD*%
%LPC*%
G36*
X75144Y197893D02*
X75144Y197893D01*
X73194Y198701D01*
X71701Y200194D01*
X70893Y202144D01*
X70893Y204256D01*
X71701Y206206D01*
X73194Y207699D01*
X75144Y208507D01*
X77256Y208507D01*
X79206Y207699D01*
X80699Y206206D01*
X81507Y204256D01*
X81507Y202144D01*
X80699Y200194D01*
X79206Y198701D01*
X77256Y197893D01*
X75144Y197893D01*
G37*
%LPD*%
%LPC*%
G36*
X195794Y107723D02*
X195794Y107723D01*
X193844Y108531D01*
X192351Y110024D01*
X191543Y111974D01*
X191543Y114086D01*
X192351Y116036D01*
X193844Y117529D01*
X195794Y118337D01*
X197906Y118337D01*
X199856Y117529D01*
X201349Y116036D01*
X202157Y114086D01*
X202157Y111974D01*
X201349Y110024D01*
X199856Y108531D01*
X197906Y107723D01*
X195794Y107723D01*
G37*
%LPD*%
%LPC*%
G36*
X555204Y185193D02*
X555204Y185193D01*
X553254Y186001D01*
X551761Y187494D01*
X550953Y189444D01*
X550953Y191556D01*
X551761Y193506D01*
X553254Y194999D01*
X555204Y195807D01*
X557316Y195807D01*
X559266Y194999D01*
X560759Y193506D01*
X561567Y191556D01*
X561567Y189444D01*
X560759Y187494D01*
X559266Y186001D01*
X557316Y185193D01*
X555204Y185193D01*
G37*
%LPD*%
%LPC*%
G36*
X205954Y185193D02*
X205954Y185193D01*
X204004Y186001D01*
X202511Y187494D01*
X201703Y189444D01*
X201703Y191556D01*
X202511Y193506D01*
X204004Y194999D01*
X205954Y195807D01*
X208066Y195807D01*
X210016Y194999D01*
X211509Y193506D01*
X212317Y191556D01*
X212317Y189444D01*
X211509Y187494D01*
X210016Y186001D01*
X208066Y185193D01*
X205954Y185193D01*
G37*
%LPD*%
%LPC*%
G36*
X109434Y175033D02*
X109434Y175033D01*
X107484Y175841D01*
X105991Y177334D01*
X105183Y179284D01*
X105183Y181396D01*
X105991Y183346D01*
X107484Y184839D01*
X109434Y185647D01*
X111546Y185647D01*
X113496Y184839D01*
X114989Y183346D01*
X115797Y181396D01*
X115797Y179284D01*
X114989Y177334D01*
X113496Y175841D01*
X111546Y175033D01*
X109434Y175033D01*
G37*
%LPD*%
%LPC*%
G36*
X165314Y173763D02*
X165314Y173763D01*
X163364Y174571D01*
X161871Y176064D01*
X161063Y178014D01*
X161063Y180126D01*
X161871Y182076D01*
X163364Y183569D01*
X165314Y184377D01*
X167426Y184377D01*
X169376Y183569D01*
X170869Y182076D01*
X171677Y180126D01*
X171677Y178014D01*
X170869Y176064D01*
X169376Y174571D01*
X167426Y173763D01*
X165314Y173763D01*
G37*
%LPD*%
%LPC*%
G36*
X285964Y167413D02*
X285964Y167413D01*
X284014Y168221D01*
X282521Y169714D01*
X281713Y171664D01*
X281713Y173776D01*
X282521Y175726D01*
X284014Y177219D01*
X285964Y178027D01*
X288076Y178027D01*
X290026Y177219D01*
X291519Y175726D01*
X292327Y173776D01*
X292327Y171664D01*
X291519Y169714D01*
X290026Y168221D01*
X288076Y167413D01*
X285964Y167413D01*
G37*
%LPD*%
%LPC*%
G36*
X379944Y164873D02*
X379944Y164873D01*
X377994Y165681D01*
X376501Y167174D01*
X375693Y169124D01*
X375693Y171236D01*
X376501Y173186D01*
X377994Y174679D01*
X379944Y175487D01*
X382056Y175487D01*
X384006Y174679D01*
X385499Y173186D01*
X386307Y171236D01*
X386307Y169124D01*
X385499Y167174D01*
X384006Y165681D01*
X382056Y164873D01*
X379944Y164873D01*
G37*
%LPD*%
%LPC*%
G36*
X557744Y159793D02*
X557744Y159793D01*
X555794Y160601D01*
X554301Y162094D01*
X553493Y164044D01*
X553493Y166156D01*
X554301Y168106D01*
X555794Y169599D01*
X557744Y170407D01*
X559856Y170407D01*
X561806Y169599D01*
X563299Y168106D01*
X564107Y166156D01*
X564107Y164044D01*
X563299Y162094D01*
X561806Y160601D01*
X559856Y159793D01*
X557744Y159793D01*
G37*
%LPD*%
%LPC*%
G36*
X247864Y147093D02*
X247864Y147093D01*
X245914Y147901D01*
X244421Y149394D01*
X243613Y151344D01*
X243613Y153456D01*
X244421Y155406D01*
X245914Y156899D01*
X247864Y157707D01*
X249976Y157707D01*
X251926Y156899D01*
X253419Y155406D01*
X254227Y153456D01*
X254227Y151344D01*
X253419Y149394D01*
X251926Y147901D01*
X249976Y147093D01*
X247864Y147093D01*
G37*
%LPD*%
%LPC*%
G36*
X341844Y134393D02*
X341844Y134393D01*
X339894Y135201D01*
X338401Y136694D01*
X337593Y138644D01*
X337593Y140756D01*
X338401Y142706D01*
X339894Y144199D01*
X341844Y145007D01*
X343956Y145007D01*
X345906Y144199D01*
X347399Y142706D01*
X348207Y140756D01*
X348207Y138644D01*
X347399Y136694D01*
X345906Y135201D01*
X343956Y134393D01*
X341844Y134393D01*
G37*
%LPD*%
%LPC*%
G36*
X341844Y109219D02*
X341844Y109219D01*
X339894Y110027D01*
X338401Y111520D01*
X337593Y113470D01*
X337593Y115582D01*
X338401Y117532D01*
X339894Y119025D01*
X341844Y119833D01*
X343956Y119833D01*
X345906Y119025D01*
X347399Y117532D01*
X348207Y115582D01*
X348207Y113470D01*
X347399Y111520D01*
X345906Y110027D01*
X343956Y109219D01*
X341844Y109219D01*
G37*
%LPD*%
%LPC*%
G36*
X278344Y108993D02*
X278344Y108993D01*
X276394Y109801D01*
X274901Y111294D01*
X274093Y113244D01*
X274093Y115356D01*
X274901Y117306D01*
X276394Y118799D01*
X278344Y119607D01*
X280456Y119607D01*
X282406Y118799D01*
X283899Y117306D01*
X284707Y115356D01*
X284707Y113244D01*
X283899Y111294D01*
X282406Y109801D01*
X280456Y108993D01*
X278344Y108993D01*
G37*
%LPD*%
%LPC*%
G36*
X214844Y108993D02*
X214844Y108993D01*
X212894Y109801D01*
X211401Y111294D01*
X210593Y113244D01*
X210593Y115356D01*
X211401Y117306D01*
X212894Y118799D01*
X214844Y119607D01*
X216956Y119607D01*
X218906Y118799D01*
X220399Y117306D01*
X221207Y115356D01*
X221207Y113244D01*
X220399Y111294D01*
X218906Y109801D01*
X216956Y108993D01*
X214844Y108993D01*
G37*
%LPD*%
D10*
X304800Y38100D03*
X330200Y38100D03*
X355600Y38100D03*
X381000Y38100D03*
X609600Y25400D03*
X584200Y25400D03*
X558800Y25400D03*
X533400Y25400D03*
X604520Y259080D03*
X579120Y259080D03*
X553720Y259080D03*
X528320Y259080D03*
X495300Y152400D03*
X495300Y127000D03*
X469900Y152400D03*
X469900Y127000D03*
X444500Y152400D03*
X444500Y127000D03*
X419100Y152400D03*
X419100Y127000D03*
X393700Y152400D03*
X393700Y127000D03*
X368300Y152400D03*
X368300Y127000D03*
X608330Y80010D03*
X582930Y80010D03*
X557530Y80010D03*
X532130Y80010D03*
X304800Y139700D03*
D11*
X76200Y203200D03*
X91440Y224790D03*
X63500Y76200D03*
X101600Y25400D03*
X139700Y17780D03*
X101600Y76200D03*
X169190Y71400D03*
X165100Y114300D03*
X165100Y101600D03*
X140970Y133984D03*
X110490Y180340D03*
X93980Y212090D03*
X30480Y196850D03*
X165100Y248920D03*
X243840Y207010D03*
X190500Y250190D03*
X215900Y205740D03*
X207010Y69850D03*
X215900Y114300D03*
X196850Y113030D03*
X287020Y172720D03*
X207010Y190500D03*
X166370Y179070D03*
X248920Y152400D03*
X281940Y138430D03*
X279400Y114300D03*
X281940Y93980D03*
X266700Y34290D03*
X374650Y220980D03*
X436880Y207010D03*
X419100Y270510D03*
X458470Y270510D03*
X518160Y215900D03*
X556260Y190500D03*
X558800Y165100D03*
X34290Y156210D03*
X96520Y36830D03*
X151130Y45720D03*
X144780Y176530D03*
X243840Y189230D03*
X156194Y134194D03*
X255270Y125730D03*
X255270Y80010D03*
X240030Y45720D03*
X374650Y261620D03*
X226060Y264160D03*
X386080Y205740D03*
X403860Y69850D03*
X335280Y92710D03*
X491490Y82550D03*
X279400Y55880D03*
X324048Y90778D03*
D12*
X282984Y59464D02*
X279400Y55880D01*
X321536Y87446D02*
X321536Y88266D01*
X324048Y90778D01*
X293554Y59464D02*
X282984Y59464D01*
X293554Y59464D02*
X321536Y87446D01*
D11*
X386080Y108176D03*
D12*
X381000Y113256D01*
X381000Y139700D01*
X368300Y152400D01*
D11*
X406174Y82550D03*
X429260Y82550D03*
X182880Y158750D03*
X287020Y259080D03*
X184576Y149662D03*
X279400Y243840D03*
X191727Y143961D03*
X278130Y232410D03*
X137306Y124460D03*
X214630Y250190D03*
X281940Y66040D03*
D12*
X306070Y90170D01*
X314960Y90170D01*
D11*
X314960Y90170D03*
X375920Y108176D03*
X381000Y170180D03*
X342900Y114526D03*
X342900Y139700D03*
X215900Y78344D03*
X435610Y93980D03*
X215900Y87432D03*
X457200Y101600D03*
X182682Y66252D03*
X191770Y66040D03*
X191162Y31976D03*
X444500Y38100D03*
X200250Y31976D03*
X431800Y25400D03*
X209550Y31976D03*
X215900Y96520D03*
M02*
