G04 EAGLE Gerber RS-274X export*
G75*
%MOMM*%
%FSLAX34Y34*%
%LPD*%
%INBottom Copper*%
%IPPOS*%
%AMOC8*
5,1,8,0,0,1.08239X$1,22.5*%
G01*
%ADD10C,1.524000*%
%ADD11P,1.649562X8X202.500000*%
%ADD12P,1.649562X8X22.500000*%
%ADD13C,0.756400*%
%ADD14C,0.508000*%
%ADD15C,0.254000*%


D10*
X304800Y30480D02*
X304800Y45720D01*
X330200Y45720D02*
X330200Y30480D01*
X355600Y30480D02*
X355600Y45720D01*
X381000Y45720D02*
X381000Y30480D01*
X609600Y33020D02*
X609600Y17780D01*
X584200Y17780D02*
X584200Y33020D01*
X558800Y33020D02*
X558800Y17780D01*
X533400Y17780D02*
X533400Y33020D01*
X604520Y251460D02*
X604520Y266700D01*
X579120Y266700D02*
X579120Y251460D01*
X553720Y251460D02*
X553720Y266700D01*
X528320Y266700D02*
X528320Y251460D01*
D11*
X495300Y152400D03*
X495300Y127000D03*
X469900Y152400D03*
X469900Y127000D03*
X444500Y152400D03*
X444500Y127000D03*
X419100Y152400D03*
X419100Y127000D03*
X393700Y152400D03*
X393700Y127000D03*
X368300Y152400D03*
X368300Y127000D03*
D10*
X608330Y87630D02*
X608330Y72390D01*
X582930Y72390D02*
X582930Y87630D01*
X557530Y87630D02*
X557530Y72390D01*
X532130Y72390D02*
X532130Y87630D01*
D12*
X304800Y139700D03*
D13*
X76200Y203200D03*
D14*
X76200Y209550D01*
X91440Y224790D01*
D13*
X91440Y224790D03*
X63500Y76200D03*
X101600Y25400D03*
X139700Y17780D03*
X101600Y76200D03*
X169190Y71400D03*
X165100Y114300D03*
X165100Y101600D03*
X140970Y133984D03*
X110490Y180340D03*
X93980Y212090D03*
X30480Y196850D03*
X165100Y248920D03*
X243840Y207010D03*
X190500Y250190D03*
X215900Y205740D03*
X207010Y69850D03*
X215900Y114300D03*
X196850Y113030D03*
X287020Y172720D03*
X207010Y190500D03*
X166370Y179070D03*
X248920Y152400D03*
X281940Y138430D03*
X279400Y114300D03*
X281940Y93980D03*
X266700Y34290D03*
X374650Y220980D03*
X436880Y207010D03*
X419100Y270510D03*
X458470Y270510D03*
X518160Y215900D03*
X556260Y190500D03*
X558800Y165100D03*
X34290Y156210D03*
X96520Y36830D03*
X151130Y45720D03*
X144780Y176530D03*
X243840Y189230D03*
X156194Y134194D03*
X255270Y125730D03*
X255270Y80010D03*
X240030Y45720D03*
X374650Y261620D03*
X226060Y264160D03*
X386080Y205740D03*
X403860Y69850D03*
X335280Y92710D03*
X491490Y82550D03*
X279400Y55880D03*
X324048Y90778D03*
X386080Y108176D03*
X406174Y82550D03*
D15*
X429260Y82550D01*
D13*
X429260Y82550D03*
X182880Y158750D03*
X287020Y259080D03*
D15*
X208054Y183924D02*
X182880Y158750D01*
X208054Y183924D02*
X209734Y183924D01*
X284890Y259080D02*
X287020Y259080D01*
X284890Y259080D02*
X209734Y183924D01*
D13*
X184576Y149662D03*
X279400Y243840D03*
D15*
X250416Y204286D02*
X246564Y200434D01*
X235348Y200434D02*
X184576Y149662D01*
X235348Y200434D02*
X246564Y200434D01*
X250416Y204286D02*
X250416Y214856D01*
X279400Y243840D01*
D13*
X191727Y143961D03*
X278130Y232410D03*
D15*
X237264Y189498D02*
X191727Y143961D01*
X237264Y189498D02*
X237264Y191954D01*
X241680Y196370D01*
X248247Y196370D01*
X278130Y226253D01*
X278130Y232410D01*
D13*
X137306Y124460D03*
D15*
X143694Y127408D02*
X147546Y131260D01*
X147546Y134846D01*
X140254Y127408D02*
X137306Y124460D01*
X140254Y127408D02*
X143694Y127408D01*
X177800Y165100D02*
X177800Y190500D01*
X177800Y165100D02*
X147546Y134846D01*
X177800Y190500D02*
X190500Y203200D01*
X203200Y203200D01*
X213360Y213360D01*
X213360Y248920D02*
X214630Y250190D01*
D13*
X214630Y250190D03*
D15*
X213360Y248920D02*
X213360Y213360D01*
D13*
X281940Y66040D03*
X314960Y90170D03*
X375920Y108176D03*
D15*
X375920Y114300D01*
X381000Y119380D01*
X381000Y170180D01*
D13*
X381000Y170180D03*
X342900Y114526D03*
D15*
X342900Y139700D01*
D13*
X342900Y139700D03*
X215900Y78344D03*
D15*
X247636Y78344D01*
X252546Y73434D01*
X286084Y73434D01*
X335464Y83594D02*
X347120Y95250D01*
X335464Y83594D02*
X296244Y83594D01*
X286084Y73434D01*
X434340Y95250D02*
X435610Y93980D01*
D13*
X435610Y93980D03*
D15*
X434340Y95250D02*
X347120Y95250D01*
D13*
X215900Y87432D03*
D15*
X279188Y87432D01*
X279216Y87404D01*
X289334Y87404D01*
X303530Y101600D01*
X457200Y101600D01*
D13*
X457200Y101600D03*
X182682Y66252D03*
D15*
X205260Y88830D01*
X213176Y120876D02*
X231559Y120876D01*
X270703Y160020D01*
X205260Y112960D02*
X205260Y88830D01*
X205260Y112960D02*
X213176Y120876D01*
X355445Y160020D02*
X376245Y180820D01*
X447227Y180820D01*
X462947Y165100D02*
X476250Y165100D01*
X462947Y165100D02*
X447227Y180820D01*
X476250Y165100D02*
X482600Y158750D01*
X482600Y132080D01*
X477520Y127000D01*
X469900Y127000D01*
X355445Y160020D02*
X270703Y160020D01*
D13*
X191770Y66040D03*
D15*
X209324Y99244D02*
X213176Y103096D01*
X209324Y83594D02*
X191770Y66040D01*
X209324Y83594D02*
X209324Y99244D01*
X213176Y103096D02*
X219526Y103096D01*
X271370Y154940D01*
X356112Y154940D02*
X377928Y176756D01*
X356112Y154940D02*
X271370Y154940D01*
X445544Y176756D02*
X457200Y165100D01*
X457200Y139700D01*
X444500Y127000D01*
X445544Y176756D02*
X377928Y176756D01*
D13*
X191162Y31976D03*
D15*
X193674Y29464D01*
X193674Y29252D01*
X210226Y12700D01*
X431800Y12700D01*
X444500Y25400D01*
X444500Y38100D01*
D13*
X444500Y38100D03*
X200250Y31976D03*
D15*
X215462Y16764D01*
X423164Y16764D02*
X431800Y25400D01*
D13*
X431800Y25400D03*
D15*
X423164Y16764D02*
X215462Y16764D01*
D13*
X209550Y31976D03*
D15*
X216126Y25400D01*
X279400Y25400D01*
X287020Y33020D01*
X287020Y50800D01*
X293370Y57150D01*
X406400Y57150D01*
X412750Y57150D01*
X425450Y57150D01*
X495300Y127000D01*
D13*
X215900Y96520D03*
D15*
X275180Y96520D01*
X284706Y100556D02*
X292100Y107950D01*
X279216Y100556D02*
X275180Y96520D01*
X279216Y100556D02*
X284706Y100556D01*
X349250Y107950D02*
X368300Y127000D01*
X349250Y107950D02*
X292100Y107950D01*
M02*
