G04 EAGLE Gerber RS-274X export*
G75*
%MOMM*%
%FSLAX34Y34*%
%LPD*%
%INSilkscreen Bottom*%
%IPPOS*%
%AMOC8*
5,1,8,0,0,1.08239X$1,22.5*%
G01*
%ADD10C,0.076200*%


D10*
X276197Y282180D02*
X276199Y282102D01*
X276204Y282024D01*
X276214Y281947D01*
X276227Y281870D01*
X276243Y281794D01*
X276263Y281719D01*
X276287Y281645D01*
X276314Y281572D01*
X276345Y281500D01*
X276379Y281430D01*
X276416Y281361D01*
X276457Y281295D01*
X276501Y281230D01*
X276547Y281168D01*
X276597Y281108D01*
X276649Y281050D01*
X276704Y280995D01*
X276762Y280943D01*
X276822Y280893D01*
X276884Y280847D01*
X276949Y280803D01*
X277016Y280762D01*
X277084Y280725D01*
X277154Y280691D01*
X277226Y280660D01*
X277299Y280633D01*
X277373Y280609D01*
X277448Y280589D01*
X277524Y280573D01*
X277601Y280560D01*
X277678Y280550D01*
X277756Y280545D01*
X277834Y280543D01*
X277948Y280545D01*
X278061Y280550D01*
X278175Y280560D01*
X278288Y280573D01*
X278400Y280590D01*
X278512Y280610D01*
X278623Y280634D01*
X278734Y280662D01*
X278843Y280693D01*
X278951Y280728D01*
X279058Y280767D01*
X279164Y280809D01*
X279268Y280854D01*
X279371Y280903D01*
X279472Y280956D01*
X279571Y281011D01*
X279669Y281070D01*
X279764Y281132D01*
X279857Y281197D01*
X279949Y281265D01*
X280037Y281336D01*
X280124Y281410D01*
X280208Y281487D01*
X280289Y281566D01*
X280085Y286272D02*
X280083Y286350D01*
X280078Y286428D01*
X280068Y286505D01*
X280055Y286582D01*
X280039Y286658D01*
X280019Y286733D01*
X279995Y286807D01*
X279968Y286880D01*
X279937Y286952D01*
X279903Y287022D01*
X279866Y287091D01*
X279825Y287157D01*
X279781Y287222D01*
X279735Y287284D01*
X279685Y287344D01*
X279633Y287402D01*
X279578Y287457D01*
X279520Y287509D01*
X279460Y287559D01*
X279398Y287605D01*
X279333Y287649D01*
X279267Y287690D01*
X279198Y287727D01*
X279128Y287761D01*
X279056Y287792D01*
X278983Y287819D01*
X278909Y287843D01*
X278834Y287863D01*
X278758Y287879D01*
X278681Y287892D01*
X278604Y287902D01*
X278526Y287907D01*
X278448Y287909D01*
X278338Y287907D01*
X278229Y287901D01*
X278119Y287891D01*
X278011Y287878D01*
X277902Y287860D01*
X277795Y287839D01*
X277688Y287813D01*
X277582Y287784D01*
X277477Y287752D01*
X277374Y287715D01*
X277272Y287675D01*
X277171Y287631D01*
X277072Y287583D01*
X276975Y287533D01*
X276880Y287478D01*
X276787Y287420D01*
X276696Y287359D01*
X276607Y287295D01*
X279266Y284839D02*
X279333Y284881D01*
X279398Y284925D01*
X279460Y284973D01*
X279520Y285023D01*
X279578Y285076D01*
X279633Y285132D01*
X279685Y285191D01*
X279735Y285251D01*
X279782Y285315D01*
X279825Y285380D01*
X279866Y285447D01*
X279903Y285516D01*
X279937Y285587D01*
X279968Y285659D01*
X279995Y285733D01*
X280019Y285807D01*
X280039Y285883D01*
X280055Y285960D01*
X280068Y286037D01*
X280078Y286115D01*
X280083Y286194D01*
X280085Y286272D01*
X277015Y283612D02*
X276949Y283571D01*
X276884Y283526D01*
X276822Y283479D01*
X276762Y283428D01*
X276704Y283375D01*
X276649Y283319D01*
X276596Y283261D01*
X276547Y283200D01*
X276500Y283137D01*
X276457Y283072D01*
X276416Y283005D01*
X276379Y282936D01*
X276345Y282865D01*
X276314Y282793D01*
X276287Y282719D01*
X276263Y282644D01*
X276243Y282569D01*
X276227Y282492D01*
X276214Y282415D01*
X276204Y282337D01*
X276199Y282258D01*
X276197Y282180D01*
X277015Y283612D02*
X279266Y284840D01*
X272059Y280543D02*
X270422Y280543D01*
X272059Y280543D02*
X272128Y280545D01*
X272196Y280551D01*
X272265Y280560D01*
X272332Y280574D01*
X272399Y280591D01*
X272465Y280612D01*
X272529Y280636D01*
X272592Y280665D01*
X272653Y280696D01*
X272712Y280731D01*
X272770Y280769D01*
X272825Y280811D01*
X272877Y280855D01*
X272927Y280903D01*
X272975Y280953D01*
X273019Y281005D01*
X273061Y281060D01*
X273099Y281118D01*
X273134Y281177D01*
X273165Y281238D01*
X273194Y281301D01*
X273218Y281365D01*
X273239Y281431D01*
X273256Y281498D01*
X273270Y281565D01*
X273279Y281634D01*
X273285Y281702D01*
X273287Y281771D01*
X273287Y284226D01*
X273285Y284295D01*
X273279Y284363D01*
X273270Y284432D01*
X273256Y284499D01*
X273239Y284566D01*
X273218Y284632D01*
X273194Y284696D01*
X273165Y284759D01*
X273134Y284820D01*
X273099Y284879D01*
X273061Y284937D01*
X273019Y284992D01*
X272975Y285044D01*
X272927Y285094D01*
X272877Y285142D01*
X272825Y285186D01*
X272770Y285228D01*
X272712Y285266D01*
X272653Y285301D01*
X272592Y285332D01*
X272529Y285361D01*
X272465Y285385D01*
X272399Y285406D01*
X272332Y285423D01*
X272265Y285437D01*
X272196Y285446D01*
X272128Y285452D01*
X272059Y285454D01*
X270422Y285454D01*
X267444Y287909D02*
X267444Y280543D01*
X267444Y285454D02*
X265398Y285454D01*
X265329Y285452D01*
X265261Y285446D01*
X265192Y285437D01*
X265125Y285423D01*
X265058Y285406D01*
X264992Y285385D01*
X264928Y285361D01*
X264865Y285332D01*
X264804Y285301D01*
X264745Y285266D01*
X264687Y285228D01*
X264632Y285186D01*
X264580Y285142D01*
X264530Y285094D01*
X264482Y285044D01*
X264438Y284992D01*
X264397Y284937D01*
X264358Y284879D01*
X264323Y284820D01*
X264292Y284759D01*
X264263Y284696D01*
X264239Y284632D01*
X264218Y284566D01*
X264201Y284499D01*
X264187Y284432D01*
X264178Y284364D01*
X264172Y284295D01*
X264170Y284226D01*
X264170Y280543D01*
X259633Y280543D02*
X257587Y280543D01*
X259633Y280543D02*
X259702Y280545D01*
X259770Y280551D01*
X259839Y280560D01*
X259906Y280574D01*
X259973Y280591D01*
X260039Y280612D01*
X260103Y280636D01*
X260166Y280665D01*
X260227Y280696D01*
X260286Y280731D01*
X260344Y280769D01*
X260399Y280811D01*
X260451Y280855D01*
X260501Y280903D01*
X260549Y280953D01*
X260593Y281005D01*
X260635Y281060D01*
X260673Y281118D01*
X260708Y281177D01*
X260739Y281238D01*
X260768Y281301D01*
X260792Y281365D01*
X260813Y281431D01*
X260830Y281498D01*
X260844Y281565D01*
X260853Y281634D01*
X260859Y281702D01*
X260861Y281771D01*
X260860Y281771D02*
X260860Y283817D01*
X260858Y283896D01*
X260852Y283975D01*
X260843Y284054D01*
X260830Y284132D01*
X260812Y284209D01*
X260792Y284285D01*
X260767Y284360D01*
X260739Y284434D01*
X260708Y284507D01*
X260672Y284578D01*
X260634Y284647D01*
X260592Y284714D01*
X260547Y284779D01*
X260499Y284842D01*
X260448Y284903D01*
X260394Y284960D01*
X260338Y285016D01*
X260279Y285068D01*
X260217Y285118D01*
X260153Y285164D01*
X260087Y285208D01*
X260019Y285248D01*
X259949Y285284D01*
X259877Y285318D01*
X259803Y285348D01*
X259729Y285374D01*
X259653Y285397D01*
X259576Y285415D01*
X259499Y285431D01*
X259420Y285442D01*
X259342Y285450D01*
X259263Y285454D01*
X259183Y285454D01*
X259104Y285450D01*
X259026Y285442D01*
X258947Y285431D01*
X258870Y285415D01*
X258793Y285397D01*
X258717Y285374D01*
X258643Y285348D01*
X258569Y285318D01*
X258497Y285284D01*
X258427Y285248D01*
X258359Y285208D01*
X258293Y285164D01*
X258229Y285118D01*
X258167Y285068D01*
X258108Y285016D01*
X258052Y284960D01*
X257998Y284903D01*
X257947Y284842D01*
X257899Y284779D01*
X257854Y284714D01*
X257812Y284647D01*
X257774Y284578D01*
X257738Y284507D01*
X257707Y284434D01*
X257679Y284360D01*
X257654Y284285D01*
X257634Y284209D01*
X257616Y284132D01*
X257603Y284054D01*
X257594Y283975D01*
X257588Y283896D01*
X257586Y283817D01*
X257587Y283817D02*
X257587Y282998D01*
X260860Y282998D01*
X254120Y280543D02*
X254120Y285454D01*
X250437Y285454D01*
X250368Y285452D01*
X250300Y285446D01*
X250231Y285437D01*
X250164Y285423D01*
X250097Y285406D01*
X250031Y285385D01*
X249967Y285361D01*
X249904Y285332D01*
X249843Y285301D01*
X249784Y285266D01*
X249726Y285228D01*
X249671Y285186D01*
X249619Y285142D01*
X249569Y285094D01*
X249521Y285044D01*
X249477Y284992D01*
X249436Y284937D01*
X249397Y284879D01*
X249362Y284820D01*
X249331Y284759D01*
X249302Y284696D01*
X249278Y284632D01*
X249257Y284566D01*
X249240Y284499D01*
X249226Y284432D01*
X249217Y284364D01*
X249211Y284295D01*
X249209Y284226D01*
X249209Y280543D01*
X251664Y280543D02*
X251664Y285454D01*
X244351Y283408D02*
X242509Y283408D01*
X244351Y283407D02*
X244426Y283405D01*
X244501Y283399D01*
X244575Y283389D01*
X244649Y283376D01*
X244722Y283358D01*
X244794Y283337D01*
X244864Y283312D01*
X244933Y283283D01*
X245001Y283251D01*
X245067Y283215D01*
X245131Y283176D01*
X245193Y283134D01*
X245252Y283088D01*
X245309Y283039D01*
X245364Y282988D01*
X245415Y282933D01*
X245464Y282876D01*
X245510Y282817D01*
X245552Y282755D01*
X245591Y282691D01*
X245627Y282625D01*
X245659Y282557D01*
X245688Y282488D01*
X245713Y282418D01*
X245734Y282346D01*
X245752Y282273D01*
X245765Y282199D01*
X245775Y282125D01*
X245781Y282050D01*
X245783Y281975D01*
X245781Y281900D01*
X245775Y281825D01*
X245765Y281751D01*
X245752Y281677D01*
X245734Y281604D01*
X245713Y281532D01*
X245688Y281462D01*
X245659Y281393D01*
X245627Y281325D01*
X245591Y281259D01*
X245552Y281195D01*
X245510Y281133D01*
X245464Y281074D01*
X245415Y281017D01*
X245364Y280962D01*
X245309Y280911D01*
X245252Y280862D01*
X245193Y280816D01*
X245131Y280774D01*
X245067Y280735D01*
X245001Y280699D01*
X244933Y280667D01*
X244864Y280638D01*
X244794Y280613D01*
X244722Y280592D01*
X244649Y280574D01*
X244575Y280561D01*
X244501Y280551D01*
X244426Y280545D01*
X244351Y280543D01*
X242509Y280543D01*
X242509Y284226D01*
X242511Y284295D01*
X242517Y284363D01*
X242526Y284432D01*
X242540Y284499D01*
X242557Y284566D01*
X242578Y284632D01*
X242602Y284696D01*
X242631Y284759D01*
X242662Y284820D01*
X242697Y284879D01*
X242735Y284937D01*
X242777Y284992D01*
X242821Y285044D01*
X242869Y285094D01*
X242919Y285142D01*
X242971Y285186D01*
X243026Y285228D01*
X243084Y285266D01*
X243143Y285301D01*
X243204Y285332D01*
X243267Y285361D01*
X243331Y285385D01*
X243397Y285406D01*
X243464Y285423D01*
X243531Y285437D01*
X243600Y285446D01*
X243668Y285452D01*
X243737Y285454D01*
X245374Y285454D01*
X239789Y285454D02*
X237334Y285454D01*
X238971Y287909D02*
X238971Y281771D01*
X238969Y281702D01*
X238963Y281634D01*
X238954Y281565D01*
X238940Y281498D01*
X238923Y281431D01*
X238902Y281365D01*
X238878Y281301D01*
X238849Y281238D01*
X238818Y281177D01*
X238783Y281118D01*
X238745Y281060D01*
X238703Y281005D01*
X238659Y280953D01*
X238611Y280903D01*
X238561Y280855D01*
X238509Y280811D01*
X238454Y280770D01*
X238396Y280731D01*
X238337Y280696D01*
X238276Y280665D01*
X238213Y280636D01*
X238149Y280612D01*
X238083Y280591D01*
X238016Y280574D01*
X237949Y280560D01*
X237881Y280551D01*
X237812Y280545D01*
X237743Y280543D01*
X237334Y280543D01*
X234596Y280543D02*
X234596Y285454D01*
X234800Y287500D02*
X234800Y287909D01*
X234391Y287909D01*
X234391Y287500D01*
X234800Y287500D01*
X230363Y280543D02*
X228726Y280543D01*
X230363Y280543D02*
X230432Y280545D01*
X230500Y280551D01*
X230569Y280560D01*
X230636Y280574D01*
X230703Y280591D01*
X230769Y280612D01*
X230833Y280636D01*
X230896Y280665D01*
X230957Y280696D01*
X231016Y280731D01*
X231074Y280769D01*
X231129Y280811D01*
X231181Y280855D01*
X231231Y280903D01*
X231279Y280953D01*
X231323Y281005D01*
X231365Y281060D01*
X231403Y281118D01*
X231438Y281177D01*
X231469Y281238D01*
X231498Y281301D01*
X231522Y281365D01*
X231543Y281431D01*
X231560Y281498D01*
X231574Y281565D01*
X231583Y281634D01*
X231589Y281702D01*
X231591Y281771D01*
X231590Y281771D02*
X231590Y284226D01*
X231591Y284226D02*
X231589Y284295D01*
X231583Y284363D01*
X231574Y284432D01*
X231560Y284499D01*
X231543Y284566D01*
X231522Y284632D01*
X231498Y284696D01*
X231469Y284759D01*
X231438Y284820D01*
X231403Y284879D01*
X231365Y284937D01*
X231323Y284992D01*
X231279Y285044D01*
X231231Y285094D01*
X231181Y285142D01*
X231129Y285186D01*
X231074Y285228D01*
X231016Y285266D01*
X230957Y285301D01*
X230896Y285332D01*
X230833Y285361D01*
X230769Y285385D01*
X230703Y285406D01*
X230636Y285423D01*
X230569Y285437D01*
X230500Y285446D01*
X230432Y285452D01*
X230363Y285454D01*
X228726Y285454D01*
X225378Y283408D02*
X223332Y282589D01*
X225378Y283408D02*
X225437Y283433D01*
X225494Y283462D01*
X225549Y283495D01*
X225602Y283531D01*
X225653Y283569D01*
X225701Y283611D01*
X225747Y283656D01*
X225790Y283703D01*
X225830Y283753D01*
X225867Y283805D01*
X225901Y283860D01*
X225932Y283916D01*
X225959Y283974D01*
X225982Y284034D01*
X226002Y284094D01*
X226018Y284156D01*
X226031Y284219D01*
X226039Y284283D01*
X226044Y284346D01*
X226045Y284410D01*
X226042Y284474D01*
X226035Y284538D01*
X226024Y284601D01*
X226010Y284663D01*
X225992Y284725D01*
X225970Y284785D01*
X225945Y284844D01*
X225916Y284901D01*
X225883Y284956D01*
X225848Y285009D01*
X225809Y285060D01*
X225767Y285109D01*
X225723Y285155D01*
X225675Y285198D01*
X225626Y285238D01*
X225573Y285275D01*
X225519Y285309D01*
X225463Y285340D01*
X225405Y285367D01*
X225346Y285391D01*
X225285Y285410D01*
X225223Y285427D01*
X225160Y285439D01*
X225097Y285448D01*
X225033Y285453D01*
X224969Y285454D01*
X224833Y285450D01*
X224698Y285442D01*
X224562Y285430D01*
X224428Y285414D01*
X224293Y285394D01*
X224160Y285371D01*
X224027Y285343D01*
X223895Y285312D01*
X223764Y285277D01*
X223634Y285238D01*
X223505Y285195D01*
X223378Y285148D01*
X223252Y285098D01*
X223127Y285044D01*
X223332Y282589D02*
X223273Y282564D01*
X223216Y282535D01*
X223161Y282502D01*
X223108Y282466D01*
X223057Y282428D01*
X223009Y282386D01*
X222963Y282341D01*
X222920Y282294D01*
X222880Y282244D01*
X222843Y282192D01*
X222809Y282137D01*
X222778Y282081D01*
X222751Y282023D01*
X222728Y281963D01*
X222708Y281903D01*
X222692Y281841D01*
X222679Y281778D01*
X222671Y281714D01*
X222666Y281651D01*
X222665Y281587D01*
X222668Y281523D01*
X222675Y281459D01*
X222686Y281396D01*
X222700Y281334D01*
X222718Y281272D01*
X222740Y281212D01*
X222765Y281153D01*
X222794Y281096D01*
X222827Y281041D01*
X222862Y280988D01*
X222901Y280937D01*
X222943Y280888D01*
X222987Y280842D01*
X223035Y280799D01*
X223084Y280759D01*
X223137Y280722D01*
X223191Y280688D01*
X223247Y280657D01*
X223305Y280630D01*
X223364Y280606D01*
X223425Y280587D01*
X223487Y280570D01*
X223550Y280558D01*
X223613Y280549D01*
X223677Y280544D01*
X223741Y280543D01*
X223905Y280547D01*
X224069Y280555D01*
X224233Y280567D01*
X224396Y280583D01*
X224559Y280603D01*
X224722Y280626D01*
X224883Y280654D01*
X225045Y280685D01*
X225205Y280720D01*
X225364Y280759D01*
X225523Y280802D01*
X225680Y280848D01*
X225837Y280898D01*
X225992Y280952D01*
X214870Y286067D02*
X214904Y286126D01*
X214935Y286186D01*
X214962Y286247D01*
X214986Y286311D01*
X215006Y286375D01*
X215023Y286440D01*
X215036Y286506D01*
X215045Y286573D01*
X215050Y286640D01*
X215052Y286708D01*
X215050Y286775D01*
X215044Y286843D01*
X215034Y286909D01*
X215021Y286975D01*
X215004Y287041D01*
X214983Y287105D01*
X214959Y287168D01*
X214931Y287229D01*
X214900Y287289D01*
X214866Y287347D01*
X214828Y287403D01*
X214788Y287457D01*
X214744Y287509D01*
X214698Y287557D01*
X214649Y287604D01*
X214597Y287647D01*
X214543Y287688D01*
X214487Y287725D01*
X214429Y287759D01*
X214369Y287790D01*
X214307Y287818D01*
X214244Y287842D01*
X214180Y287862D01*
X214115Y287879D01*
X214048Y287892D01*
X213982Y287901D01*
X213914Y287907D01*
X213847Y287909D01*
X214870Y286068D02*
X211392Y280543D01*
X212824Y286067D02*
X212790Y286126D01*
X212759Y286186D01*
X212732Y286247D01*
X212708Y286311D01*
X212688Y286375D01*
X212671Y286440D01*
X212658Y286506D01*
X212649Y286573D01*
X212644Y286640D01*
X212642Y286708D01*
X212644Y286775D01*
X212650Y286843D01*
X212660Y286909D01*
X212673Y286975D01*
X212690Y287041D01*
X212711Y287105D01*
X212735Y287168D01*
X212763Y287229D01*
X212794Y287289D01*
X212828Y287347D01*
X212866Y287403D01*
X212906Y287457D01*
X212950Y287509D01*
X212996Y287557D01*
X213045Y287604D01*
X213097Y287647D01*
X213151Y287688D01*
X213207Y287725D01*
X213265Y287759D01*
X213325Y287790D01*
X213387Y287818D01*
X213450Y287842D01*
X213514Y287862D01*
X213579Y287879D01*
X213646Y287892D01*
X213712Y287901D01*
X213780Y287907D01*
X213847Y287909D01*
X215484Y281771D02*
X215482Y281702D01*
X215476Y281634D01*
X215467Y281565D01*
X215453Y281498D01*
X215436Y281431D01*
X215415Y281365D01*
X215391Y281301D01*
X215362Y281238D01*
X215331Y281177D01*
X215296Y281118D01*
X215258Y281060D01*
X215216Y281005D01*
X215172Y280953D01*
X215124Y280903D01*
X215074Y280855D01*
X215022Y280811D01*
X214967Y280769D01*
X214909Y280731D01*
X214850Y280696D01*
X214789Y280665D01*
X214726Y280636D01*
X214662Y280612D01*
X214596Y280591D01*
X214529Y280574D01*
X214462Y280560D01*
X214393Y280551D01*
X214325Y280545D01*
X214256Y280543D01*
X215484Y281771D02*
X215482Y281831D01*
X215477Y281890D01*
X215468Y281950D01*
X215456Y282008D01*
X215441Y282066D01*
X215422Y282123D01*
X215399Y282178D01*
X215374Y282232D01*
X215345Y282285D01*
X215314Y282336D01*
X215279Y282385D01*
X212824Y286068D01*
X213642Y280748D02*
X213691Y280713D01*
X213742Y280682D01*
X213795Y280653D01*
X213849Y280628D01*
X213904Y280605D01*
X213961Y280586D01*
X214019Y280571D01*
X214077Y280559D01*
X214137Y280550D01*
X214196Y280545D01*
X214256Y280543D01*
X213643Y280748D02*
X210573Y282998D01*
X203920Y283408D02*
X201874Y282589D01*
X203920Y283408D02*
X203979Y283433D01*
X204036Y283462D01*
X204091Y283495D01*
X204144Y283531D01*
X204195Y283569D01*
X204243Y283611D01*
X204289Y283656D01*
X204332Y283703D01*
X204372Y283753D01*
X204409Y283805D01*
X204443Y283860D01*
X204474Y283916D01*
X204501Y283974D01*
X204524Y284034D01*
X204544Y284094D01*
X204560Y284156D01*
X204573Y284219D01*
X204581Y284283D01*
X204586Y284346D01*
X204587Y284410D01*
X204584Y284474D01*
X204577Y284538D01*
X204566Y284601D01*
X204552Y284663D01*
X204534Y284725D01*
X204512Y284785D01*
X204487Y284844D01*
X204458Y284901D01*
X204425Y284956D01*
X204390Y285009D01*
X204351Y285060D01*
X204309Y285109D01*
X204265Y285155D01*
X204217Y285198D01*
X204168Y285238D01*
X204115Y285275D01*
X204061Y285309D01*
X204005Y285340D01*
X203947Y285367D01*
X203888Y285391D01*
X203827Y285410D01*
X203765Y285427D01*
X203702Y285439D01*
X203639Y285448D01*
X203575Y285453D01*
X203511Y285454D01*
X203375Y285450D01*
X203240Y285442D01*
X203104Y285430D01*
X202970Y285414D01*
X202835Y285394D01*
X202702Y285371D01*
X202569Y285343D01*
X202437Y285312D01*
X202306Y285277D01*
X202176Y285238D01*
X202047Y285195D01*
X201920Y285148D01*
X201794Y285098D01*
X201669Y285044D01*
X201874Y282589D02*
X201815Y282564D01*
X201758Y282535D01*
X201703Y282502D01*
X201650Y282466D01*
X201599Y282428D01*
X201551Y282386D01*
X201505Y282341D01*
X201462Y282294D01*
X201422Y282244D01*
X201385Y282192D01*
X201351Y282137D01*
X201320Y282081D01*
X201293Y282023D01*
X201270Y281963D01*
X201250Y281903D01*
X201234Y281841D01*
X201221Y281778D01*
X201213Y281714D01*
X201208Y281651D01*
X201207Y281587D01*
X201210Y281523D01*
X201217Y281459D01*
X201228Y281396D01*
X201242Y281334D01*
X201260Y281272D01*
X201282Y281212D01*
X201307Y281153D01*
X201336Y281096D01*
X201369Y281041D01*
X201404Y280988D01*
X201443Y280937D01*
X201485Y280888D01*
X201529Y280842D01*
X201577Y280799D01*
X201626Y280759D01*
X201679Y280722D01*
X201733Y280688D01*
X201789Y280657D01*
X201847Y280630D01*
X201906Y280606D01*
X201967Y280587D01*
X202029Y280570D01*
X202092Y280558D01*
X202155Y280549D01*
X202219Y280544D01*
X202283Y280543D01*
X202447Y280547D01*
X202611Y280555D01*
X202775Y280567D01*
X202938Y280583D01*
X203101Y280603D01*
X203264Y280626D01*
X203425Y280654D01*
X203587Y280685D01*
X203747Y280720D01*
X203906Y280759D01*
X204065Y280802D01*
X204222Y280848D01*
X204379Y280898D01*
X204534Y280952D01*
X198194Y282180D02*
X198194Y283817D01*
X198192Y283896D01*
X198186Y283975D01*
X198177Y284054D01*
X198164Y284132D01*
X198146Y284209D01*
X198126Y284285D01*
X198101Y284360D01*
X198073Y284434D01*
X198042Y284507D01*
X198006Y284578D01*
X197968Y284647D01*
X197926Y284714D01*
X197881Y284779D01*
X197833Y284842D01*
X197782Y284903D01*
X197728Y284960D01*
X197672Y285016D01*
X197613Y285068D01*
X197551Y285118D01*
X197487Y285164D01*
X197421Y285208D01*
X197353Y285248D01*
X197283Y285284D01*
X197211Y285318D01*
X197137Y285348D01*
X197063Y285374D01*
X196987Y285397D01*
X196910Y285415D01*
X196833Y285431D01*
X196754Y285442D01*
X196676Y285450D01*
X196597Y285454D01*
X196517Y285454D01*
X196438Y285450D01*
X196360Y285442D01*
X196281Y285431D01*
X196204Y285415D01*
X196127Y285397D01*
X196051Y285374D01*
X195977Y285348D01*
X195903Y285318D01*
X195831Y285284D01*
X195761Y285248D01*
X195693Y285208D01*
X195627Y285164D01*
X195563Y285118D01*
X195501Y285068D01*
X195442Y285016D01*
X195386Y284960D01*
X195332Y284903D01*
X195281Y284842D01*
X195233Y284779D01*
X195188Y284714D01*
X195146Y284647D01*
X195108Y284578D01*
X195072Y284507D01*
X195041Y284434D01*
X195013Y284360D01*
X194988Y284285D01*
X194968Y284209D01*
X194950Y284132D01*
X194937Y284054D01*
X194928Y283975D01*
X194922Y283896D01*
X194920Y283817D01*
X194920Y282180D01*
X194922Y282101D01*
X194928Y282022D01*
X194937Y281943D01*
X194950Y281865D01*
X194968Y281788D01*
X194988Y281712D01*
X195013Y281637D01*
X195041Y281563D01*
X195072Y281490D01*
X195108Y281419D01*
X195146Y281350D01*
X195188Y281283D01*
X195233Y281218D01*
X195281Y281155D01*
X195332Y281094D01*
X195386Y281037D01*
X195442Y280981D01*
X195501Y280929D01*
X195563Y280879D01*
X195627Y280833D01*
X195693Y280789D01*
X195761Y280749D01*
X195831Y280713D01*
X195903Y280679D01*
X195977Y280649D01*
X196051Y280623D01*
X196127Y280600D01*
X196204Y280582D01*
X196281Y280566D01*
X196360Y280555D01*
X196438Y280547D01*
X196517Y280543D01*
X196597Y280543D01*
X196676Y280547D01*
X196754Y280555D01*
X196833Y280566D01*
X196910Y280582D01*
X196987Y280600D01*
X197063Y280623D01*
X197137Y280649D01*
X197211Y280679D01*
X197283Y280713D01*
X197353Y280749D01*
X197421Y280789D01*
X197487Y280833D01*
X197551Y280879D01*
X197613Y280929D01*
X197672Y280981D01*
X197728Y281037D01*
X197782Y281094D01*
X197833Y281155D01*
X197881Y281218D01*
X197926Y281283D01*
X197968Y281350D01*
X198006Y281419D01*
X198042Y281490D01*
X198073Y281563D01*
X198101Y281637D01*
X198126Y281712D01*
X198146Y281788D01*
X198164Y281865D01*
X198177Y281943D01*
X198186Y282022D01*
X198192Y282101D01*
X198194Y282180D01*
X191460Y280543D02*
X191460Y286681D01*
X191461Y286681D02*
X191459Y286750D01*
X191453Y286818D01*
X191444Y286887D01*
X191430Y286954D01*
X191413Y287021D01*
X191392Y287087D01*
X191368Y287151D01*
X191339Y287214D01*
X191308Y287275D01*
X191273Y287334D01*
X191235Y287392D01*
X191193Y287447D01*
X191149Y287499D01*
X191101Y287549D01*
X191051Y287597D01*
X190999Y287641D01*
X190944Y287682D01*
X190886Y287721D01*
X190827Y287756D01*
X190766Y287787D01*
X190703Y287816D01*
X190639Y287840D01*
X190573Y287861D01*
X190506Y287878D01*
X190439Y287892D01*
X190371Y287901D01*
X190302Y287907D01*
X190233Y287909D01*
X189824Y287909D01*
X189824Y285454D02*
X192279Y285454D01*
X188339Y285454D02*
X185884Y285454D01*
X187521Y287909D02*
X187521Y281771D01*
X187519Y281702D01*
X187513Y281634D01*
X187504Y281565D01*
X187490Y281498D01*
X187473Y281431D01*
X187452Y281365D01*
X187428Y281301D01*
X187399Y281238D01*
X187368Y281177D01*
X187333Y281118D01*
X187295Y281060D01*
X187253Y281005D01*
X187209Y280953D01*
X187161Y280903D01*
X187111Y280855D01*
X187059Y280811D01*
X187004Y280770D01*
X186946Y280731D01*
X186887Y280696D01*
X186826Y280665D01*
X186763Y280636D01*
X186699Y280612D01*
X186633Y280591D01*
X186566Y280574D01*
X186499Y280560D01*
X186431Y280551D01*
X186362Y280545D01*
X186293Y280543D01*
X185884Y280543D01*
X181935Y280543D02*
X183163Y285454D01*
X180707Y283817D02*
X181935Y280543D01*
X179480Y280543D02*
X180707Y283817D01*
X178252Y285454D02*
X179480Y280543D01*
X173882Y283408D02*
X172040Y283408D01*
X173882Y283407D02*
X173957Y283405D01*
X174032Y283399D01*
X174106Y283389D01*
X174180Y283376D01*
X174253Y283358D01*
X174325Y283337D01*
X174395Y283312D01*
X174464Y283283D01*
X174532Y283251D01*
X174598Y283215D01*
X174662Y283176D01*
X174724Y283134D01*
X174783Y283088D01*
X174840Y283039D01*
X174895Y282988D01*
X174946Y282933D01*
X174995Y282876D01*
X175041Y282817D01*
X175083Y282755D01*
X175122Y282691D01*
X175158Y282625D01*
X175190Y282557D01*
X175219Y282488D01*
X175244Y282418D01*
X175265Y282346D01*
X175283Y282273D01*
X175296Y282199D01*
X175306Y282125D01*
X175312Y282050D01*
X175314Y281975D01*
X175312Y281900D01*
X175306Y281825D01*
X175296Y281751D01*
X175283Y281677D01*
X175265Y281604D01*
X175244Y281532D01*
X175219Y281462D01*
X175190Y281393D01*
X175158Y281325D01*
X175122Y281259D01*
X175083Y281195D01*
X175041Y281133D01*
X174995Y281074D01*
X174946Y281017D01*
X174895Y280962D01*
X174840Y280911D01*
X174783Y280862D01*
X174724Y280816D01*
X174662Y280774D01*
X174598Y280735D01*
X174532Y280699D01*
X174464Y280667D01*
X174395Y280638D01*
X174325Y280613D01*
X174253Y280592D01*
X174180Y280574D01*
X174106Y280561D01*
X174032Y280551D01*
X173957Y280545D01*
X173882Y280543D01*
X172040Y280543D01*
X172040Y284226D01*
X172042Y284295D01*
X172048Y284363D01*
X172057Y284432D01*
X172071Y284499D01*
X172088Y284566D01*
X172109Y284632D01*
X172133Y284696D01*
X172162Y284759D01*
X172193Y284820D01*
X172228Y284879D01*
X172266Y284937D01*
X172308Y284992D01*
X172352Y285044D01*
X172400Y285094D01*
X172450Y285142D01*
X172502Y285186D01*
X172557Y285228D01*
X172615Y285266D01*
X172674Y285301D01*
X172735Y285332D01*
X172798Y285361D01*
X172862Y285385D01*
X172928Y285406D01*
X172995Y285423D01*
X173062Y285437D01*
X173131Y285446D01*
X173199Y285452D01*
X173268Y285454D01*
X174905Y285454D01*
X168399Y285454D02*
X168399Y280543D01*
X168399Y285454D02*
X165944Y285454D01*
X165944Y284635D01*
X162341Y280543D02*
X160295Y280543D01*
X162341Y280543D02*
X162410Y280545D01*
X162478Y280551D01*
X162547Y280560D01*
X162614Y280574D01*
X162681Y280591D01*
X162747Y280612D01*
X162811Y280636D01*
X162874Y280665D01*
X162935Y280696D01*
X162994Y280731D01*
X163052Y280769D01*
X163107Y280811D01*
X163159Y280855D01*
X163209Y280903D01*
X163257Y280953D01*
X163301Y281005D01*
X163343Y281060D01*
X163381Y281118D01*
X163416Y281177D01*
X163447Y281238D01*
X163476Y281301D01*
X163500Y281365D01*
X163521Y281431D01*
X163538Y281498D01*
X163552Y281565D01*
X163561Y281634D01*
X163567Y281702D01*
X163569Y281771D01*
X163569Y283817D01*
X163567Y283896D01*
X163561Y283975D01*
X163552Y284054D01*
X163539Y284132D01*
X163521Y284209D01*
X163501Y284285D01*
X163476Y284360D01*
X163448Y284434D01*
X163417Y284507D01*
X163381Y284578D01*
X163343Y284647D01*
X163301Y284714D01*
X163256Y284779D01*
X163208Y284842D01*
X163157Y284903D01*
X163103Y284960D01*
X163047Y285016D01*
X162988Y285068D01*
X162926Y285118D01*
X162862Y285164D01*
X162796Y285208D01*
X162728Y285248D01*
X162658Y285284D01*
X162586Y285318D01*
X162512Y285348D01*
X162438Y285374D01*
X162362Y285397D01*
X162285Y285415D01*
X162208Y285431D01*
X162129Y285442D01*
X162051Y285450D01*
X161972Y285454D01*
X161892Y285454D01*
X161813Y285450D01*
X161735Y285442D01*
X161656Y285431D01*
X161579Y285415D01*
X161502Y285397D01*
X161426Y285374D01*
X161352Y285348D01*
X161278Y285318D01*
X161206Y285284D01*
X161136Y285248D01*
X161068Y285208D01*
X161002Y285164D01*
X160938Y285118D01*
X160876Y285068D01*
X160817Y285016D01*
X160761Y284960D01*
X160707Y284903D01*
X160656Y284842D01*
X160608Y284779D01*
X160563Y284714D01*
X160521Y284647D01*
X160483Y284578D01*
X160447Y284507D01*
X160416Y284434D01*
X160388Y284360D01*
X160363Y284285D01*
X160343Y284209D01*
X160325Y284132D01*
X160312Y284054D01*
X160303Y283975D01*
X160297Y283896D01*
X160295Y283817D01*
X160295Y282998D01*
X163569Y282998D01*
X157260Y281566D02*
X157260Y281157D01*
X157260Y281566D02*
X156850Y281566D01*
X156850Y281157D01*
X157260Y281157D01*
X157260Y284431D02*
X157260Y284840D01*
X156850Y284840D01*
X156850Y284431D01*
X157260Y284431D01*
X277015Y268351D02*
X279061Y268351D01*
X279130Y268353D01*
X279198Y268359D01*
X279267Y268368D01*
X279334Y268382D01*
X279401Y268399D01*
X279467Y268420D01*
X279531Y268444D01*
X279594Y268473D01*
X279655Y268504D01*
X279714Y268539D01*
X279772Y268577D01*
X279827Y268619D01*
X279879Y268663D01*
X279929Y268711D01*
X279977Y268761D01*
X280021Y268813D01*
X280063Y268868D01*
X280101Y268926D01*
X280136Y268985D01*
X280167Y269046D01*
X280196Y269109D01*
X280220Y269173D01*
X280241Y269239D01*
X280258Y269306D01*
X280272Y269373D01*
X280281Y269442D01*
X280287Y269510D01*
X280289Y269579D01*
X280289Y272034D01*
X280287Y272103D01*
X280281Y272171D01*
X280272Y272240D01*
X280258Y272307D01*
X280241Y272374D01*
X280220Y272440D01*
X280196Y272504D01*
X280167Y272567D01*
X280136Y272628D01*
X280101Y272687D01*
X280063Y272745D01*
X280021Y272800D01*
X279977Y272852D01*
X279929Y272902D01*
X279879Y272950D01*
X279827Y272994D01*
X279772Y273036D01*
X279714Y273074D01*
X279655Y273109D01*
X279594Y273140D01*
X279531Y273169D01*
X279467Y273193D01*
X279401Y273214D01*
X279334Y273231D01*
X279267Y273245D01*
X279198Y273254D01*
X279130Y273260D01*
X279061Y273262D01*
X277015Y273262D01*
X277015Y267123D01*
X277017Y267054D01*
X277023Y266986D01*
X277032Y266917D01*
X277046Y266850D01*
X277063Y266783D01*
X277084Y266717D01*
X277108Y266653D01*
X277137Y266590D01*
X277168Y266529D01*
X277203Y266470D01*
X277241Y266412D01*
X277283Y266357D01*
X277327Y266305D01*
X277375Y266255D01*
X277425Y266207D01*
X277477Y266163D01*
X277532Y266121D01*
X277590Y266083D01*
X277649Y266048D01*
X277710Y266017D01*
X277773Y265988D01*
X277837Y265964D01*
X277903Y265943D01*
X277970Y265926D01*
X278037Y265912D01*
X278106Y265903D01*
X278174Y265897D01*
X278243Y265895D01*
X278243Y265896D02*
X279880Y265896D01*
X273734Y268351D02*
X273734Y273262D01*
X273939Y275308D02*
X273939Y275717D01*
X273530Y275717D01*
X273530Y275308D01*
X273939Y275308D01*
X271369Y273262D02*
X268913Y273262D01*
X270550Y275717D02*
X270550Y269579D01*
X270551Y269579D02*
X270549Y269510D01*
X270543Y269442D01*
X270534Y269373D01*
X270520Y269306D01*
X270503Y269239D01*
X270482Y269173D01*
X270458Y269109D01*
X270429Y269046D01*
X270398Y268985D01*
X270363Y268926D01*
X270325Y268868D01*
X270283Y268813D01*
X270239Y268761D01*
X270191Y268711D01*
X270141Y268663D01*
X270089Y268619D01*
X270034Y268578D01*
X269976Y268539D01*
X269917Y268504D01*
X269856Y268473D01*
X269793Y268444D01*
X269729Y268420D01*
X269663Y268399D01*
X269596Y268382D01*
X269529Y268368D01*
X269461Y268359D01*
X269392Y268353D01*
X269323Y268351D01*
X268913Y268351D01*
X265862Y268351D02*
X265862Y275717D01*
X265862Y273262D02*
X263816Y273262D01*
X263747Y273260D01*
X263679Y273254D01*
X263610Y273245D01*
X263543Y273231D01*
X263476Y273214D01*
X263410Y273193D01*
X263346Y273169D01*
X263283Y273140D01*
X263222Y273109D01*
X263163Y273074D01*
X263105Y273036D01*
X263050Y272994D01*
X262998Y272950D01*
X262948Y272902D01*
X262900Y272852D01*
X262856Y272800D01*
X262815Y272745D01*
X262776Y272687D01*
X262741Y272628D01*
X262710Y272567D01*
X262681Y272504D01*
X262657Y272440D01*
X262636Y272374D01*
X262619Y272307D01*
X262605Y272240D01*
X262596Y272172D01*
X262590Y272103D01*
X262588Y272034D01*
X262588Y268351D01*
X259034Y269579D02*
X259034Y273262D01*
X259034Y269579D02*
X259032Y269510D01*
X259026Y269442D01*
X259017Y269373D01*
X259003Y269306D01*
X258986Y269239D01*
X258965Y269173D01*
X258941Y269109D01*
X258912Y269046D01*
X258881Y268985D01*
X258846Y268926D01*
X258808Y268868D01*
X258766Y268813D01*
X258722Y268761D01*
X258674Y268711D01*
X258624Y268663D01*
X258572Y268619D01*
X258517Y268578D01*
X258459Y268539D01*
X258400Y268504D01*
X258339Y268473D01*
X258276Y268444D01*
X258212Y268420D01*
X258146Y268399D01*
X258079Y268382D01*
X258012Y268368D01*
X257944Y268359D01*
X257875Y268353D01*
X257806Y268351D01*
X255760Y268351D01*
X255760Y273262D01*
X252166Y275717D02*
X252166Y268351D01*
X250120Y268351D01*
X250051Y268353D01*
X249983Y268359D01*
X249914Y268368D01*
X249847Y268382D01*
X249780Y268399D01*
X249714Y268420D01*
X249650Y268444D01*
X249587Y268473D01*
X249526Y268504D01*
X249467Y268539D01*
X249409Y268577D01*
X249354Y268619D01*
X249302Y268663D01*
X249252Y268711D01*
X249204Y268761D01*
X249160Y268813D01*
X249118Y268868D01*
X249080Y268926D01*
X249045Y268985D01*
X249014Y269046D01*
X248985Y269109D01*
X248961Y269173D01*
X248940Y269239D01*
X248923Y269306D01*
X248909Y269373D01*
X248900Y269442D01*
X248894Y269510D01*
X248892Y269579D01*
X248892Y272034D01*
X248894Y272103D01*
X248900Y272171D01*
X248909Y272240D01*
X248923Y272307D01*
X248940Y272374D01*
X248961Y272440D01*
X248985Y272504D01*
X249014Y272567D01*
X249045Y272628D01*
X249080Y272687D01*
X249118Y272745D01*
X249160Y272800D01*
X249204Y272852D01*
X249252Y272902D01*
X249302Y272950D01*
X249354Y272994D01*
X249409Y273036D01*
X249467Y273074D01*
X249526Y273109D01*
X249587Y273140D01*
X249650Y273169D01*
X249714Y273193D01*
X249780Y273214D01*
X249847Y273231D01*
X249914Y273245D01*
X249983Y273254D01*
X250051Y273260D01*
X250120Y273262D01*
X252166Y273262D01*
X246141Y268760D02*
X246141Y268351D01*
X246141Y268760D02*
X245732Y268760D01*
X245732Y268351D01*
X246141Y268351D01*
X241704Y268351D02*
X240067Y268351D01*
X241704Y268351D02*
X241773Y268353D01*
X241841Y268359D01*
X241910Y268368D01*
X241977Y268382D01*
X242044Y268399D01*
X242110Y268420D01*
X242174Y268444D01*
X242237Y268473D01*
X242298Y268504D01*
X242357Y268539D01*
X242415Y268577D01*
X242470Y268619D01*
X242522Y268663D01*
X242572Y268711D01*
X242620Y268761D01*
X242664Y268813D01*
X242706Y268868D01*
X242744Y268926D01*
X242779Y268985D01*
X242810Y269046D01*
X242839Y269109D01*
X242863Y269173D01*
X242884Y269239D01*
X242901Y269306D01*
X242915Y269373D01*
X242924Y269442D01*
X242930Y269510D01*
X242932Y269579D01*
X242932Y272034D01*
X242930Y272103D01*
X242924Y272171D01*
X242915Y272240D01*
X242901Y272307D01*
X242884Y272374D01*
X242863Y272440D01*
X242839Y272504D01*
X242810Y272567D01*
X242779Y272628D01*
X242744Y272687D01*
X242706Y272745D01*
X242664Y272800D01*
X242620Y272852D01*
X242572Y272902D01*
X242522Y272950D01*
X242470Y272994D01*
X242415Y273036D01*
X242357Y273074D01*
X242298Y273109D01*
X242237Y273140D01*
X242174Y273169D01*
X242110Y273193D01*
X242044Y273214D01*
X241977Y273231D01*
X241910Y273245D01*
X241841Y273254D01*
X241773Y273260D01*
X241704Y273262D01*
X240067Y273262D01*
X237333Y271625D02*
X237333Y269988D01*
X237333Y271625D02*
X237331Y271704D01*
X237325Y271783D01*
X237316Y271862D01*
X237303Y271940D01*
X237285Y272017D01*
X237265Y272093D01*
X237240Y272168D01*
X237212Y272242D01*
X237181Y272315D01*
X237145Y272386D01*
X237107Y272455D01*
X237065Y272522D01*
X237020Y272587D01*
X236972Y272650D01*
X236921Y272711D01*
X236867Y272768D01*
X236811Y272824D01*
X236752Y272876D01*
X236690Y272926D01*
X236626Y272972D01*
X236560Y273016D01*
X236492Y273056D01*
X236422Y273092D01*
X236350Y273126D01*
X236276Y273156D01*
X236202Y273182D01*
X236126Y273205D01*
X236049Y273223D01*
X235972Y273239D01*
X235893Y273250D01*
X235815Y273258D01*
X235736Y273262D01*
X235656Y273262D01*
X235577Y273258D01*
X235499Y273250D01*
X235420Y273239D01*
X235343Y273223D01*
X235266Y273205D01*
X235190Y273182D01*
X235116Y273156D01*
X235042Y273126D01*
X234970Y273092D01*
X234900Y273056D01*
X234832Y273016D01*
X234766Y272972D01*
X234702Y272926D01*
X234640Y272876D01*
X234581Y272824D01*
X234525Y272768D01*
X234471Y272711D01*
X234420Y272650D01*
X234372Y272587D01*
X234327Y272522D01*
X234285Y272455D01*
X234247Y272386D01*
X234211Y272315D01*
X234180Y272242D01*
X234152Y272168D01*
X234127Y272093D01*
X234107Y272017D01*
X234089Y271940D01*
X234076Y271862D01*
X234067Y271783D01*
X234061Y271704D01*
X234059Y271625D01*
X234059Y269988D01*
X234061Y269909D01*
X234067Y269830D01*
X234076Y269751D01*
X234089Y269673D01*
X234107Y269596D01*
X234127Y269520D01*
X234152Y269445D01*
X234180Y269371D01*
X234211Y269298D01*
X234247Y269227D01*
X234285Y269158D01*
X234327Y269091D01*
X234372Y269026D01*
X234420Y268963D01*
X234471Y268902D01*
X234525Y268845D01*
X234581Y268789D01*
X234640Y268737D01*
X234702Y268687D01*
X234766Y268641D01*
X234832Y268597D01*
X234900Y268557D01*
X234970Y268521D01*
X235042Y268487D01*
X235116Y268457D01*
X235190Y268431D01*
X235266Y268408D01*
X235343Y268390D01*
X235420Y268374D01*
X235499Y268363D01*
X235577Y268355D01*
X235656Y268351D01*
X235736Y268351D01*
X235815Y268355D01*
X235893Y268363D01*
X235972Y268374D01*
X236049Y268390D01*
X236126Y268408D01*
X236202Y268431D01*
X236276Y268457D01*
X236350Y268487D01*
X236422Y268521D01*
X236492Y268557D01*
X236560Y268597D01*
X236626Y268641D01*
X236690Y268687D01*
X236752Y268737D01*
X236811Y268789D01*
X236867Y268845D01*
X236921Y268902D01*
X236972Y268963D01*
X237020Y269026D01*
X237065Y269091D01*
X237107Y269158D01*
X237145Y269227D01*
X237181Y269298D01*
X237212Y269371D01*
X237240Y269445D01*
X237265Y269520D01*
X237285Y269596D01*
X237303Y269673D01*
X237316Y269751D01*
X237325Y269830D01*
X237331Y269909D01*
X237333Y269988D01*
X230592Y268351D02*
X230592Y273262D01*
X226909Y273262D01*
X226840Y273260D01*
X226772Y273254D01*
X226703Y273245D01*
X226636Y273231D01*
X226569Y273214D01*
X226503Y273193D01*
X226439Y273169D01*
X226376Y273140D01*
X226315Y273109D01*
X226256Y273074D01*
X226198Y273036D01*
X226143Y272994D01*
X226091Y272950D01*
X226041Y272902D01*
X225993Y272852D01*
X225949Y272800D01*
X225908Y272745D01*
X225869Y272687D01*
X225834Y272628D01*
X225803Y272567D01*
X225774Y272504D01*
X225750Y272440D01*
X225729Y272374D01*
X225712Y272307D01*
X225698Y272240D01*
X225689Y272172D01*
X225683Y272103D01*
X225681Y272034D01*
X225681Y268351D01*
X228137Y268351D02*
X228137Y273262D01*
X222458Y267533D02*
X219185Y276535D01*
X216024Y268351D02*
X212751Y268351D01*
X216024Y268351D02*
X216024Y275717D01*
X212751Y275717D01*
X213569Y272443D02*
X216024Y272443D01*
X209940Y269579D02*
X209940Y275717D01*
X209940Y269579D02*
X209938Y269510D01*
X209932Y269442D01*
X209923Y269373D01*
X209909Y269306D01*
X209892Y269239D01*
X209871Y269173D01*
X209847Y269109D01*
X209818Y269046D01*
X209787Y268985D01*
X209752Y268926D01*
X209714Y268868D01*
X209672Y268813D01*
X209628Y268761D01*
X209580Y268711D01*
X209530Y268663D01*
X209478Y268619D01*
X209423Y268578D01*
X209365Y268539D01*
X209306Y268504D01*
X209245Y268473D01*
X209182Y268444D01*
X209118Y268420D01*
X209052Y268399D01*
X208985Y268382D01*
X208918Y268368D01*
X208850Y268359D01*
X208781Y268353D01*
X208712Y268351D01*
X206191Y268351D02*
X206191Y273262D01*
X206396Y275308D02*
X206396Y275717D01*
X205987Y275717D01*
X205987Y275308D01*
X206396Y275308D01*
X201804Y271216D02*
X199962Y271216D01*
X201804Y271215D02*
X201879Y271213D01*
X201954Y271207D01*
X202028Y271197D01*
X202102Y271184D01*
X202175Y271166D01*
X202247Y271145D01*
X202317Y271120D01*
X202386Y271091D01*
X202454Y271059D01*
X202520Y271023D01*
X202584Y270984D01*
X202646Y270942D01*
X202705Y270896D01*
X202762Y270847D01*
X202817Y270796D01*
X202868Y270741D01*
X202917Y270684D01*
X202963Y270625D01*
X203005Y270563D01*
X203044Y270499D01*
X203080Y270433D01*
X203112Y270365D01*
X203141Y270296D01*
X203166Y270226D01*
X203187Y270154D01*
X203205Y270081D01*
X203218Y270007D01*
X203228Y269933D01*
X203234Y269858D01*
X203236Y269783D01*
X203234Y269708D01*
X203228Y269633D01*
X203218Y269559D01*
X203205Y269485D01*
X203187Y269412D01*
X203166Y269340D01*
X203141Y269270D01*
X203112Y269201D01*
X203080Y269133D01*
X203044Y269067D01*
X203005Y269003D01*
X202963Y268941D01*
X202917Y268882D01*
X202868Y268825D01*
X202817Y268770D01*
X202762Y268719D01*
X202705Y268670D01*
X202646Y268624D01*
X202584Y268582D01*
X202520Y268543D01*
X202454Y268507D01*
X202386Y268475D01*
X202317Y268446D01*
X202247Y268421D01*
X202175Y268400D01*
X202102Y268382D01*
X202028Y268369D01*
X201954Y268359D01*
X201879Y268353D01*
X201804Y268351D01*
X199962Y268351D01*
X199962Y272034D01*
X199964Y272103D01*
X199970Y272171D01*
X199979Y272240D01*
X199993Y272307D01*
X200010Y272374D01*
X200031Y272440D01*
X200055Y272504D01*
X200084Y272567D01*
X200115Y272628D01*
X200150Y272687D01*
X200188Y272745D01*
X200230Y272800D01*
X200274Y272852D01*
X200322Y272902D01*
X200372Y272950D01*
X200424Y272994D01*
X200479Y273036D01*
X200537Y273074D01*
X200596Y273109D01*
X200657Y273140D01*
X200720Y273169D01*
X200784Y273193D01*
X200850Y273214D01*
X200917Y273231D01*
X200984Y273245D01*
X201053Y273254D01*
X201121Y273260D01*
X201190Y273262D01*
X202827Y273262D01*
X196368Y273262D02*
X196368Y268351D01*
X196368Y273262D02*
X194322Y273262D01*
X194253Y273260D01*
X194185Y273254D01*
X194116Y273245D01*
X194049Y273231D01*
X193982Y273214D01*
X193916Y273193D01*
X193852Y273169D01*
X193789Y273140D01*
X193728Y273109D01*
X193669Y273074D01*
X193611Y273036D01*
X193556Y272994D01*
X193504Y272950D01*
X193454Y272902D01*
X193406Y272852D01*
X193362Y272800D01*
X193321Y272745D01*
X193282Y272687D01*
X193247Y272628D01*
X193216Y272567D01*
X193187Y272504D01*
X193163Y272440D01*
X193142Y272374D01*
X193125Y272307D01*
X193111Y272240D01*
X193102Y272172D01*
X193096Y272103D01*
X193094Y272034D01*
X193094Y268351D01*
X188556Y268351D02*
X186510Y268351D01*
X188556Y268351D02*
X188625Y268353D01*
X188693Y268359D01*
X188762Y268368D01*
X188829Y268382D01*
X188896Y268399D01*
X188962Y268420D01*
X189026Y268444D01*
X189089Y268473D01*
X189150Y268504D01*
X189209Y268539D01*
X189267Y268577D01*
X189322Y268619D01*
X189374Y268663D01*
X189424Y268711D01*
X189472Y268761D01*
X189516Y268813D01*
X189558Y268868D01*
X189596Y268926D01*
X189631Y268985D01*
X189662Y269046D01*
X189691Y269109D01*
X189715Y269173D01*
X189736Y269239D01*
X189753Y269306D01*
X189767Y269373D01*
X189776Y269442D01*
X189782Y269510D01*
X189784Y269579D01*
X189784Y271625D01*
X189782Y271704D01*
X189776Y271783D01*
X189767Y271862D01*
X189754Y271940D01*
X189736Y272017D01*
X189716Y272093D01*
X189691Y272168D01*
X189663Y272242D01*
X189632Y272315D01*
X189596Y272386D01*
X189558Y272455D01*
X189516Y272522D01*
X189471Y272587D01*
X189423Y272650D01*
X189372Y272711D01*
X189318Y272768D01*
X189262Y272824D01*
X189203Y272876D01*
X189141Y272926D01*
X189077Y272972D01*
X189011Y273016D01*
X188943Y273056D01*
X188873Y273092D01*
X188801Y273126D01*
X188727Y273156D01*
X188653Y273182D01*
X188577Y273205D01*
X188500Y273223D01*
X188423Y273239D01*
X188344Y273250D01*
X188266Y273258D01*
X188187Y273262D01*
X188107Y273262D01*
X188028Y273258D01*
X187950Y273250D01*
X187871Y273239D01*
X187794Y273223D01*
X187717Y273205D01*
X187641Y273182D01*
X187567Y273156D01*
X187493Y273126D01*
X187421Y273092D01*
X187351Y273056D01*
X187283Y273016D01*
X187217Y272972D01*
X187153Y272926D01*
X187091Y272876D01*
X187032Y272824D01*
X186976Y272768D01*
X186922Y272711D01*
X186871Y272650D01*
X186823Y272587D01*
X186778Y272522D01*
X186736Y272455D01*
X186698Y272386D01*
X186662Y272315D01*
X186631Y272242D01*
X186603Y272168D01*
X186578Y272093D01*
X186558Y272017D01*
X186540Y271940D01*
X186527Y271862D01*
X186518Y271783D01*
X186512Y271704D01*
X186510Y271625D01*
X186510Y270806D01*
X189784Y270806D01*
X183004Y272443D02*
X180958Y272443D01*
X180869Y272441D01*
X180780Y272435D01*
X180691Y272425D01*
X180603Y272412D01*
X180515Y272395D01*
X180428Y272373D01*
X180343Y272348D01*
X180258Y272320D01*
X180175Y272287D01*
X180093Y272251D01*
X180013Y272212D01*
X179935Y272169D01*
X179859Y272123D01*
X179784Y272073D01*
X179712Y272020D01*
X179643Y271964D01*
X179576Y271905D01*
X179511Y271844D01*
X179450Y271779D01*
X179391Y271712D01*
X179335Y271643D01*
X179282Y271571D01*
X179232Y271496D01*
X179186Y271420D01*
X179143Y271342D01*
X179104Y271262D01*
X179068Y271180D01*
X179035Y271097D01*
X179007Y271012D01*
X178982Y270927D01*
X178960Y270840D01*
X178943Y270752D01*
X178930Y270664D01*
X178920Y270575D01*
X178914Y270486D01*
X178912Y270397D01*
X178914Y270308D01*
X178920Y270219D01*
X178930Y270130D01*
X178943Y270042D01*
X178960Y269954D01*
X178982Y269867D01*
X179007Y269782D01*
X179035Y269697D01*
X179068Y269614D01*
X179104Y269532D01*
X179143Y269452D01*
X179186Y269374D01*
X179232Y269298D01*
X179282Y269223D01*
X179335Y269151D01*
X179391Y269082D01*
X179450Y269015D01*
X179511Y268950D01*
X179576Y268889D01*
X179643Y268830D01*
X179712Y268774D01*
X179784Y268721D01*
X179859Y268671D01*
X179935Y268625D01*
X180013Y268582D01*
X180093Y268543D01*
X180175Y268507D01*
X180258Y268474D01*
X180343Y268446D01*
X180428Y268421D01*
X180515Y268399D01*
X180603Y268382D01*
X180691Y268369D01*
X180780Y268359D01*
X180869Y268353D01*
X180958Y268351D01*
X183004Y268351D01*
X183004Y275717D01*
X180958Y275717D01*
X180879Y275715D01*
X180800Y275709D01*
X180721Y275700D01*
X180643Y275687D01*
X180566Y275669D01*
X180490Y275649D01*
X180415Y275624D01*
X180341Y275596D01*
X180268Y275565D01*
X180197Y275529D01*
X180128Y275491D01*
X180061Y275449D01*
X179996Y275404D01*
X179933Y275356D01*
X179872Y275305D01*
X179815Y275251D01*
X179759Y275195D01*
X179707Y275136D01*
X179657Y275074D01*
X179611Y275010D01*
X179567Y274944D01*
X179527Y274876D01*
X179491Y274806D01*
X179457Y274734D01*
X179427Y274660D01*
X179401Y274586D01*
X179378Y274510D01*
X179360Y274433D01*
X179344Y274356D01*
X179333Y274277D01*
X179325Y274199D01*
X179321Y274120D01*
X179321Y274040D01*
X179325Y273961D01*
X179333Y273883D01*
X179344Y273804D01*
X179360Y273727D01*
X179378Y273650D01*
X179401Y273574D01*
X179427Y273500D01*
X179457Y273426D01*
X179491Y273354D01*
X179527Y273284D01*
X179567Y273216D01*
X179611Y273150D01*
X179657Y273086D01*
X179707Y273024D01*
X179759Y272965D01*
X179815Y272909D01*
X179872Y272855D01*
X179933Y272804D01*
X179996Y272756D01*
X180061Y272711D01*
X180128Y272669D01*
X180197Y272631D01*
X180268Y272595D01*
X180341Y272564D01*
X180415Y272536D01*
X180490Y272511D01*
X180566Y272491D01*
X180643Y272473D01*
X180721Y272460D01*
X180800Y272451D01*
X180879Y272445D01*
X180958Y272443D01*
X175839Y273262D02*
X175839Y268351D01*
X175839Y273262D02*
X173384Y273262D01*
X173384Y272443D01*
X171078Y273262D02*
X171078Y268351D01*
X171283Y275308D02*
X171283Y275717D01*
X170874Y275717D01*
X170874Y275308D01*
X171283Y275308D01*
X166691Y271216D02*
X164850Y271216D01*
X166691Y271215D02*
X166766Y271213D01*
X166841Y271207D01*
X166915Y271197D01*
X166989Y271184D01*
X167062Y271166D01*
X167134Y271145D01*
X167204Y271120D01*
X167273Y271091D01*
X167341Y271059D01*
X167407Y271023D01*
X167471Y270984D01*
X167533Y270942D01*
X167592Y270896D01*
X167649Y270847D01*
X167704Y270796D01*
X167755Y270741D01*
X167804Y270684D01*
X167850Y270625D01*
X167892Y270563D01*
X167931Y270499D01*
X167967Y270433D01*
X167999Y270365D01*
X168028Y270296D01*
X168053Y270226D01*
X168074Y270154D01*
X168092Y270081D01*
X168105Y270007D01*
X168115Y269933D01*
X168121Y269858D01*
X168123Y269783D01*
X168121Y269708D01*
X168115Y269633D01*
X168105Y269559D01*
X168092Y269485D01*
X168074Y269412D01*
X168053Y269340D01*
X168028Y269270D01*
X167999Y269201D01*
X167967Y269133D01*
X167931Y269067D01*
X167892Y269003D01*
X167850Y268941D01*
X167804Y268882D01*
X167755Y268825D01*
X167704Y268770D01*
X167649Y268719D01*
X167592Y268670D01*
X167533Y268624D01*
X167471Y268582D01*
X167407Y268543D01*
X167341Y268507D01*
X167273Y268475D01*
X167204Y268446D01*
X167134Y268421D01*
X167062Y268400D01*
X166989Y268382D01*
X166915Y268369D01*
X166841Y268359D01*
X166766Y268353D01*
X166691Y268351D01*
X164850Y268351D01*
X164850Y272034D01*
X164849Y272034D02*
X164851Y272103D01*
X164857Y272171D01*
X164866Y272240D01*
X164880Y272307D01*
X164897Y272374D01*
X164918Y272440D01*
X164942Y272504D01*
X164971Y272567D01*
X165002Y272628D01*
X165037Y272687D01*
X165075Y272745D01*
X165117Y272800D01*
X165161Y272852D01*
X165209Y272902D01*
X165259Y272950D01*
X165311Y272994D01*
X165366Y273036D01*
X165424Y273074D01*
X165483Y273109D01*
X165544Y273140D01*
X165607Y273169D01*
X165671Y273193D01*
X165737Y273214D01*
X165804Y273231D01*
X165871Y273245D01*
X165940Y273254D01*
X166008Y273260D01*
X166077Y273262D01*
X167714Y273262D01*
X161255Y273262D02*
X161255Y268351D01*
X161255Y273262D02*
X159209Y273262D01*
X159140Y273260D01*
X159072Y273254D01*
X159003Y273245D01*
X158936Y273231D01*
X158869Y273214D01*
X158803Y273193D01*
X158739Y273169D01*
X158676Y273140D01*
X158615Y273109D01*
X158556Y273074D01*
X158498Y273036D01*
X158443Y272994D01*
X158391Y272950D01*
X158341Y272902D01*
X158293Y272852D01*
X158249Y272800D01*
X158208Y272745D01*
X158169Y272687D01*
X158134Y272628D01*
X158103Y272567D01*
X158074Y272504D01*
X158050Y272440D01*
X158029Y272374D01*
X158012Y272307D01*
X157998Y272240D01*
X157989Y272172D01*
X157983Y272103D01*
X157981Y272034D01*
X157981Y268351D01*
X151438Y268351D02*
X151438Y275717D01*
X151438Y268351D02*
X153484Y268351D01*
X153553Y268353D01*
X153621Y268359D01*
X153690Y268368D01*
X153757Y268382D01*
X153824Y268399D01*
X153890Y268420D01*
X153954Y268444D01*
X154017Y268473D01*
X154078Y268504D01*
X154137Y268539D01*
X154195Y268577D01*
X154250Y268619D01*
X154302Y268663D01*
X154352Y268711D01*
X154400Y268761D01*
X154444Y268813D01*
X154486Y268868D01*
X154524Y268926D01*
X154559Y268985D01*
X154590Y269046D01*
X154619Y269109D01*
X154643Y269173D01*
X154664Y269239D01*
X154681Y269306D01*
X154695Y269373D01*
X154704Y269442D01*
X154710Y269510D01*
X154712Y269579D01*
X154712Y272034D01*
X154710Y272103D01*
X154704Y272171D01*
X154695Y272240D01*
X154681Y272307D01*
X154664Y272374D01*
X154643Y272440D01*
X154619Y272504D01*
X154590Y272567D01*
X154559Y272628D01*
X154524Y272687D01*
X154486Y272745D01*
X154444Y272800D01*
X154400Y272852D01*
X154352Y272902D01*
X154302Y272950D01*
X154250Y272994D01*
X154195Y273036D01*
X154137Y273074D01*
X154078Y273109D01*
X154017Y273140D01*
X153954Y273169D01*
X153890Y273193D01*
X153824Y273214D01*
X153757Y273231D01*
X153690Y273245D01*
X153621Y273254D01*
X153553Y273260D01*
X153484Y273262D01*
X151438Y273262D01*
X148331Y267533D02*
X145058Y276535D01*
X139049Y272443D02*
X137821Y272443D01*
X137821Y268351D01*
X140276Y268351D01*
X140354Y268353D01*
X140432Y268358D01*
X140509Y268368D01*
X140586Y268381D01*
X140662Y268397D01*
X140737Y268417D01*
X140811Y268441D01*
X140884Y268468D01*
X140956Y268499D01*
X141026Y268533D01*
X141095Y268570D01*
X141161Y268611D01*
X141226Y268655D01*
X141288Y268701D01*
X141348Y268751D01*
X141406Y268803D01*
X141461Y268858D01*
X141513Y268916D01*
X141563Y268976D01*
X141609Y269038D01*
X141653Y269103D01*
X141694Y269170D01*
X141731Y269238D01*
X141765Y269308D01*
X141796Y269380D01*
X141823Y269453D01*
X141847Y269527D01*
X141867Y269602D01*
X141883Y269678D01*
X141896Y269755D01*
X141906Y269832D01*
X141911Y269910D01*
X141913Y269988D01*
X141913Y274080D01*
X141911Y274158D01*
X141906Y274236D01*
X141896Y274313D01*
X141883Y274390D01*
X141867Y274466D01*
X141847Y274541D01*
X141823Y274615D01*
X141796Y274688D01*
X141765Y274760D01*
X141731Y274830D01*
X141694Y274899D01*
X141653Y274965D01*
X141609Y275030D01*
X141563Y275092D01*
X141513Y275152D01*
X141461Y275210D01*
X141406Y275265D01*
X141348Y275317D01*
X141288Y275367D01*
X141226Y275413D01*
X141161Y275457D01*
X141095Y275498D01*
X141026Y275535D01*
X140956Y275569D01*
X140884Y275600D01*
X140811Y275627D01*
X140737Y275651D01*
X140662Y275671D01*
X140586Y275687D01*
X140509Y275700D01*
X140432Y275710D01*
X140354Y275715D01*
X140276Y275717D01*
X137821Y275717D01*
X134433Y271625D02*
X134433Y269988D01*
X134433Y271625D02*
X134431Y271704D01*
X134425Y271783D01*
X134416Y271862D01*
X134403Y271940D01*
X134385Y272017D01*
X134365Y272093D01*
X134340Y272168D01*
X134312Y272242D01*
X134281Y272315D01*
X134245Y272386D01*
X134207Y272455D01*
X134165Y272522D01*
X134120Y272587D01*
X134072Y272650D01*
X134021Y272711D01*
X133967Y272768D01*
X133911Y272824D01*
X133852Y272876D01*
X133790Y272926D01*
X133726Y272972D01*
X133660Y273016D01*
X133592Y273056D01*
X133522Y273092D01*
X133450Y273126D01*
X133376Y273156D01*
X133302Y273182D01*
X133226Y273205D01*
X133149Y273223D01*
X133072Y273239D01*
X132993Y273250D01*
X132915Y273258D01*
X132836Y273262D01*
X132756Y273262D01*
X132677Y273258D01*
X132599Y273250D01*
X132520Y273239D01*
X132443Y273223D01*
X132366Y273205D01*
X132290Y273182D01*
X132216Y273156D01*
X132142Y273126D01*
X132070Y273092D01*
X132000Y273056D01*
X131932Y273016D01*
X131866Y272972D01*
X131802Y272926D01*
X131740Y272876D01*
X131681Y272824D01*
X131625Y272768D01*
X131571Y272711D01*
X131520Y272650D01*
X131472Y272587D01*
X131427Y272522D01*
X131385Y272455D01*
X131347Y272386D01*
X131311Y272315D01*
X131280Y272242D01*
X131252Y272168D01*
X131227Y272093D01*
X131207Y272017D01*
X131189Y271940D01*
X131176Y271862D01*
X131167Y271783D01*
X131161Y271704D01*
X131159Y271625D01*
X131159Y269988D01*
X131161Y269909D01*
X131167Y269830D01*
X131176Y269751D01*
X131189Y269673D01*
X131207Y269596D01*
X131227Y269520D01*
X131252Y269445D01*
X131280Y269371D01*
X131311Y269298D01*
X131347Y269227D01*
X131385Y269158D01*
X131427Y269091D01*
X131472Y269026D01*
X131520Y268963D01*
X131571Y268902D01*
X131625Y268845D01*
X131681Y268789D01*
X131740Y268737D01*
X131802Y268687D01*
X131866Y268641D01*
X131932Y268597D01*
X132000Y268557D01*
X132070Y268521D01*
X132142Y268487D01*
X132216Y268457D01*
X132290Y268431D01*
X132366Y268408D01*
X132443Y268390D01*
X132520Y268374D01*
X132599Y268363D01*
X132677Y268355D01*
X132756Y268351D01*
X132836Y268351D01*
X132915Y268355D01*
X132993Y268363D01*
X133072Y268374D01*
X133149Y268390D01*
X133226Y268408D01*
X133302Y268431D01*
X133376Y268457D01*
X133450Y268487D01*
X133522Y268521D01*
X133592Y268557D01*
X133660Y268597D01*
X133726Y268641D01*
X133790Y268687D01*
X133852Y268737D01*
X133911Y268789D01*
X133967Y268845D01*
X134021Y268902D01*
X134072Y268963D01*
X134120Y269026D01*
X134165Y269091D01*
X134207Y269158D01*
X134245Y269227D01*
X134281Y269298D01*
X134312Y269371D01*
X134340Y269445D01*
X134365Y269520D01*
X134385Y269596D01*
X134403Y269673D01*
X134416Y269751D01*
X134425Y269830D01*
X134431Y269909D01*
X134433Y269988D01*
X128093Y269988D02*
X128093Y271625D01*
X128091Y271704D01*
X128085Y271783D01*
X128076Y271862D01*
X128063Y271940D01*
X128045Y272017D01*
X128025Y272093D01*
X128000Y272168D01*
X127972Y272242D01*
X127941Y272315D01*
X127905Y272386D01*
X127867Y272455D01*
X127825Y272522D01*
X127780Y272587D01*
X127732Y272650D01*
X127681Y272711D01*
X127627Y272768D01*
X127571Y272824D01*
X127512Y272876D01*
X127450Y272926D01*
X127386Y272972D01*
X127320Y273016D01*
X127252Y273056D01*
X127182Y273092D01*
X127110Y273126D01*
X127036Y273156D01*
X126962Y273182D01*
X126886Y273205D01*
X126809Y273223D01*
X126732Y273239D01*
X126653Y273250D01*
X126575Y273258D01*
X126496Y273262D01*
X126416Y273262D01*
X126337Y273258D01*
X126259Y273250D01*
X126180Y273239D01*
X126103Y273223D01*
X126026Y273205D01*
X125950Y273182D01*
X125876Y273156D01*
X125802Y273126D01*
X125730Y273092D01*
X125660Y273056D01*
X125592Y273016D01*
X125526Y272972D01*
X125462Y272926D01*
X125400Y272876D01*
X125341Y272824D01*
X125285Y272768D01*
X125231Y272711D01*
X125180Y272650D01*
X125132Y272587D01*
X125087Y272522D01*
X125045Y272455D01*
X125007Y272386D01*
X124971Y272315D01*
X124940Y272242D01*
X124912Y272168D01*
X124887Y272093D01*
X124867Y272017D01*
X124849Y271940D01*
X124836Y271862D01*
X124827Y271783D01*
X124821Y271704D01*
X124819Y271625D01*
X124819Y269988D01*
X124821Y269909D01*
X124827Y269830D01*
X124836Y269751D01*
X124849Y269673D01*
X124867Y269596D01*
X124887Y269520D01*
X124912Y269445D01*
X124940Y269371D01*
X124971Y269298D01*
X125007Y269227D01*
X125045Y269158D01*
X125087Y269091D01*
X125132Y269026D01*
X125180Y268963D01*
X125231Y268902D01*
X125285Y268845D01*
X125341Y268789D01*
X125400Y268737D01*
X125462Y268687D01*
X125526Y268641D01*
X125592Y268597D01*
X125660Y268557D01*
X125730Y268521D01*
X125802Y268487D01*
X125876Y268457D01*
X125950Y268431D01*
X126026Y268408D01*
X126103Y268390D01*
X126180Y268374D01*
X126259Y268363D01*
X126337Y268355D01*
X126416Y268351D01*
X126496Y268351D01*
X126575Y268355D01*
X126653Y268363D01*
X126732Y268374D01*
X126809Y268390D01*
X126886Y268408D01*
X126962Y268431D01*
X127036Y268457D01*
X127110Y268487D01*
X127182Y268521D01*
X127252Y268557D01*
X127320Y268597D01*
X127386Y268641D01*
X127450Y268687D01*
X127512Y268737D01*
X127571Y268789D01*
X127627Y268845D01*
X127681Y268902D01*
X127732Y268963D01*
X127780Y269026D01*
X127825Y269091D01*
X127867Y269158D01*
X127905Y269227D01*
X127941Y269298D01*
X127972Y269371D01*
X128000Y269445D01*
X128025Y269520D01*
X128045Y269596D01*
X128063Y269673D01*
X128076Y269751D01*
X128085Y269830D01*
X128091Y269909D01*
X128093Y269988D01*
X118520Y268351D02*
X118520Y275717D01*
X118520Y268351D02*
X120566Y268351D01*
X120635Y268353D01*
X120703Y268359D01*
X120772Y268368D01*
X120839Y268382D01*
X120906Y268399D01*
X120972Y268420D01*
X121036Y268444D01*
X121099Y268473D01*
X121160Y268504D01*
X121219Y268539D01*
X121277Y268577D01*
X121332Y268619D01*
X121384Y268663D01*
X121434Y268711D01*
X121482Y268761D01*
X121526Y268813D01*
X121568Y268868D01*
X121606Y268926D01*
X121641Y268985D01*
X121672Y269046D01*
X121701Y269109D01*
X121725Y269173D01*
X121746Y269239D01*
X121763Y269306D01*
X121777Y269373D01*
X121786Y269442D01*
X121792Y269510D01*
X121794Y269579D01*
X121794Y272034D01*
X121792Y272103D01*
X121786Y272171D01*
X121777Y272240D01*
X121763Y272307D01*
X121746Y272374D01*
X121725Y272440D01*
X121701Y272504D01*
X121672Y272567D01*
X121641Y272628D01*
X121606Y272687D01*
X121568Y272745D01*
X121526Y272800D01*
X121482Y272852D01*
X121434Y272902D01*
X121384Y272950D01*
X121332Y272994D01*
X121277Y273036D01*
X121219Y273074D01*
X121160Y273109D01*
X121099Y273140D01*
X121036Y273169D01*
X120972Y273193D01*
X120906Y273214D01*
X120839Y273231D01*
X120772Y273245D01*
X120703Y273254D01*
X120635Y273260D01*
X120566Y273262D01*
X118520Y273262D01*
X114831Y268351D02*
X111558Y268351D01*
X114831Y268351D02*
X114831Y275717D01*
X111558Y275717D01*
X112376Y272443D02*
X114831Y272443D01*
X108586Y273262D02*
X108586Y268351D01*
X108586Y273262D02*
X106540Y273262D01*
X106471Y273260D01*
X106403Y273254D01*
X106334Y273245D01*
X106267Y273231D01*
X106200Y273214D01*
X106134Y273193D01*
X106070Y273169D01*
X106007Y273140D01*
X105946Y273109D01*
X105887Y273074D01*
X105829Y273036D01*
X105774Y272994D01*
X105722Y272950D01*
X105672Y272902D01*
X105624Y272852D01*
X105580Y272800D01*
X105539Y272745D01*
X105500Y272687D01*
X105465Y272628D01*
X105434Y272567D01*
X105405Y272504D01*
X105381Y272440D01*
X105360Y272374D01*
X105343Y272307D01*
X105329Y272240D01*
X105320Y272172D01*
X105314Y272103D01*
X105312Y272034D01*
X105312Y268351D01*
X102002Y269988D02*
X102002Y271625D01*
X102000Y271704D01*
X101994Y271783D01*
X101985Y271862D01*
X101972Y271940D01*
X101954Y272017D01*
X101934Y272093D01*
X101909Y272168D01*
X101881Y272242D01*
X101850Y272315D01*
X101814Y272386D01*
X101776Y272455D01*
X101734Y272522D01*
X101689Y272587D01*
X101641Y272650D01*
X101590Y272711D01*
X101536Y272768D01*
X101480Y272824D01*
X101421Y272876D01*
X101359Y272926D01*
X101295Y272972D01*
X101229Y273016D01*
X101161Y273056D01*
X101091Y273092D01*
X101019Y273126D01*
X100945Y273156D01*
X100871Y273182D01*
X100795Y273205D01*
X100718Y273223D01*
X100641Y273239D01*
X100562Y273250D01*
X100484Y273258D01*
X100405Y273262D01*
X100325Y273262D01*
X100246Y273258D01*
X100168Y273250D01*
X100089Y273239D01*
X100012Y273223D01*
X99935Y273205D01*
X99859Y273182D01*
X99785Y273156D01*
X99711Y273126D01*
X99639Y273092D01*
X99569Y273056D01*
X99501Y273016D01*
X99435Y272972D01*
X99371Y272926D01*
X99309Y272876D01*
X99250Y272824D01*
X99194Y272768D01*
X99140Y272711D01*
X99089Y272650D01*
X99041Y272587D01*
X98996Y272522D01*
X98954Y272455D01*
X98916Y272386D01*
X98880Y272315D01*
X98849Y272242D01*
X98821Y272168D01*
X98796Y272093D01*
X98776Y272017D01*
X98758Y271940D01*
X98745Y271862D01*
X98736Y271783D01*
X98730Y271704D01*
X98728Y271625D01*
X98728Y269988D01*
X98730Y269909D01*
X98736Y269830D01*
X98745Y269751D01*
X98758Y269673D01*
X98776Y269596D01*
X98796Y269520D01*
X98821Y269445D01*
X98849Y269371D01*
X98880Y269298D01*
X98916Y269227D01*
X98954Y269158D01*
X98996Y269091D01*
X99041Y269026D01*
X99089Y268963D01*
X99140Y268902D01*
X99194Y268845D01*
X99250Y268789D01*
X99309Y268737D01*
X99371Y268687D01*
X99435Y268641D01*
X99501Y268597D01*
X99569Y268557D01*
X99639Y268521D01*
X99711Y268487D01*
X99785Y268457D01*
X99859Y268431D01*
X99935Y268408D01*
X100012Y268390D01*
X100089Y268374D01*
X100168Y268363D01*
X100246Y268355D01*
X100325Y268351D01*
X100405Y268351D01*
X100484Y268355D01*
X100562Y268363D01*
X100641Y268374D01*
X100718Y268390D01*
X100795Y268408D01*
X100871Y268431D01*
X100945Y268457D01*
X101019Y268487D01*
X101091Y268521D01*
X101161Y268557D01*
X101229Y268597D01*
X101295Y268641D01*
X101359Y268687D01*
X101421Y268737D01*
X101480Y268789D01*
X101536Y268845D01*
X101590Y268902D01*
X101641Y268963D01*
X101689Y269026D01*
X101734Y269091D01*
X101776Y269158D01*
X101814Y269227D01*
X101850Y269298D01*
X101881Y269371D01*
X101909Y269445D01*
X101934Y269520D01*
X101954Y269596D01*
X101972Y269673D01*
X101985Y269751D01*
X101994Y269830D01*
X102000Y269909D01*
X102002Y269988D01*
X95418Y269579D02*
X95418Y273262D01*
X95419Y269579D02*
X95417Y269510D01*
X95411Y269442D01*
X95402Y269373D01*
X95388Y269306D01*
X95371Y269239D01*
X95350Y269173D01*
X95326Y269109D01*
X95297Y269046D01*
X95266Y268985D01*
X95231Y268926D01*
X95193Y268868D01*
X95151Y268813D01*
X95107Y268761D01*
X95059Y268711D01*
X95009Y268663D01*
X94957Y268619D01*
X94902Y268578D01*
X94844Y268539D01*
X94785Y268504D01*
X94724Y268473D01*
X94661Y268444D01*
X94597Y268420D01*
X94531Y268399D01*
X94464Y268382D01*
X94397Y268368D01*
X94329Y268359D01*
X94260Y268353D01*
X94191Y268351D01*
X92145Y268351D01*
X92145Y273262D01*
X87648Y268351D02*
X85602Y268351D01*
X87648Y268351D02*
X87717Y268353D01*
X87785Y268359D01*
X87854Y268368D01*
X87921Y268382D01*
X87988Y268399D01*
X88054Y268420D01*
X88118Y268444D01*
X88181Y268473D01*
X88242Y268504D01*
X88301Y268539D01*
X88359Y268577D01*
X88414Y268619D01*
X88466Y268663D01*
X88516Y268711D01*
X88564Y268761D01*
X88608Y268813D01*
X88650Y268868D01*
X88688Y268926D01*
X88723Y268985D01*
X88754Y269046D01*
X88783Y269109D01*
X88807Y269173D01*
X88828Y269239D01*
X88845Y269306D01*
X88859Y269373D01*
X88868Y269442D01*
X88874Y269510D01*
X88876Y269579D01*
X88876Y272034D01*
X88874Y272103D01*
X88868Y272171D01*
X88859Y272240D01*
X88845Y272307D01*
X88828Y272374D01*
X88807Y272440D01*
X88783Y272504D01*
X88754Y272567D01*
X88723Y272628D01*
X88688Y272687D01*
X88650Y272745D01*
X88608Y272800D01*
X88564Y272852D01*
X88516Y272902D01*
X88466Y272950D01*
X88414Y272994D01*
X88359Y273036D01*
X88301Y273074D01*
X88242Y273109D01*
X88181Y273140D01*
X88118Y273169D01*
X88054Y273193D01*
X87988Y273214D01*
X87921Y273231D01*
X87854Y273245D01*
X87785Y273254D01*
X87717Y273260D01*
X87648Y273262D01*
X85602Y273262D01*
X85602Y267123D01*
X85601Y267123D02*
X85603Y267054D01*
X85609Y266986D01*
X85618Y266917D01*
X85632Y266850D01*
X85649Y266783D01*
X85670Y266717D01*
X85694Y266653D01*
X85723Y266590D01*
X85754Y266529D01*
X85789Y266470D01*
X85827Y266412D01*
X85869Y266357D01*
X85913Y266305D01*
X85961Y266255D01*
X86011Y266207D01*
X86063Y266163D01*
X86118Y266121D01*
X86176Y266083D01*
X86235Y266048D01*
X86296Y266017D01*
X86359Y265988D01*
X86423Y265964D01*
X86489Y265943D01*
X86556Y265926D01*
X86623Y265912D01*
X86692Y265903D01*
X86760Y265897D01*
X86829Y265895D01*
X86829Y265896D02*
X88466Y265896D01*
X82007Y268351D02*
X82007Y275717D01*
X82007Y273262D02*
X79961Y273262D01*
X79892Y273260D01*
X79824Y273254D01*
X79755Y273245D01*
X79688Y273231D01*
X79621Y273214D01*
X79555Y273193D01*
X79491Y273169D01*
X79428Y273140D01*
X79367Y273109D01*
X79308Y273074D01*
X79250Y273036D01*
X79195Y272994D01*
X79143Y272950D01*
X79093Y272902D01*
X79045Y272852D01*
X79001Y272800D01*
X78960Y272745D01*
X78921Y272687D01*
X78886Y272628D01*
X78855Y272567D01*
X78826Y272504D01*
X78802Y272440D01*
X78781Y272374D01*
X78764Y272307D01*
X78750Y272240D01*
X78741Y272172D01*
X78735Y272103D01*
X78733Y272034D01*
X78733Y268351D01*
X74762Y268351D02*
X74762Y275717D01*
X75580Y268351D02*
X73944Y268351D01*
X73944Y275717D02*
X75580Y275717D01*
X70791Y273262D02*
X70791Y268351D01*
X70791Y273262D02*
X68744Y273262D01*
X68675Y273260D01*
X68607Y273254D01*
X68538Y273245D01*
X68471Y273231D01*
X68404Y273214D01*
X68338Y273193D01*
X68274Y273169D01*
X68211Y273140D01*
X68150Y273109D01*
X68091Y273074D01*
X68033Y273036D01*
X67978Y272994D01*
X67926Y272950D01*
X67876Y272902D01*
X67828Y272852D01*
X67784Y272800D01*
X67743Y272745D01*
X67704Y272687D01*
X67669Y272628D01*
X67638Y272567D01*
X67609Y272504D01*
X67585Y272440D01*
X67564Y272374D01*
X67547Y272307D01*
X67533Y272240D01*
X67524Y272172D01*
X67518Y272103D01*
X67516Y272034D01*
X67517Y272034D02*
X67517Y268351D01*
X63593Y271216D02*
X61547Y270397D01*
X63593Y271216D02*
X63652Y271241D01*
X63709Y271270D01*
X63764Y271303D01*
X63817Y271339D01*
X63868Y271377D01*
X63916Y271419D01*
X63962Y271464D01*
X64005Y271511D01*
X64045Y271561D01*
X64082Y271613D01*
X64116Y271668D01*
X64147Y271724D01*
X64174Y271782D01*
X64197Y271842D01*
X64217Y271902D01*
X64233Y271964D01*
X64246Y272027D01*
X64254Y272091D01*
X64259Y272154D01*
X64260Y272218D01*
X64257Y272282D01*
X64250Y272346D01*
X64239Y272409D01*
X64225Y272471D01*
X64207Y272533D01*
X64185Y272593D01*
X64160Y272652D01*
X64131Y272709D01*
X64098Y272764D01*
X64063Y272817D01*
X64024Y272868D01*
X63982Y272917D01*
X63938Y272963D01*
X63890Y273006D01*
X63841Y273046D01*
X63788Y273083D01*
X63734Y273117D01*
X63678Y273148D01*
X63620Y273175D01*
X63561Y273199D01*
X63500Y273218D01*
X63438Y273235D01*
X63375Y273247D01*
X63312Y273256D01*
X63248Y273261D01*
X63184Y273262D01*
X63048Y273258D01*
X62913Y273250D01*
X62777Y273238D01*
X62643Y273222D01*
X62508Y273202D01*
X62375Y273179D01*
X62242Y273151D01*
X62110Y273120D01*
X61979Y273085D01*
X61849Y273046D01*
X61720Y273003D01*
X61593Y272956D01*
X61467Y272906D01*
X61342Y272852D01*
X61547Y270397D02*
X61488Y270372D01*
X61431Y270343D01*
X61376Y270310D01*
X61323Y270274D01*
X61272Y270236D01*
X61224Y270194D01*
X61178Y270149D01*
X61135Y270102D01*
X61095Y270052D01*
X61058Y270000D01*
X61024Y269945D01*
X60993Y269889D01*
X60966Y269831D01*
X60943Y269771D01*
X60923Y269711D01*
X60907Y269649D01*
X60894Y269586D01*
X60886Y269522D01*
X60881Y269459D01*
X60880Y269395D01*
X60883Y269331D01*
X60890Y269267D01*
X60901Y269204D01*
X60915Y269142D01*
X60933Y269080D01*
X60955Y269020D01*
X60980Y268961D01*
X61009Y268904D01*
X61042Y268849D01*
X61077Y268796D01*
X61116Y268745D01*
X61158Y268696D01*
X61202Y268650D01*
X61250Y268607D01*
X61299Y268567D01*
X61352Y268530D01*
X61406Y268496D01*
X61462Y268465D01*
X61520Y268438D01*
X61579Y268414D01*
X61640Y268395D01*
X61702Y268378D01*
X61765Y268366D01*
X61828Y268357D01*
X61892Y268352D01*
X61956Y268351D01*
X62120Y268355D01*
X62284Y268363D01*
X62448Y268375D01*
X62611Y268391D01*
X62774Y268411D01*
X62937Y268434D01*
X63098Y268462D01*
X63260Y268493D01*
X63420Y268528D01*
X63579Y268567D01*
X63738Y268610D01*
X63895Y268656D01*
X64052Y268706D01*
X64207Y268760D01*
X58497Y273262D02*
X56042Y273262D01*
X57679Y275717D02*
X57679Y269579D01*
X57677Y269510D01*
X57671Y269442D01*
X57662Y269373D01*
X57648Y269306D01*
X57631Y269239D01*
X57610Y269173D01*
X57586Y269109D01*
X57557Y269046D01*
X57526Y268985D01*
X57491Y268926D01*
X57453Y268868D01*
X57411Y268813D01*
X57367Y268761D01*
X57319Y268711D01*
X57269Y268663D01*
X57217Y268619D01*
X57162Y268578D01*
X57104Y268539D01*
X57045Y268504D01*
X56984Y268473D01*
X56921Y268444D01*
X56857Y268420D01*
X56791Y268399D01*
X56724Y268382D01*
X56657Y268368D01*
X56589Y268359D01*
X56520Y268353D01*
X56451Y268351D01*
X56042Y268351D01*
X52944Y268351D02*
X52944Y273262D01*
X50489Y273262D01*
X50489Y272443D01*
X47870Y273262D02*
X47870Y269579D01*
X47868Y269510D01*
X47862Y269442D01*
X47853Y269373D01*
X47839Y269306D01*
X47822Y269239D01*
X47801Y269173D01*
X47777Y269109D01*
X47748Y269046D01*
X47717Y268985D01*
X47682Y268926D01*
X47644Y268868D01*
X47602Y268813D01*
X47558Y268761D01*
X47510Y268711D01*
X47460Y268663D01*
X47408Y268619D01*
X47353Y268578D01*
X47295Y268539D01*
X47236Y268504D01*
X47175Y268473D01*
X47112Y268444D01*
X47048Y268420D01*
X46982Y268399D01*
X46915Y268382D01*
X46848Y268368D01*
X46780Y268359D01*
X46711Y268353D01*
X46642Y268351D01*
X44596Y268351D01*
X44596Y273262D01*
X40885Y273262D02*
X40885Y268351D01*
X40885Y273262D02*
X37202Y273262D01*
X37133Y273260D01*
X37065Y273254D01*
X36996Y273245D01*
X36929Y273231D01*
X36862Y273214D01*
X36796Y273193D01*
X36732Y273169D01*
X36669Y273140D01*
X36608Y273109D01*
X36549Y273074D01*
X36491Y273036D01*
X36436Y272994D01*
X36384Y272950D01*
X36334Y272902D01*
X36286Y272852D01*
X36242Y272800D01*
X36201Y272745D01*
X36162Y272687D01*
X36127Y272628D01*
X36096Y272567D01*
X36067Y272504D01*
X36043Y272440D01*
X36022Y272374D01*
X36005Y272307D01*
X35991Y272240D01*
X35982Y272172D01*
X35976Y272103D01*
X35974Y272034D01*
X35975Y272034D02*
X35975Y268351D01*
X38430Y268351D02*
X38430Y273262D01*
X31280Y268351D02*
X29234Y268351D01*
X31280Y268351D02*
X31349Y268353D01*
X31417Y268359D01*
X31486Y268368D01*
X31553Y268382D01*
X31620Y268399D01*
X31686Y268420D01*
X31750Y268444D01*
X31813Y268473D01*
X31874Y268504D01*
X31933Y268539D01*
X31991Y268577D01*
X32046Y268619D01*
X32098Y268663D01*
X32148Y268711D01*
X32196Y268761D01*
X32240Y268813D01*
X32282Y268868D01*
X32320Y268926D01*
X32355Y268985D01*
X32386Y269046D01*
X32415Y269109D01*
X32439Y269173D01*
X32460Y269239D01*
X32477Y269306D01*
X32491Y269373D01*
X32500Y269442D01*
X32506Y269510D01*
X32508Y269579D01*
X32508Y271625D01*
X32506Y271704D01*
X32500Y271783D01*
X32491Y271862D01*
X32478Y271940D01*
X32460Y272017D01*
X32440Y272093D01*
X32415Y272168D01*
X32387Y272242D01*
X32356Y272315D01*
X32320Y272386D01*
X32282Y272455D01*
X32240Y272522D01*
X32195Y272587D01*
X32147Y272650D01*
X32096Y272711D01*
X32042Y272768D01*
X31986Y272824D01*
X31927Y272876D01*
X31865Y272926D01*
X31801Y272972D01*
X31735Y273016D01*
X31667Y273056D01*
X31597Y273092D01*
X31525Y273126D01*
X31451Y273156D01*
X31377Y273182D01*
X31301Y273205D01*
X31224Y273223D01*
X31147Y273239D01*
X31068Y273250D01*
X30990Y273258D01*
X30911Y273262D01*
X30831Y273262D01*
X30752Y273258D01*
X30674Y273250D01*
X30595Y273239D01*
X30518Y273223D01*
X30441Y273205D01*
X30365Y273182D01*
X30291Y273156D01*
X30217Y273126D01*
X30145Y273092D01*
X30075Y273056D01*
X30007Y273016D01*
X29941Y272972D01*
X29877Y272926D01*
X29815Y272876D01*
X29756Y272824D01*
X29700Y272768D01*
X29646Y272711D01*
X29595Y272650D01*
X29547Y272587D01*
X29502Y272522D01*
X29460Y272455D01*
X29422Y272386D01*
X29386Y272315D01*
X29355Y272242D01*
X29327Y272168D01*
X29302Y272093D01*
X29282Y272017D01*
X29264Y271940D01*
X29251Y271862D01*
X29242Y271783D01*
X29236Y271704D01*
X29234Y271625D01*
X29234Y270806D01*
X32508Y270806D01*
X25924Y268351D02*
X25924Y273262D01*
X23878Y273262D01*
X23809Y273260D01*
X23741Y273254D01*
X23672Y273245D01*
X23605Y273231D01*
X23538Y273214D01*
X23472Y273193D01*
X23408Y273169D01*
X23345Y273140D01*
X23284Y273109D01*
X23225Y273074D01*
X23167Y273036D01*
X23112Y272994D01*
X23060Y272950D01*
X23010Y272902D01*
X22962Y272852D01*
X22918Y272800D01*
X22877Y272745D01*
X22838Y272687D01*
X22803Y272628D01*
X22772Y272567D01*
X22743Y272504D01*
X22719Y272440D01*
X22698Y272374D01*
X22681Y272307D01*
X22667Y272240D01*
X22658Y272172D01*
X22652Y272103D01*
X22650Y272034D01*
X22650Y268351D01*
X19971Y273262D02*
X17516Y273262D01*
X19152Y275717D02*
X19152Y269579D01*
X19153Y269579D02*
X19151Y269510D01*
X19145Y269442D01*
X19136Y269373D01*
X19122Y269306D01*
X19105Y269239D01*
X19084Y269173D01*
X19060Y269109D01*
X19031Y269046D01*
X19000Y268985D01*
X18965Y268926D01*
X18927Y268868D01*
X18885Y268813D01*
X18841Y268761D01*
X18793Y268711D01*
X18743Y268663D01*
X18691Y268619D01*
X18636Y268578D01*
X18578Y268539D01*
X18519Y268504D01*
X18458Y268473D01*
X18395Y268444D01*
X18331Y268420D01*
X18265Y268399D01*
X18198Y268382D01*
X18131Y268368D01*
X18063Y268359D01*
X17994Y268353D01*
X17925Y268351D01*
X17516Y268351D01*
X14094Y271216D02*
X12048Y270397D01*
X14094Y271216D02*
X14153Y271241D01*
X14210Y271270D01*
X14265Y271303D01*
X14318Y271339D01*
X14369Y271377D01*
X14417Y271419D01*
X14463Y271464D01*
X14506Y271511D01*
X14546Y271561D01*
X14583Y271613D01*
X14617Y271668D01*
X14648Y271724D01*
X14675Y271782D01*
X14698Y271842D01*
X14718Y271902D01*
X14734Y271964D01*
X14747Y272027D01*
X14755Y272091D01*
X14760Y272154D01*
X14761Y272218D01*
X14758Y272282D01*
X14751Y272346D01*
X14740Y272409D01*
X14726Y272471D01*
X14708Y272533D01*
X14686Y272593D01*
X14661Y272652D01*
X14632Y272709D01*
X14599Y272764D01*
X14564Y272817D01*
X14525Y272868D01*
X14483Y272917D01*
X14439Y272963D01*
X14391Y273006D01*
X14342Y273046D01*
X14289Y273083D01*
X14235Y273117D01*
X14179Y273148D01*
X14121Y273175D01*
X14062Y273199D01*
X14001Y273218D01*
X13939Y273235D01*
X13876Y273247D01*
X13813Y273256D01*
X13749Y273261D01*
X13685Y273262D01*
X13549Y273258D01*
X13414Y273250D01*
X13278Y273238D01*
X13144Y273222D01*
X13009Y273202D01*
X12876Y273179D01*
X12743Y273151D01*
X12611Y273120D01*
X12480Y273085D01*
X12350Y273046D01*
X12221Y273003D01*
X12094Y272956D01*
X11968Y272906D01*
X11843Y272852D01*
X12048Y270397D02*
X11989Y270372D01*
X11932Y270343D01*
X11877Y270310D01*
X11824Y270274D01*
X11773Y270236D01*
X11725Y270194D01*
X11679Y270149D01*
X11636Y270102D01*
X11596Y270052D01*
X11559Y270000D01*
X11525Y269945D01*
X11494Y269889D01*
X11467Y269831D01*
X11444Y269771D01*
X11424Y269711D01*
X11408Y269649D01*
X11395Y269586D01*
X11387Y269522D01*
X11382Y269459D01*
X11381Y269395D01*
X11384Y269331D01*
X11391Y269267D01*
X11402Y269204D01*
X11416Y269142D01*
X11434Y269080D01*
X11456Y269020D01*
X11481Y268961D01*
X11510Y268904D01*
X11543Y268849D01*
X11578Y268796D01*
X11617Y268745D01*
X11659Y268696D01*
X11703Y268650D01*
X11751Y268607D01*
X11800Y268567D01*
X11853Y268530D01*
X11907Y268496D01*
X11963Y268465D01*
X12021Y268438D01*
X12080Y268414D01*
X12141Y268395D01*
X12203Y268378D01*
X12266Y268366D01*
X12329Y268357D01*
X12393Y268352D01*
X12457Y268351D01*
X12621Y268355D01*
X12785Y268363D01*
X12949Y268375D01*
X13112Y268391D01*
X13275Y268411D01*
X13438Y268434D01*
X13599Y268462D01*
X13761Y268493D01*
X13921Y268528D01*
X14080Y268567D01*
X14239Y268610D01*
X14396Y268656D01*
X14553Y268706D01*
X14708Y268760D01*
M02*
