G04 EAGLE Gerber RS-274X export*
G75*
%MOMM*%
%FSLAX34Y34*%
%LPD*%
%INSoldermask Top*%
%IPPOS*%
%AMOC8*
5,1,8,0,0,1.08239X$1,22.5*%
G01*
%ADD10R,1.593200X1.113200*%
%ADD11R,1.303200X1.203200*%
%ADD12R,1.803200X2.003200*%
%ADD13R,1.203200X1.303200*%
%ADD14R,2.003200X1.803200*%
%ADD15R,1.113200X1.593200*%
%ADD16R,1.103200X0.803200*%
%ADD17R,1.678200X0.503200*%
%ADD18R,0.503200X1.678200*%
%ADD19R,1.703200X0.853200*%
%ADD20R,1.553200X0.603200*%
%ADD21R,1.803200X2.403200*%
%ADD22R,2.103200X2.003200*%
%ADD23R,2.103200X2.103200*%
%ADD24C,1.727200*%
%ADD25P,1.869504X8X202.500000*%
%ADD26R,0.803200X0.953200*%
%ADD27R,1.103200X1.153200*%
%ADD28R,1.803200X2.006200*%
%ADD29R,2.006200X1.803200*%
%ADD30R,1.603200X1.403200*%
%ADD31P,1.869504X8X22.500000*%
%ADD32C,0.959600*%


D10*
X27940Y169600D03*
X27940Y186000D03*
D11*
X237100Y152400D03*
X220100Y152400D03*
X268850Y138430D03*
X251850Y138430D03*
X250580Y113030D03*
X267580Y113030D03*
D12*
X243810Y172720D03*
X271810Y172720D03*
D13*
X222250Y175650D03*
X222250Y192650D03*
X200660Y154060D03*
X200660Y171060D03*
X168910Y165980D03*
X168910Y148980D03*
D10*
X95250Y184840D03*
X95250Y201240D03*
D11*
X268850Y91440D03*
X251850Y91440D03*
D13*
X139700Y29600D03*
X139700Y46600D03*
D11*
X113420Y74930D03*
X130420Y74930D03*
D13*
X127000Y126610D03*
X127000Y109610D03*
D14*
X128270Y148560D03*
X128270Y176560D03*
X116840Y52100D03*
X116840Y24100D03*
D13*
X163830Y218830D03*
X163830Y235830D03*
X241300Y237100D03*
X241300Y220100D03*
D15*
X433760Y256540D03*
X450160Y256540D03*
X402010Y256540D03*
X418410Y256540D03*
D16*
X433100Y219100D03*
X433100Y238100D03*
X405100Y228600D03*
D17*
X148120Y116400D03*
X148120Y111400D03*
X148120Y106400D03*
X148120Y101400D03*
X148120Y96400D03*
X148120Y91400D03*
X148120Y86400D03*
X148120Y81400D03*
X148120Y76400D03*
X148120Y71400D03*
X148120Y66400D03*
X148120Y61400D03*
D18*
X163000Y46520D03*
X168000Y46520D03*
X173000Y46520D03*
X178000Y46520D03*
X183000Y46520D03*
X188000Y46520D03*
X193000Y46520D03*
X198000Y46520D03*
X203000Y46520D03*
X208000Y46520D03*
X213000Y46520D03*
X218000Y46520D03*
D17*
X232880Y61400D03*
X232880Y66400D03*
X232880Y71400D03*
X232880Y76400D03*
X232880Y81400D03*
X232880Y86400D03*
X232880Y91400D03*
X232880Y96400D03*
X232880Y101400D03*
X232880Y106400D03*
X232880Y111400D03*
X232880Y116400D03*
D18*
X218000Y131280D03*
X213000Y131280D03*
X208000Y131280D03*
X203000Y131280D03*
X198000Y131280D03*
X193000Y131280D03*
X188000Y131280D03*
X183000Y131280D03*
X178000Y131280D03*
X173000Y131280D03*
X168000Y131280D03*
X163000Y131280D03*
D19*
X303200Y260350D03*
X303200Y247650D03*
X303200Y234950D03*
X303200Y222250D03*
X357200Y222250D03*
X357200Y234950D03*
X357200Y247650D03*
X357200Y260350D03*
D16*
X49500Y187300D03*
X49500Y168300D03*
X77500Y177800D03*
D20*
X48710Y103170D03*
X48710Y96670D03*
X48710Y90170D03*
X48710Y83670D03*
X48710Y77170D03*
D21*
X47460Y121670D03*
X47460Y58670D03*
D22*
X21960Y130170D03*
D23*
X21960Y102170D03*
X21960Y78170D03*
D22*
X21960Y50170D03*
D24*
X304800Y45720D02*
X304800Y30480D01*
X330200Y30480D02*
X330200Y45720D01*
X355600Y45720D02*
X355600Y30480D01*
X381000Y30480D02*
X381000Y45720D01*
X609600Y33020D02*
X609600Y17780D01*
X584200Y17780D02*
X584200Y33020D01*
X558800Y33020D02*
X558800Y17780D01*
X533400Y17780D02*
X533400Y33020D01*
X604520Y251460D02*
X604520Y266700D01*
X579120Y266700D02*
X579120Y251460D01*
X553720Y251460D02*
X553720Y266700D01*
X528320Y266700D02*
X528320Y251460D01*
D25*
X495300Y152400D03*
X495300Y127000D03*
X469900Y152400D03*
X469900Y127000D03*
X444500Y152400D03*
X444500Y127000D03*
X419100Y152400D03*
X419100Y127000D03*
X393700Y152400D03*
X393700Y127000D03*
X368300Y152400D03*
X368300Y127000D03*
D24*
X608330Y87630D02*
X608330Y72390D01*
X582930Y72390D02*
X582930Y87630D01*
X557530Y87630D02*
X557530Y72390D01*
X532130Y72390D02*
X532130Y87630D01*
D26*
X97790Y49110D03*
X97790Y60110D03*
X144780Y164250D03*
X144780Y153250D03*
D27*
X541400Y190500D03*
X525400Y190500D03*
X541400Y165100D03*
X525400Y165100D03*
X500760Y215900D03*
X484760Y215900D03*
X67690Y223520D03*
X51690Y223520D03*
D13*
X399170Y194310D03*
X416170Y194310D03*
D28*
X356620Y71120D03*
X385060Y71120D03*
X302010Y74930D03*
X330450Y74930D03*
X473960Y77470D03*
X445520Y77470D03*
D13*
X448700Y177800D03*
X465700Y177800D03*
D11*
X459740Y229480D03*
X459740Y212480D03*
X107950Y167250D03*
X107950Y150250D03*
D28*
X242320Y259080D03*
X270760Y259080D03*
D29*
X261620Y197870D03*
X261620Y226310D03*
D28*
X369820Y200660D03*
X341380Y200660D03*
X316480Y200660D03*
X288040Y200660D03*
D11*
X17780Y229480D03*
X17780Y212480D03*
D30*
X214200Y237100D03*
X192200Y237100D03*
X192200Y220100D03*
X214200Y220100D03*
D11*
X254880Y34290D03*
X237880Y34290D03*
D31*
X304800Y139700D03*
D32*
X76200Y203200D03*
X91440Y224790D03*
X63500Y76200D03*
X101600Y25400D03*
X139700Y17780D03*
X101600Y76200D03*
X169190Y71400D03*
X165100Y114300D03*
X165100Y101600D03*
X140970Y133984D03*
X110490Y180340D03*
X93980Y212090D03*
X30480Y196850D03*
X165100Y248920D03*
X243840Y207010D03*
X190500Y250190D03*
X215900Y205740D03*
X207010Y69850D03*
X215900Y114300D03*
X196850Y113030D03*
X287020Y172720D03*
X207010Y190500D03*
X166370Y179070D03*
X248920Y152400D03*
X281940Y138430D03*
X279400Y114300D03*
X281940Y93980D03*
X266700Y34290D03*
X374650Y220980D03*
X436880Y207010D03*
X419100Y270510D03*
X458470Y270510D03*
X518160Y215900D03*
X556260Y190500D03*
X558800Y165100D03*
X34290Y156210D03*
X96520Y36830D03*
X151130Y45720D03*
X144780Y176530D03*
X243840Y189230D03*
X156194Y134194D03*
X255270Y125730D03*
X255270Y80010D03*
X240030Y45720D03*
X374650Y261620D03*
X226060Y264160D03*
X386080Y205740D03*
X403860Y69850D03*
X335280Y92710D03*
X491490Y82550D03*
X279400Y55880D03*
X324048Y90778D03*
X386080Y108176D03*
X406174Y82550D03*
X429260Y82550D03*
X182880Y158750D03*
X287020Y259080D03*
X184576Y149662D03*
X279400Y243840D03*
X191727Y143961D03*
X278130Y232410D03*
X137306Y124460D03*
X214630Y250190D03*
X281940Y66040D03*
X314960Y90170D03*
X375920Y108176D03*
X381000Y170180D03*
X342900Y114526D03*
X342900Y139700D03*
X215900Y78344D03*
X435610Y93980D03*
X215900Y87432D03*
X457200Y101600D03*
X182682Y66252D03*
X191770Y66040D03*
X191162Y31976D03*
X444500Y38100D03*
X200250Y31976D03*
X431800Y25400D03*
X209550Y31976D03*
X215900Y96520D03*
M02*
