G04 EAGLE Gerber RS-274X export*
G75*
%MOMM*%
%FSLAX34Y34*%
%LPD*%
%INSoldermask Bottom*%
%IPPOS*%
%AMOC8*
5,1,8,0,0,1.08239X$1,22.5*%
G01*
%ADD10C,1.727200*%
%ADD11P,1.869504X8X202.500000*%
%ADD12P,1.869504X8X22.500000*%
%ADD13C,0.959600*%


D10*
X304800Y30480D02*
X304800Y45720D01*
X330200Y45720D02*
X330200Y30480D01*
X355600Y30480D02*
X355600Y45720D01*
X381000Y45720D02*
X381000Y30480D01*
X609600Y33020D02*
X609600Y17780D01*
X584200Y17780D02*
X584200Y33020D01*
X558800Y33020D02*
X558800Y17780D01*
X533400Y17780D02*
X533400Y33020D01*
X604520Y251460D02*
X604520Y266700D01*
X579120Y266700D02*
X579120Y251460D01*
X553720Y251460D02*
X553720Y266700D01*
X528320Y266700D02*
X528320Y251460D01*
D11*
X495300Y152400D03*
X495300Y127000D03*
X469900Y152400D03*
X469900Y127000D03*
X444500Y152400D03*
X444500Y127000D03*
X419100Y152400D03*
X419100Y127000D03*
X393700Y152400D03*
X393700Y127000D03*
X368300Y152400D03*
X368300Y127000D03*
D10*
X608330Y87630D02*
X608330Y72390D01*
X582930Y72390D02*
X582930Y87630D01*
X557530Y87630D02*
X557530Y72390D01*
X532130Y72390D02*
X532130Y87630D01*
D12*
X304800Y139700D03*
D13*
X76200Y203200D03*
X91440Y224790D03*
X63500Y76200D03*
X101600Y25400D03*
X139700Y17780D03*
X101600Y76200D03*
X169190Y71400D03*
X165100Y114300D03*
X165100Y101600D03*
X140970Y133984D03*
X110490Y180340D03*
X93980Y212090D03*
X30480Y196850D03*
X165100Y248920D03*
X243840Y207010D03*
X190500Y250190D03*
X215900Y205740D03*
X207010Y69850D03*
X215900Y114300D03*
X196850Y113030D03*
X287020Y172720D03*
X207010Y190500D03*
X166370Y179070D03*
X248920Y152400D03*
X281940Y138430D03*
X279400Y114300D03*
X281940Y93980D03*
X266700Y34290D03*
X374650Y220980D03*
X436880Y207010D03*
X419100Y270510D03*
X458470Y270510D03*
X518160Y215900D03*
X556260Y190500D03*
X558800Y165100D03*
X34290Y156210D03*
X96520Y36830D03*
X151130Y45720D03*
X144780Y176530D03*
X243840Y189230D03*
X156194Y134194D03*
X255270Y125730D03*
X255270Y80010D03*
X240030Y45720D03*
X374650Y261620D03*
X226060Y264160D03*
X386080Y205740D03*
X403860Y69850D03*
X335280Y92710D03*
X491490Y82550D03*
X279400Y55880D03*
X324048Y90778D03*
X386080Y108176D03*
X406174Y82550D03*
X429260Y82550D03*
X182880Y158750D03*
X287020Y259080D03*
X184576Y149662D03*
X279400Y243840D03*
X191727Y143961D03*
X278130Y232410D03*
X137306Y124460D03*
X214630Y250190D03*
X281940Y66040D03*
X314960Y90170D03*
X375920Y108176D03*
X381000Y170180D03*
X342900Y114526D03*
X342900Y139700D03*
X215900Y78344D03*
X435610Y93980D03*
X215900Y87432D03*
X457200Y101600D03*
X182682Y66252D03*
X191770Y66040D03*
X191162Y31976D03*
X444500Y38100D03*
X200250Y31976D03*
X431800Y25400D03*
X209550Y31976D03*
X215900Y96520D03*
M02*
