G04 EAGLE Gerber RS-274X export*
G75*
%MOMM*%
%FSLAX34Y34*%
%LPD*%
%INSolderpaste Top*%
%IPPOS*%
%AMOC8*
5,1,8,0,0,1.08239X$1,22.5*%
G01*
%ADD10R,1.390000X0.910000*%
%ADD11R,1.100000X1.000000*%
%ADD12R,1.600000X1.800000*%
%ADD13R,1.000000X1.100000*%
%ADD14R,1.800000X1.600000*%
%ADD15R,0.910000X1.390000*%
%ADD16R,0.900000X0.600000*%
%ADD17R,1.475000X0.300000*%
%ADD18R,0.300000X1.475000*%
%ADD19R,1.500000X0.650000*%
%ADD20R,1.350000X0.400000*%
%ADD21R,1.600000X2.200000*%
%ADD22R,1.900000X1.800000*%
%ADD23R,1.900000X1.900000*%
%ADD24R,0.600000X0.750000*%
%ADD25R,0.900000X0.950000*%
%ADD26R,1.600000X1.803000*%
%ADD27R,1.803000X1.600000*%
%ADD28R,1.400000X1.200000*%


D10*
X27940Y169600D03*
X27940Y186000D03*
D11*
X237100Y152400D03*
X220100Y152400D03*
X268850Y138430D03*
X251850Y138430D03*
X250580Y113030D03*
X267580Y113030D03*
D12*
X243810Y172720D03*
X271810Y172720D03*
D13*
X222250Y175650D03*
X222250Y192650D03*
X200660Y154060D03*
X200660Y171060D03*
X168910Y165980D03*
X168910Y148980D03*
D10*
X95250Y184840D03*
X95250Y201240D03*
D11*
X268850Y91440D03*
X251850Y91440D03*
D13*
X139700Y29600D03*
X139700Y46600D03*
D11*
X113420Y74930D03*
X130420Y74930D03*
D13*
X127000Y126610D03*
X127000Y109610D03*
D14*
X128270Y148560D03*
X128270Y176560D03*
X116840Y52100D03*
X116840Y24100D03*
D13*
X163830Y218830D03*
X163830Y235830D03*
X241300Y237100D03*
X241300Y220100D03*
D15*
X433760Y256540D03*
X450160Y256540D03*
X402010Y256540D03*
X418410Y256540D03*
D16*
X433100Y219100D03*
X433100Y238100D03*
X405100Y228600D03*
D17*
X148120Y116400D03*
X148120Y111400D03*
X148120Y106400D03*
X148120Y101400D03*
X148120Y96400D03*
X148120Y91400D03*
X148120Y86400D03*
X148120Y81400D03*
X148120Y76400D03*
X148120Y71400D03*
X148120Y66400D03*
X148120Y61400D03*
D18*
X163000Y46520D03*
X168000Y46520D03*
X173000Y46520D03*
X178000Y46520D03*
X183000Y46520D03*
X188000Y46520D03*
X193000Y46520D03*
X198000Y46520D03*
X203000Y46520D03*
X208000Y46520D03*
X213000Y46520D03*
X218000Y46520D03*
D17*
X232880Y61400D03*
X232880Y66400D03*
X232880Y71400D03*
X232880Y76400D03*
X232880Y81400D03*
X232880Y86400D03*
X232880Y91400D03*
X232880Y96400D03*
X232880Y101400D03*
X232880Y106400D03*
X232880Y111400D03*
X232880Y116400D03*
D18*
X218000Y131280D03*
X213000Y131280D03*
X208000Y131280D03*
X203000Y131280D03*
X198000Y131280D03*
X193000Y131280D03*
X188000Y131280D03*
X183000Y131280D03*
X178000Y131280D03*
X173000Y131280D03*
X168000Y131280D03*
X163000Y131280D03*
D19*
X303200Y260350D03*
X303200Y247650D03*
X303200Y234950D03*
X303200Y222250D03*
X357200Y222250D03*
X357200Y234950D03*
X357200Y247650D03*
X357200Y260350D03*
D16*
X49500Y187300D03*
X49500Y168300D03*
X77500Y177800D03*
D20*
X48710Y103170D03*
X48710Y96670D03*
X48710Y90170D03*
X48710Y83670D03*
X48710Y77170D03*
D21*
X47460Y121670D03*
X47460Y58670D03*
D22*
X21960Y130170D03*
D23*
X21960Y102170D03*
X21960Y78170D03*
D22*
X21960Y50170D03*
D24*
X97790Y49110D03*
X97790Y60110D03*
X144780Y164250D03*
X144780Y153250D03*
D25*
X541400Y190500D03*
X525400Y190500D03*
X541400Y165100D03*
X525400Y165100D03*
X500760Y215900D03*
X484760Y215900D03*
X67690Y223520D03*
X51690Y223520D03*
D13*
X399170Y194310D03*
X416170Y194310D03*
D26*
X356620Y71120D03*
X385060Y71120D03*
X302010Y74930D03*
X330450Y74930D03*
X473960Y77470D03*
X445520Y77470D03*
D13*
X448700Y177800D03*
X465700Y177800D03*
D11*
X459740Y229480D03*
X459740Y212480D03*
X107950Y167250D03*
X107950Y150250D03*
D26*
X242320Y259080D03*
X270760Y259080D03*
D27*
X261620Y197870D03*
X261620Y226310D03*
D26*
X369820Y200660D03*
X341380Y200660D03*
X316480Y200660D03*
X288040Y200660D03*
D11*
X17780Y229480D03*
X17780Y212480D03*
D28*
X214200Y237100D03*
X192200Y237100D03*
X192200Y220100D03*
X214200Y220100D03*
D11*
X254880Y34290D03*
X237880Y34290D03*
M02*
